<?xml version="1.0" encoding="UTF-8" standalone="no"?>
<!-- Created with Inkscape (http://www.inkscape.org/) -->

<svg
   xmlns:dc="http://purl.org/dc/elements/1.1/"
   xmlns:cc="http://creativecommons.org/ns#"
   xmlns:rdf="http://www.w3.org/1999/02/22-rdf-syntax-ns#"
   xmlns:svg="http://www.w3.org/2000/svg"
   xmlns="http://www.w3.org/2000/svg"
   xmlns:sodipodi="http://sodipodi.sourceforge.net/DTD/sodipodi-0.dtd"
   xmlns:inkscape="http://www.inkscape.org/namespaces/inkscape"
   width="479.67242"
   height="193.50995"
   id="svg2"
   version="1.1"
   inkscape:version="0.91 r13725"
   sodipodi:docname="infinite-bandwidth.svg">
  <sodipodi:namedview
     inkscape:snap-midpoints="true"
     inkscape:snap-smooth-nodes="true"
     inkscape:object-nodes="true"
     inkscape:snap-intersection-paths="false"
     inkscape:object-paths="false"
     inkscape:window-maximized="1"
     inkscape:window-y="24"
     inkscape:window-x="65"
     inkscape:window-height="1056"
     inkscape:window-width="1855"
     showgrid="false"
     inkscape:current-layer="layer1"
     inkscape:document-units="px"
     inkscape:cy="112.09635"
     inkscape:cx="171.44972"
     inkscape:zoom="2.34"
     inkscape:pageshadow="2"
     inkscape:pageopacity="0"
     borderopacity="1.0"
     bordercolor="#666666"
     pagecolor="#7f7f7f"
     id="base"
     fit-margin-top="8"
     fit-margin-left="8"
     fit-margin-bottom="8"
     fit-margin-right="8">
    <inkscape:grid
       type="xygrid"
       id="grid2985"
       empspacing="4"
       visible="true"
       enabled="true"
       snapvisiblegridlinesonly="true"
       originx="-40.999577"
       originy="-129.49005" />
  </sodipodi:namedview>
  <defs
     id="defs4">
    <marker
       inkscape:stockid="Arrow1Mend"
       orient="auto"
       refY="0"
       refX="0"
       id="marker4609"
       style="overflow:visible"
       inkscape:isstock="true">
      <path
         id="path4359"
         d="M 0,0 5,-5 -12.5,0 5,5 0,0 Z"
         style="fill:#ffffff;fill-opacity:1;fill-rule:evenodd;stroke:#ffffff;stroke-width:1pt;stroke-opacity:1"
         transform="matrix(-0.4,0,0,-0.4,-4,0)"
         inkscape:connector-curvature="0" />
    </marker>
    <marker
       inkscape:stockid="Arrow1Mstart"
       orient="auto"
       refY="0"
       refX="0"
       id="marker4606"
       style="overflow:visible"
       inkscape:isstock="true">
      <path
         id="path4356"
         d="M 0,0 5,-5 -12.5,0 5,5 0,0 Z"
         style="fill:#ffffff;fill-opacity:1;fill-rule:evenodd;stroke:#ffffff;stroke-width:1pt;stroke-opacity:1"
         transform="matrix(0.4,0,0,0.4,4,0)"
         inkscape:connector-curvature="0" />
    </marker>
    <marker
       inkscape:stockid="Arrow1Mstart"
       orient="auto"
       refY="0"
       refX="0"
       id="Arrow1Mstart"
       style="overflow:visible">
      <path
         id="path3786"
         d="M 0,0 5,-5 -12.5,0 5,5 0,0 Z"
         style="fill-rule:evenodd;stroke:#000000;stroke-width:1pt"
         transform="matrix(0.4,0,0,0.4,4,0)"
         inkscape:connector-curvature="0" />
    </marker>
    <marker
       inkscape:stockid="Arrow1Mend"
       orient="auto"
       refY="0"
       refX="0"
       id="Arrow1Mend"
       style="overflow:visible">
      <path
         id="path3828"
         d="M 0,0 5,-5 -12.5,0 5,5 0,0 Z"
         style="fill-rule:evenodd;stroke:#000000;stroke-width:1pt"
         transform="matrix(-0.4,0,0,-0.4,-4,0)"
         inkscape:connector-curvature="0" />
    </marker>
    <marker
       inkscape:stockid="Arrow1Lend"
       orient="auto"
       refY="0"
       refX="0"
       id="Arrow1Lend"
       style="overflow:visible">
      <path
         id="path3822"
         d="M 0,0 5,-5 -12.5,0 5,5 0,0 Z"
         style="fill-rule:evenodd;stroke:#000000;stroke-width:1pt"
         transform="matrix(-0.8,0,0,-0.8,-10,0)"
         inkscape:connector-curvature="0" />
    </marker>
    <marker
       inkscape:stockid="Arrow1MstartW"
       orient="auto"
       refY="0"
       refX="0"
       id="Arrow1MstartW"
       style="overflow:visible">
      <path
         id="path4421"
         d="M 0,0 5,-5 -12.5,0 5,5 0,0 Z"
         style="fill:#ffffff;fill-rule:evenodd;stroke:#ffffff;stroke-width:1pt"
         transform="matrix(0.4,0,0,0.4,4,0)"
         inkscape:connector-curvature="0" />
    </marker>
    <marker
       inkscape:stockid="Arrow1MendQ"
       orient="auto"
       refY="0"
       refX="0"
       id="Arrow1MendQ"
       style="overflow:visible">
      <path
         id="path4424"
         d="M 0,0 5,-5 -12.5,0 5,5 0,0 Z"
         style="fill:#ffffff;fill-rule:evenodd;stroke:#ffffff;stroke-width:1pt"
         transform="matrix(-0.4,0,0,-0.4,-4,0)"
         inkscape:connector-curvature="0" />
    </marker>
    <marker
       inkscape:stockid="Arrow1MstartWn"
       orient="auto"
       refY="0"
       refX="0"
       id="Arrow1MstartWn"
       style="overflow:visible">
      <path
         id="path3833"
         d="M 0,0 5,-5 -12.5,0 5,5 0,0 Z"
         style="fill:#000000;fill-rule:evenodd;stroke:#000000;stroke-width:1pt"
         transform="matrix(0.4,0,0,0.4,4,0)"
         inkscape:connector-curvature="0" />
    </marker>
    <marker
       inkscape:stockid="Arrow1MendQ7"
       orient="auto"
       refY="0"
       refX="0"
       id="Arrow1MendQ7"
       style="overflow:visible">
      <path
         id="path3836"
         d="M 0,0 5,-5 -12.5,0 5,5 0,0 Z"
         style="fill:#000000;fill-rule:evenodd;stroke:#000000;stroke-width:1pt"
         transform="matrix(-0.4,0,0,-0.4,-4,0)"
         inkscape:connector-curvature="0" />
    </marker>
  </defs>
  <metadata
     id="metadata7">
    <rdf:RDF>
      <cc:Work
         rdf:about="">
        <dc:format>image/svg+xml</dc:format>
        <dc:type
           rdf:resource="http://purl.org/dc/dcmitype/StillImage" />
        <dc:title></dc:title>
      </cc:Work>
    </rdf:RDF>
  </metadata>
  <g
     inkscape:label="Layer 1"
     inkscape:groupmode="layer"
     id="layer1"
     transform="translate(-40.999577,-729.36218)">
    <path
       id="path4821"
       title="1/(1+x**2)"
       d="m 48.999996,888.29461 c 0.540365,-2.2e-4 1.080729,-4.5e-4 1.621094,-6.8e-4 0.540364,-2.3e-4 1.080729,-4.6e-4 1.621094,-6.9e-4 0.540364,-2.4e-4 1.080729,-4.7e-4 1.621093,-7.1e-4 0.540365,-2.3e-4 1.080729,-4.7e-4 1.621094,-7.1e-4 0.540365,-2.4e-4 1.080729,-4.9e-4 1.621094,-7.3e-4 0.540364,-2.4e-4 1.080729,-4.9e-4 1.621094,-7.4e-4 0.540364,-2.5e-4 1.080729,-5e-4 1.621093,-7.5e-4 0.540365,-2.5e-4 1.080729,-5.1e-4 1.621094,-7.6e-4 0.540365,-2.6e-4 1.080729,-5.2e-4 1.621094,-7.8e-4 0.540364,-2.6e-4 1.080729,-5.2e-4 1.621093,-7.9e-4 0.540365,-2.6e-4 1.08073,-5.3e-4 1.621094,-8e-4 0.540365,-2.7e-4 1.080729,-5.4e-4 1.621094,-8.2e-4 0.540365,-2.7e-4 1.080729,-5.5e-4 1.621094,-8.3e-4 0.540364,-2.7e-4 1.080729,-5.6e-4 1.621093,-8.4e-4 0.540365,-2.8e-4 1.08073,-5.7e-4 1.621094,-8.6e-4 0.540365,-2.8e-4 1.080729,-5.8e-4 1.621094,-8.7e-4 0.540365,-2.9e-4 1.080729,-5.9e-4 1.621094,-8.9e-4 0.540364,-2.9e-4 1.080729,-5.9e-4 1.621093,-9e-4 0.540365,-3e-4 1.08073,-6.1e-4 1.621094,-9.2e-4 0.540365,-3.1e-4 1.080729,-6.2e-4 1.621094,-9.3e-4 0.540365,-3.1e-4 1.080729,-6.3e-4 1.621094,-9.5e-4 0.540364,-3.2e-4 1.080729,-6.4e-4 1.621093,-9.7e-4 0.540365,-3.2e-4 1.08073,-6.5e-4 1.621094,-9.8e-4 0.540365,-3.3e-4 1.080729,-6.7e-4 1.621094,-10e-4 0.540365,-3.3e-4 1.080729,-6.7e-4 1.621094,-10e-4 0.540364,-3.4e-4 1.080729,-6.8e-4 1.621093,-0.001 0.540365,-3.5e-4 1.08073,-7.1e-4 1.621094,-10e-4 0.540365,-3.6e-4 1.080729,-7.2e-4 1.621094,-10e-4 0.540365,-3.6e-4 1.080729,-7.3e-4 1.621094,-10e-4 0.540364,-3.6e-4 1.080729,-7.4e-4 1.621093,-10e-4 0.540365,-3.8e-4 1.08073,-7.6e-4 1.621094,-0.001 0.540365,-3.8e-4 1.080728,-7.7e-4 1.621098,-10e-4 0.54036,-3.9e-4 1.08073,-7.8e-4 1.62109,-10e-4 0.54036,-4e-4 1.08073,-8e-4 1.62109,-10e-4 0.54037,-4e-4 1.08073,-8.1e-4 1.6211,-0.001 0.54036,-4.2e-4 1.08073,-8.3e-4 1.62109,-10e-4 0.54037,-4.2e-4 1.08073,-8.5e-4 1.62109,-10e-4 0.54037,-4.3e-4 1.08073,-8.6e-4 1.6211,-10e-4 0.54036,-4.4e-4 1.08073,-8.8e-4 1.62109,-10e-4 0.54037,-4.5e-4 1.08073,-9e-4 1.6211,-0.001 0.54036,-4.5e-4 1.08073,-9.1e-4 1.62109,-10e-4 0.54036,-4.7e-4 1.08073,-9.4e-4 1.62109,-10e-4 0.54037,-4.7e-4 1.08073,-9.5e-4 1.6211,-10e-4 0.54036,-4.9e-4 1.08073,-9.8e-4 1.62109,-10e-4 0.54037,-4.9e-4 1.08073,-9.9e-4 1.62109,-0.001 0.54037,-5.1e-4 1.08073,-10e-4 1.6211,-0.002 0.54036,-5.1e-4 1.08073,-10e-4 1.62109,-0.002 0.54037,-5.3e-4 1.08073,-0.001 1.6211,-0.002 0.54036,-5.4e-4 1.08073,-10e-4 1.62109,-0.002 0.54036,-5.5e-4 1.08073,-10e-4 1.62109,-0.002 0.54037,-5.6e-4 1.08073,-10e-4 1.6211,-0.002 0.54036,-5.7e-4 1.08073,-10e-4 1.62109,-0.002 0.54037,-5.8e-4 1.08073,-10e-4 1.62109,-0.002 0.54037,-6e-4 1.08073,-10e-4 1.6211,-0.002 0.54036,-6.1e-4 1.08073,-0.001 1.62109,-0.002 0.54037,-6.2e-4 1.08073,-10e-4 1.6211,-0.002 0.54036,-6.3e-4 1.08073,-10e-4 1.62109,-0.002 0.54036,-6.5e-4 1.08073,-10e-4 1.62109,-0.002 0.54037,-6.6e-4 1.08073,-10e-4 1.6211,-0.002 0.54036,-6.8e-4 1.08073,-0.001 1.62109,-0.002 0.54037,-7e-4 1.08073,-10e-4 1.62109,-0.002 0.54037,-7.1e-4 1.08073,-10e-4 1.6211,-0.002 0.54036,-7.2e-4 1.08073,-10e-4 1.62109,-0.002 0.54037,-7.5e-4 1.08073,-0.002 1.6211,-0.002 0.54036,-7.6e-4 1.08073,-0.002 1.62109,-0.002 0.54036,-7.8e-4 1.08073,-0.002 1.62109,-0.002 0.54037,-8e-4 1.08073,-0.002 1.6211,-0.002 0.54036,-8.2e-4 1.08073,-0.002 1.62109,-0.002 0.54037,-8.4e-4 1.08073,-0.002 1.62109,-0.003 0.54037,-8.6e-4 1.08073,-0.002 1.6211,-0.003 0.54036,-8.8e-4 1.08073,-0.002 1.62109,-0.003 0.54037,-9e-4 1.08073,-0.002 1.6211,-0.003 0.54036,-9.2e-4 1.08073,-0.002 1.62109,-0.003 0.54036,-9.5e-4 1.08073,-0.002 1.62109,-0.003 0.54037,-9.7e-4 1.08073,-0.002 1.6211,-0.003 0.54036,-9.9e-4 1.08073,-0.002 1.62109,-0.003 0.54037,-10e-4 1.08073,-0.002 1.62109,-0.003 0.54037,-10e-4 1.08073,-0.002 1.6211,-0.003 0.54036,-0.001 1.08073,-0.002 1.62109,-0.003 0.54037,-10e-4 1.08073,-0.002 1.6211,-0.003 0.54036,-10e-4 1.08073,-0.002 1.62109,-0.003 0.54036,-10e-4 1.08073,-0.002 1.62109,-0.004 0.54037,-10e-4 1.08073,-0.002 1.6211,-0.004 0.54036,-10e-4 1.08073,-0.002 1.62109,-0.004 0.54037,-10e-4 1.08073,-0.003 1.62109,-0.004 0.54037,-10e-4 1.08073,-0.003 1.6211,-0.004 0.54036,-0.001 1.08073,-0.003 1.62109,-0.004 0.54037,-10e-4 1.08073,-0.003 1.6211,-0.004 0.54036,-10e-4 1.08073,-0.003 1.62109,-0.004 0.54036,-10e-4 1.08073,-0.003 1.62109,-0.004 0.54037,-10e-4 1.08073,-0.003 1.6211,-0.005 0.54036,-0.002 1.08073,-0.003 1.62109,-0.005 0.54037,-0.002 1.08073,-0.003 1.62109,-0.005 0.54037,-0.002 1.08073,-0.003 1.6211,-0.005 0.54036,-0.002 1.08073,-0.003 1.62109,-0.005 0.54037,-0.002 1.08073,-0.004 1.6211,-0.005 0.54036,-0.002 1.08073,-0.004 1.62109,-0.005 0.54036,-0.002 1.08073,-0.004 1.62109,-0.006 0.54037,-0.002 1.08073,-0.004 1.6211,-0.006 0.54036,-0.002 1.08073,-0.004 1.62109,-0.006 0.54037,-0.002 1.08073,-0.004 1.62109,-0.006 0.54037,-0.002 1.08073,-0.004 1.6211,-0.006 0.54036,-0.002 1.08073,-0.004 1.62109,-0.007 0.54037,-0.002 1.08073,-0.005 1.6211,-0.007 0.54036,-0.002 1.08073,-0.005 1.62109,-0.007 0.54036,-0.002 1.08073,-0.005 1.62109,-0.007 0.54037,-0.002 1.08073,-0.005 1.6211,-0.008 0.54036,-0.003 1.08073,-0.005 1.62109,-0.008 0.54037,-0.003 1.08073,-0.005 1.62109,-0.008 0.54037,-0.003 1.08073,-0.006 1.6211,-0.009 0.54036,-0.003 1.08073,-0.006 1.62109,-0.009 0.54037,-0.003 1.08073,-0.006 1.6211,-0.009 0.54036,-0.003 1.08073,-0.006 1.62109,-0.01 0.54036,-0.003 1.08073,-0.007 1.62109,-0.01 0.54037,-0.003 1.08073,-0.007 1.6211,-0.0103 0.54036,-0.003 1.08073,-0.007 1.62109,-0.0107 0.54037,-0.004 1.08073,-0.007 1.62109,-0.0111 0.54037,-0.004 1.08073,-0.008 1.6211,-0.0115 0.54036,-0.004 1.08073,-0.008 1.62109,-0.012 0.54037,-0.004 1.08073,-0.008 1.6211,-0.0125 0.54036,-0.004 1.08073,-0.009 1.62109,-0.013 0.54036,-0.004 1.08073,-0.009 1.62109,-0.0136 0.54037,-0.005 1.08073,-0.009 1.6211,-0.0142 0.54036,-0.005 1.08073,-0.01 1.62109,-0.0148 0.54037,-0.005 1.08073,-0.0102 1.62109,-0.0155 0.54037,-0.005 1.08073,-0.0107 1.6211,-0.0162 0.54036,-0.006 1.08073,-0.0112 1.62109,-0.0169 0.54037,-0.006 1.08073,-0.0117 1.6211,-0.0178 0.54036,-0.006 1.08073,-0.0122 1.62109,-0.0186 0.54036,-0.006 1.08073,-0.0128 1.62109,-0.0195 0.54037,-0.007 1.08073,-0.0135 1.6211,-0.0205 0.54036,-0.007 1.08073,-0.0141 1.62109,-0.0215 0.54037,-0.007 1.08073,-0.0149 1.62109,-0.0226 0.54037,-0.008 1.08073,-0.0156 1.6211,-0.0238 0.54036,-0.008 1.08073,-0.0164 1.62109,-0.025 0.54037,-0.009 1.08073,-0.0173 1.6211,-0.0263 0.54036,-0.009 1.08073,-0.0183 1.62109,-0.0278 0.54036,-0.01 1.08073,-0.0193 1.62109,-0.0293 0.54037,-0.01 1.08073,-0.0204 1.6211,-0.031 0.54036,-0.0106 1.08073,-0.0215 1.62109,-0.0328 0.54037,-0.0113 1.08073,-0.0228 1.62109,-0.0347 0.54037,-0.0119 1.08073,-0.0242 1.6211,-0.0368 0.54036,-0.0126 1.08073,-0.0257 1.62109,-0.0391 0.54037,-0.0134 1.08073,-0.0272 1.6211,-0.0415 0.54036,-0.0143 1.08073,-0.029 1.62109,-0.0442 0.54036,-0.0152 1.08073,-0.0309 1.62109,-0.0471 0.54037,-0.0162 1.08073,-0.0329 1.6211,-0.0502 0.54036,-0.0173 1.08073,-0.0351 1.62109,-0.0536 0.54037,-0.0185 1.08073,-0.0376 1.62109,-0.0573 0.54037,-0.0198 1.08073,-0.0402 1.6211,-0.0615 0.54036,-0.0212 1.08073,-0.0432 1.62109,-0.066 0.54037,-0.0228 1.08073,-0.0464 1.6211,-0.0709 0.54036,-0.0245 1.08073,-0.0499 1.62109,-0.0763 0.54036,-0.0264 1.08073,-0.0538 1.62109,-0.0824 0.54037,-0.0285 1.08073,-0.0581 1.6211,-0.089 0.54036,-0.0309 1.08073,-0.063 1.62109,-0.0964 0.54037,-0.0335 1.08073,-0.0683 1.62109,-0.10465 0.54037,-0.0364 1.08073,-0.0743 1.6211,-0.11386 0.54036,-0.0396 1.08073,-0.0809 1.62109,-0.12417 0.54037,-0.0432 1.08073,-0.0884 1.6211,-0.13574 0.54036,-0.0473 1.08073,-0.0969 1.62109,-0.14881 0.54036,-0.052 1.08073,-0.10638 1.62109,-0.16359 0.54037,-0.0572 1.08073,-0.1172 1.6211,-0.18038 0.54036,-0.0632 1.08073,-0.12953 1.62109,-0.19953 0.54037,-0.07 1.08073,-0.14364 1.62109,-0.22148 0.54037,-0.0778 1.08073,-0.15986 1.6211,-0.24673 0.54036,-0.0869 1.08073,-0.17859 1.62109,-0.27594 0.54037,-0.0974 1.08073,-0.20033 1.6211,-0.3099 0.54036,-0.10957 1.08073,-0.22572 1.62109,-0.34962 0.54036,-0.12389 1.08073,-0.25553 1.62109,-0.39633 0.54037,-0.1408 1.08073,-0.29076 1.6211,-0.45164 0.54036,-0.16088 1.08073,-0.33268 1.62109,-0.51759 0.54037,-0.18491 1.08073,-0.38293 1.62109,-0.59682 0.54037,-0.21389 1.08073,-0.44364 1.6211,-0.69277 0.54036,-0.24914 1.08073,-0.51764 1.62109,-0.81003 0.54037,-0.2924 1.08073,-0.60866 1.6211,-0.95468 0.54036,-0.34602 1.08073,-0.72176 1.62109,-1.13498 0.54036,-0.41321 1.08073,-0.86385 1.62109,-1.36224 0.54037,-0.4984 1.08073,-1.04448 1.6211,-1.65222 0.54036,-0.60775 1.08073,-1.27703 1.62109,-2.02703 0.54037,-0.75 1.08073,-1.58053 1.62109,-2.51825 0.54037,-0.93771 1.08073,-1.98234 1.6211,-3.1714 0.54036,-1.18907 1.08073,-2.52217 1.62109,-4.05262 0.54037,-1.53045 1.08073,-3.25773 1.6211,-5.25773 0.54036,-2 1.08073,-4.27219 1.62109,-6.92308 0.54036,-2.65088 1.08073,-5.68047 1.62109,-9.23077 0.54037,-3.55029 1.08073,-7.62366 1.6211,-12.38273 0.54036,-4.75908 1.08073,-10.21342 1.62109,-16.46342 0.54037,-6.25 1.08073,-13.32 1.62109,-21 0.54037,-7.68 1.08073,-16 1.6211,-24 0.54036,-8 1.08073,-15.64014 1.62109,-21.17647 0.54037,-5.53633 1.08073,-8.82353 1.6211,-8.82353 0.54036,0 1.08073,3.2872 1.62109,8.82353 0.54036,5.53633 1.08073,13.17647 1.62109,21.17647 0.54037,8 1.08073,16.32 1.6211,24 0.54036,7.68 1.08073,14.75 1.62109,21 0.54037,6.25 1.08073,11.70434 1.62109,16.46342 0.54037,4.75907 1.08073,8.83244 1.6211,12.38273 0.54036,3.5503 1.08073,6.57989 1.62109,9.23077 0.54037,2.65089 1.08073,4.92308 1.6211,6.92308 0.54036,2 1.08073,3.72728 1.62109,5.25773 0.54036,1.53045 1.08073,2.86355 1.62109,4.05262 0.54037,1.18906 1.08073,2.23369 1.6211,3.1714 0.54036,0.93772 1.08073,1.76825 1.62109,2.51825 0.54037,0.75 1.08073,1.41928 1.62109,2.02703 0.54037,0.60774 1.08073,1.15382 1.6211,1.65222 0.54036,0.49839 1.08073,0.94903 1.62109,1.36224 0.54037,0.41322 1.08073,0.78896 1.6211,1.13498 0.54036,0.34602 1.08073,0.66228 1.62109,0.95468 0.54036,0.29239 1.08073,0.56089 1.62109,0.81003 0.54037,0.24913 1.08073,0.47888 1.6211,0.69277 0.54036,0.21389 1.08073,0.41191 1.62109,0.59682 0.54037,0.18491 1.08073,0.35671 1.62109,0.51759 0.54037,0.16088 1.08073,0.31084 1.6211,0.45164 0.54036,0.1408 1.08073,0.27244 1.62109,0.39633 0.54037,0.1239 1.08073,0.24005 1.6211,0.34962 0.54036,0.10957 1.08073,0.21255 1.62109,0.3099 0.54036,0.0974 1.08073,0.18907 1.62109,0.27594 0.54037,0.0869 1.08073,0.1689 1.6211,0.24673 0.54036,0.0778 1.08073,0.15148 1.62109,0.22148 0.54037,0.07 1.08073,0.13636 1.62109,0.19953 0.54037,0.0632 1.08073,0.12318 1.6211,0.18038 0.54036,0.0572 1.08073,0.11163 1.62109,0.16359 0.54037,0.052 1.08073,0.10147 1.6211,0.14881 0.54036,0.0473 1.08073,0.0925 1.62109,0.13574 0.54036,0.0432 1.08073,0.0846 1.62109,0.12417 0.54037,0.0396 1.08073,0.0775 1.6211,0.11386 0.54036,0.0364 1.08073,0.0712 1.62109,0.10465 0.54037,0.0335 1.08073,0.0656 1.62109,0.0964 0.54037,0.0309 1.08073,0.0605 1.6211,0.089 0.54036,0.0285 1.08073,0.0559 1.62109,0.0824 0.54037,0.0264 1.08073,0.0518 1.6211,0.0763 0.54036,0.0245 1.08073,0.0481 1.62109,0.0709 0.54036,0.0228 1.08073,0.0447 1.62109,0.066 0.54037,0.0212 1.08073,0.0417 1.6211,0.0615 0.54036,0.0198 1.08073,0.0389 1.62109,0.0573 0.54037,0.0185 1.08073,0.0363 1.62109,0.0536 0.54037,0.0173 1.08073,0.034 1.6211,0.0502 0.54036,0.0162 1.08073,0.0319 1.62109,0.0471 0.54037,0.0152 1.08073,0.0299 1.6211,0.0442 0.54036,0.0143 1.08073,0.0281 1.62109,0.0415 0.54036,0.0134 1.08073,0.0264 1.62109,0.0391 0.54037,0.0126 1.08073,0.0249 1.6211,0.0368 0.54036,0.0119 1.08073,0.0235 1.62109,0.0347 0.54037,0.0112 1.08073,0.0222 1.62109,0.0328 0.54037,0.0106 1.08073,0.021 1.6211,0.031 0.54036,0.01 1.08073,0.0198 1.62109,0.0293 0.54037,0.01 1.08073,0.0188 1.6211,0.0278 0.54036,0.009 1.08073,0.0178 1.62109,0.0263 0.54036,0.009 1.08073,0.0169 1.62109,0.025 0.54037,0.008 1.08073,0.016 1.6211,0.0238 0.54036,0.008 1.08073,0.0152 1.62109,0.0226 0.54037,0.007 1.08073,0.0145 1.62109,0.0215 0.54037,0.007 1.08073,0.0138 1.6211,0.0205 0.54036,0.007 1.08073,0.0131 1.62109,0.0195 0.54037,0.006 1.08073,0.0126 1.6211,0.0186"
       style="color:#000000;clip-rule:nonzero;display:inline;overflow:visible;visibility:visible;opacity:1;isolation:auto;mix-blend-mode:normal;color-interpolation:sRGB;color-interpolation-filters:linearRGB;solid-color:#000000;solid-opacity:1;fill:none;fill-opacity:1;fill-rule:evenodd;stroke:#3ed925;stroke-width:2;stroke-linecap:butt;stroke-linejoin:miter;stroke-miterlimit:4;stroke-dasharray:none;stroke-dashoffset:0;stroke-opacity:1;color-rendering:auto;image-rendering:auto;shape-rendering:auto;text-rendering:auto;enable-background:accumulate"
       inkscape:connector-curvature="0" />
    <path
       style="fill:none;stroke:#ffffff;stroke-width:3.061;stroke-linecap:butt;stroke-linejoin:miter;stroke-miterlimit:4;stroke-dasharray:none;stroke-opacity:1;marker-end:url(#Arrow1MendQ)"
       d="m 49.260978,889.79637 413.974172,0"
       id="path3813"
       inkscape:connector-curvature="0"
       sodipodi:nodetypes="cc" />
    <g
       transform="matrix(0.83462534,0,0,0.70150124,366.94295,755.92543)"
       id="g4182"
       style="fill:#ffffff;fill-opacity:1">
      <g
         style="font-style:normal;font-variant:normal;font-weight:normal;font-stretch:normal;letter-spacing:normal;word-spacing:normal;text-anchor:start;fill:#ffffff;fill-opacity:1;fill-rule:evenodd;stroke:#000000;stroke-linecap:butt;stroke-linejoin:miter;stroke-miterlimit:10.43299961;stroke-dasharray:none;stroke-dashoffset:0;stroke-opacity:1"
         id="content"
         transform="matrix(0.45714286,0,0,-0.45714286,-80,384)"
         xml:space="preserve"
         stroke-miterlimit="10.433"
         font-style="normal"
         font-variant="normal"
         font-weight="normal"
         font-stretch="normal"
         font-size-adjust="none"
         letter-spacing="normal"
         word-spacing="normal"><path
           style="fill:#ffffff;stroke-width:0;fill-opacity:1"
           inkscape:connector-curvature="0"
           d="m 486.14,424.53 -0.01,0.21 0,0.2 -0.02,0.2 -0.01,0.18 -0.03,0.19 -0.02,0.18 -0.03,0.17 -0.04,0.16 -0.04,0.16 -0.04,0.15 -0.05,0.15 -0.05,0.14 -0.06,0.13 -0.06,0.13 -0.06,0.12 -0.07,0.11 -0.07,0.11 -0.07,0.1 -0.07,0.1 -0.08,0.08 -0.08,0.09 -0.09,0.07 -0.08,0.07 -0.09,0.06 -0.09,0.05 -0.09,0.05 -0.1,0.04 -0.09,0.03 -0.1,0.02 -0.1,0.02 -0.1,0.01 -0.11,0.01 c -1.29,0 -2.64,-1.2 -2.64,-2.34 0,-0.5 0.25,-1.05 0.75,-1.5 0.85,-0.75 1.75,-2.09 1.75,-4.18 0,-2 -0.95,-4.84 -2.5,-7.12 -1.49,-2.15 -3.33,-3.84 -5.68,-3.84 -2.84,0 -4.38,1.79 -4.83,4.48 0.55,1.3 1.7,4.48 1.7,5.88 0,0.6 -0.25,1.1 -0.9,1.1 -0.4,0 -0.95,-0.11 -1.34,-0.85 -0.55,-1 -1.15,-4.24 -1.15,-6.03 -1.64,-2.34 -3.64,-4.58 -6.77,-4.58 -3.29,0 -4.34,2.94 -4.34,5.73 0,6.22 5.08,11.45 5.08,12.1 0,0.55 -0.39,0.95 -0.94,0.95 -0.65,0 -1,-0.65 -1.3,-1.1 -2.54,-3.68 -4.43,-9.61 -4.43,-14.15 0,-3.43 1.14,-7.12 5.23,-7.12 3.53,0 5.88,2.49 7.67,5.23 0.45,-2.89 2.39,-5.23 5.48,-5.23 3.88,0 6.27,3.04 8.07,6.78 1.19,2.44 3.09,9.21 3.09,12.3 z"
           id="path4185" /></g>    </g>
    <g
       transform="translate(222.28959,716.47213)"
       id="g4237"
       style="fill:#3ed925;fill-opacity:1">
      <g
         style="font-style:normal;font-variant:normal;font-weight:normal;font-stretch:normal;letter-spacing:normal;word-spacing:normal;text-anchor:start;fill:#3ed925;fill-opacity:1;fill-rule:evenodd;stroke:#000000;stroke-linecap:butt;stroke-linejoin:miter;stroke-miterlimit:10.43299961;stroke-dasharray:none;stroke-dashoffset:0;stroke-opacity:1"
         id="g4239"
         transform="matrix(0.45714286,0,0,-0.45714286,-80,384)"
         xml:space="preserve"
         stroke-miterlimit="10.433"
         font-style="normal"
         font-variant="normal"
         font-weight="normal"
         font-stretch="normal"
         font-size-adjust="none"
         letter-spacing="normal"
         word-spacing="normal"><path
           style="fill:#3ed925;fill-opacity:1;stroke-width:0"
           inkscape:connector-curvature="0"
           d="m 489.72,414.07 -1.24,0 c -0.25,-1.3 -0.45,-2.44 -0.9,-3.64 -0.25,-0.79 -0.4,-1.19 -3.29,-1.19 l -3.98,0 c 0.65,2.79 2.19,5.18 4.43,8.47 2.34,3.53 4.38,6.97 4.38,10.9 0,6.93 -6.72,12.51 -15.14,12.51 -8.57,0 -15.19,-5.68 -15.19,-12.51 0,-3.93 2.04,-7.37 4.38,-10.9 2.19,-3.29 3.79,-5.68 4.44,-8.47 l -3.99,0 c -2.89,0 -3.04,0.4 -3.29,1.14 -0.4,1.15 -0.64,2.44 -0.89,3.69 l -1.25,0 1.65,-8.07 7.96,0 c 1.1,0 1.25,0 1.25,1.05 0,3.48 -1.54,7.87 -2.69,11.06 -1.04,2.88 -2.44,6.82 -2.44,10.55 0,7.98 5.48,11.36 10.01,11.36 4.78,0 10.07,-3.58 10.07,-11.36 0,-3.73 -1.35,-7.52 -2.79,-11.6 -0.75,-2.1 -2.35,-6.58 -2.35,-10.01 0,-1.05 0.16,-1.05 1.3,-1.05 l 7.92,0 z"
           id="path4241" /></g>    </g>
    <path
       style="fill:none;fill-rule:evenodd;stroke:#ffffff;stroke-width:1px;stroke-linecap:butt;stroke-linejoin:miter;stroke-opacity:1"
       d="m 359,884.48611 0,10.87607"
       id="path4337"
       inkscape:connector-curvature="0"
       sodipodi:nodetypes="cc" />
    <path
       style="fill:none;fill-rule:evenodd;stroke:#ffffff;stroke-width:1px;stroke-linecap:butt;stroke-linejoin:miter;stroke-opacity:1;marker-start:url(#marker4606);marker-end:url(#marker4609)"
       d="m 348,864.36218 24,0"
       id="path4344"
       inkscape:connector-curvature="0"
       sodipodi:nodetypes="cc" />
    <g
       transform="translate(223.66628,657.52332)"
       id="g4650"
       style="fill:#ffffff;fill-opacity:1">
      <g
         style="font-style:normal;font-variant:normal;font-weight:normal;font-stretch:normal;letter-spacing:normal;word-spacing:normal;text-anchor:start;fill:#ffffff;fill-opacity:1;fill-rule:evenodd;stroke:#000000;stroke-linecap:butt;stroke-linejoin:miter;stroke-miterlimit:10.43299961;stroke-dasharray:none;stroke-dashoffset:0;stroke-opacity:1"
         id="g4652"
         transform="matrix(0.45714286,0,0,-0.45714286,-80,384)"
         xml:space="preserve"
         stroke-miterlimit="10.433"
         font-style="normal"
         font-variant="normal"
         font-weight="normal"
         font-stretch="normal"
         font-size-adjust="none"
         letter-spacing="normal"
         word-spacing="normal"><path
           style="fill:#ffffff;stroke-width:0;fill-opacity:1"
           inkscape:connector-curvature="0"
           d="m 458.04,418.65 0.1,0.27 0.09,0.25 0.11,0.25 0.11,0.24 0.11,0.23 0.11,0.23 0.12,0.22 0.13,0.21 0.13,0.2 0.13,0.19 0.13,0.19 0.14,0.18 0.28,0.35 0.29,0.31 0.3,0.29 0.31,0.27 0.31,0.25 0.32,0.22 0.31,0.2 0.32,0.18 0.32,0.17 0.31,0.14 0.32,0.13 0.3,0.11 0.3,0.1 0.29,0.08 0.28,0.07 0.26,0.06 0.26,0.05 0.24,0.04 0.22,0.03 0.2,0.03 0.19,0.02 0.16,0.01 0.15,0 0.11,0.01 0.1,0 0.06,0 c 7.52,0 8.07,-8.72 8.07,-12.65 0,-3.04 -0.24,-3.89 -0.6,-4.88 -1.09,-3.64 -2.59,-9.42 -2.59,-10.71 0,-0.55 0.25,-0.9 0.65,-0.9 0.65,0 1.05,1.1 1.6,2.99 1.14,4.18 1.64,7.02 1.84,8.57 0.1,0.65 0.2,1.29 0.4,1.94 1.59,4.93 4.78,12.35 6.77,16.29 0.35,0.6 0.95,1.69 0.95,1.89 0,0.5 -0.5,0.5 -0.6,0.5 -0.15,0 -0.45,0 -0.6,-0.35 -2.59,-4.73 -4.58,-9.71 -6.57,-14.74 -0.05,1.54 -0.1,5.33 -2.05,10.16 -1.19,3.04 -3.18,5.48 -6.62,5.48 -6.23,0 -9.71,-7.57 -9.71,-9.12 0,-0.5 0.44,-0.5 0.94,-0.5 z"
           id="path4654" /></g>    </g>
    <path
       style="fill:none;fill-rule:evenodd;stroke:#256dd9;stroke-width:2;stroke-linecap:butt;stroke-linejoin:miter;stroke-opacity:1;stroke-miterlimit:4;stroke-dasharray:none"
       d="m 459.3953,738.36218 -408.566663,0"
       id="path4269"
       inkscape:connector-curvature="0"
       sodipodi:nodetypes="cc" />
  </g>
</svg>
