<?xml version="1.0" encoding="UTF-8" standalone="no"?>
<!-- Created with Inkscape (http://www.inkscape.org/) -->

<svg
   xmlns:dc="http://purl.org/dc/elements/1.1/"
   xmlns:cc="http://creativecommons.org/ns#"
   xmlns:rdf="http://www.w3.org/1999/02/22-rdf-syntax-ns#"
   xmlns:svg="http://www.w3.org/2000/svg"
   xmlns="http://www.w3.org/2000/svg"
   xmlns:sodipodi="http://sodipodi.sourceforge.net/DTD/sodipodi-0.dtd"
   xmlns:inkscape="http://www.inkscape.org/namespaces/inkscape"
   version="1.1"
   id="svg834"
   xml:space="preserve"
   width="132.49466"
   height="164.43466"
   viewBox="0 0 132.49466 164.43466"
   sodipodi:docname="iq-logo.svg"
   inkscape:version="0.92.4 (5da689c313, 2019-01-14)"><metadata
     id="metadata840"><rdf:RDF><cc:Work
         rdf:about=""><dc:format>image/svg+xml</dc:format><dc:type
           rdf:resource="http://purl.org/dc/dcmitype/StillImage" /><dc:title></dc:title></cc:Work></rdf:RDF></metadata><defs
     id="defs838"><clipPath
       clipPathUnits="userSpaceOnUse"
       id="clipPath850"><path
         d="M 105.369,114.215 V 91.161 c 0,-12.723 3.914,-16.42 11.962,-16.42 v 0 c 8.045,0 11.958,3.697 11.958,16.42 v 0 23.054 c 0,12.722 -3.913,16.419 -11.958,16.419 v 0 c -8.048,0 -11.962,-3.697 -11.962,-16.419"
         id="path848"
         inkscape:connector-curvature="0" /></clipPath><linearGradient
       x1="0"
       y1="0"
       x2="1"
       y2="0"
       gradientUnits="userSpaceOnUse"
       gradientTransform="matrix(78.146431,-100.76791,-100.76791,-78.146431,72.211845,160.86536)"
       spreadMethod="pad"
       id="linearGradient862"><stop
         style="stop-opacity:1;stop-color:#00a658"
         offset="0"
         id="stop856" /><stop
         style="stop-opacity:1;stop-color:#00a658"
         offset="0.26939038"
         id="stop858" /><stop
         style="stop-opacity:1;stop-color:#00abbf"
         offset="1"
         id="stop860" /></linearGradient><clipPath
       clipPathUnits="userSpaceOnUse"
       id="clipPath872"><path
         d="m 67.964,142.488 c -1.026,0 -1.864,-0.841 -1.864,-1.867 v 0 -9.855 c 0,-1.03 0.838,-1.869 1.864,-1.869 v 0 H 76.69 V 64.754 c 0,-1.027 0.838,-1.867 1.862,-1.867 v 0 h 32.492 C 98.075,65.212 91.012,74.986 91.012,89.531 v 0 26.314 c 0,14.542 7.063,24.319 20.032,26.643 v 0 z"
         id="path870"
         inkscape:connector-curvature="0" /></clipPath><linearGradient
       x1="0"
       y1="0"
       x2="1"
       y2="0"
       gradientUnits="userSpaceOnUse"
       gradientTransform="matrix(78.146324,-100.76778,-100.76778,-78.146324,57.859135,149.73354)"
       spreadMethod="pad"
       id="linearGradient884"><stop
         style="stop-opacity:1;stop-color:#00a658"
         offset="0"
         id="stop878" /><stop
         style="stop-opacity:1;stop-color:#00a658"
         offset="0.26939038"
         id="stop880" /><stop
         style="stop-opacity:1;stop-color:#00abbf"
         offset="1"
         id="stop882" /></linearGradient><clipPath
       clipPathUnits="userSpaceOnUse"
       id="clipPath894"><path
         d="m 123.617,142.488 c 12.968,-2.324 20.03,-12.101 20.03,-26.643 v 0 -26.314 c 0,-14.545 -7.065,-24.319 -20.03,-26.644 v 0 h 32.489 c 1.024,0 1.865,0.84 1.865,1.867 v 0 75.867 c 0,1.026 -0.841,1.867 -1.865,1.867 v 0 z"
         id="path892"
         inkscape:connector-curvature="0" /></clipPath><linearGradient
       x1="0"
       y1="0"
       x2="1"
       y2="0"
       gradientUnits="userSpaceOnUse"
       gradientTransform="matrix(78.14669,-100.76825,-100.76825,-78.14669,86.566391,171.9973)"
       spreadMethod="pad"
       id="linearGradient906"><stop
         style="stop-opacity:1;stop-color:#00a658"
         offset="0"
         id="stop900" /><stop
         style="stop-opacity:1;stop-color:#00a658"
         offset="0.26939038"
         id="stop902" /><stop
         style="stop-opacity:1;stop-color:#00abbf"
         offset="1"
         id="stop904" /></linearGradient><clipPath
       clipPathUnits="userSpaceOnUse"
       id="clipPath916"><path
         d="m 78.552,165.913 c -1.024,0 -1.862,-0.84 -1.862,-1.865 v 0 -9.858 c 0,-1.024 0.838,-1.864 1.862,-1.864 v 0 h 9.496 c 1.025,0 1.865,0.84 1.865,1.864 v 0 9.858 c 0,1.025 -0.84,1.865 -1.865,1.865 v 0 z"
         id="path914"
         inkscape:connector-curvature="0" /></clipPath><linearGradient
       x1="0"
       y1="0"
       x2="1"
       y2="0"
       gradientUnits="userSpaceOnUse"
       gradientTransform="matrix(78.14698,-100.76862,-100.76862,-78.14698,78.291588,165.57867)"
       spreadMethod="pad"
       id="linearGradient928"><stop
         style="stop-opacity:1;stop-color:#00a658"
         offset="0"
         id="stop922" /><stop
         style="stop-opacity:1;stop-color:#00a658"
         offset="0.26939038"
         id="stop924" /><stop
         style="stop-opacity:1;stop-color:#00abbf"
         offset="1"
         id="stop926" /></linearGradient><clipPath
       clipPathUnits="userSpaceOnUse"
       id="clipPath938"><path
         d="M 110.716,62.887 V 51.952 c 0,-1.025 0.84,-1.865 1.868,-1.865 v 0 h 9.494 c 1.025,0 1.864,0.84 1.864,1.865 v 0 10.935 z"
         id="path936"
         inkscape:connector-curvature="0" /></clipPath><linearGradient
       x1="0"
       y1="0"
       x2="1"
       y2="0"
       gradientUnits="userSpaceOnUse"
       gradientTransform="matrix(78.14399,-100.76477,-100.76477,-78.14399,50.138824,143.74271)"
       spreadMethod="pad"
       id="linearGradient950"><stop
         style="stop-opacity:1;stop-color:#00a658"
         offset="0"
         id="stop944" /><stop
         style="stop-opacity:1;stop-color:#00a658"
         offset="0.26939038"
         id="stop946" /><stop
         style="stop-opacity:1;stop-color:#00abbf"
         offset="1"
         id="stop948" /></linearGradient><clipPath
       clipPathUnits="userSpaceOnUse"
       id="clipPath960"><path
         d="M 0,216 H 576 V 0 H 0 Z"
         id="path958"
         inkscape:connector-curvature="0" /></clipPath></defs><sodipodi:namedview
     pagecolor="#ffffff"
     bordercolor="#666666"
     borderopacity="1"
     objecttolerance="10"
     gridtolerance="10"
     guidetolerance="10"
     inkscape:pageopacity="0"
     inkscape:pageshadow="2"
     inkscape:window-width="1438"
     inkscape:window-height="776"
     id="namedview836"
     showgrid="false"
     inkscape:zoom="1.2760417"
     inkscape:cx="300.86667"
     inkscape:cy="82.217335"
     inkscape:window-x="0"
     inkscape:window-y="0"
     inkscape:window-maximized="0"
     inkscape:current-layer="g842"
     fit-margin-top="5"
     fit-margin-left="5"
     fit-margin-right="5"
     fit-margin-bottom="5" /><g
     id="g842"
     inkscape:groupmode="layer"
     inkscape:label="institut-quantique-gauche-degrade"
     transform="matrix(1.3333333,0,0,-1.3333333,-83.133331,226.21733)"><g
       id="g844"><g
         id="g846"
         clip-path="url(#clipPath850)"><g
           id="g852"><g
             id="g854"><path
               d="M 105.369,114.215 V 91.161 c 0,-12.723 3.914,-16.42 11.962,-16.42 v 0 c 8.045,0 11.958,3.697 11.958,16.42 v 0 23.054 c 0,12.722 -3.913,16.419 -11.958,16.419 v 0 c -8.048,0 -11.962,-3.697 -11.962,-16.419"
               style="fill:url(#linearGradient862);stroke:none"
               id="path864"
               inkscape:connector-curvature="0" /></g></g></g></g><g
       id="g866"><g
         id="g868"
         clip-path="url(#clipPath872)"><g
           id="g874"><g
             id="g876"><path
               d="m 67.964,142.488 c -1.026,0 -1.864,-0.841 -1.864,-1.867 v 0 -9.855 c 0,-1.03 0.838,-1.869 1.864,-1.869 v 0 H 76.69 V 64.754 c 0,-1.027 0.838,-1.867 1.862,-1.867 v 0 h 32.492 C 98.075,65.212 91.012,74.986 91.012,89.531 v 0 26.314 c 0,14.542 7.063,24.319 20.032,26.643 v 0 z"
               style="fill:url(#linearGradient884);stroke:none"
               id="path886"
               inkscape:connector-curvature="0" /></g></g></g></g><g
       id="g888"><g
         id="g890"
         clip-path="url(#clipPath894)"><g
           id="g896"><g
             id="g898"><path
               d="m 123.617,142.488 c 12.968,-2.324 20.03,-12.101 20.03,-26.643 v 0 -26.314 c 0,-14.545 -7.065,-24.319 -20.03,-26.644 v 0 h 32.489 c 1.024,0 1.865,0.84 1.865,1.867 v 0 75.867 c 0,1.026 -0.841,1.867 -1.865,1.867 v 0 z"
               style="fill:url(#linearGradient906);stroke:none"
               id="path908"
               inkscape:connector-curvature="0" /></g></g></g></g><g
       id="g910"><g
         id="g912"
         clip-path="url(#clipPath916)"><g
           id="g918"><g
             id="g920"><path
               d="m 78.552,165.913 c -1.024,0 -1.862,-0.84 -1.862,-1.865 v 0 -9.858 c 0,-1.024 0.838,-1.864 1.862,-1.864 v 0 h 9.496 c 1.025,0 1.865,0.84 1.865,1.864 v 0 9.858 c 0,1.025 -0.84,1.865 -1.865,1.865 v 0 z"
               style="fill:url(#linearGradient928);stroke:none"
               id="path930"
               inkscape:connector-curvature="0" /></g></g></g></g><g
       id="g932"><g
         id="g934"
         clip-path="url(#clipPath938)"><g
           id="g940"><g
             id="g942"><path
               d="M 110.716,62.887 V 51.952 c 0,-1.025 0.84,-1.865 1.868,-1.865 v 0 h 9.494 c 1.025,0 1.864,0.84 1.864,1.865 v 0 10.935 z"
               style="fill:url(#linearGradient950);stroke:none"
               id="path952"
               inkscape:connector-curvature="0" /></g></g></g></g></g></svg>