<?xml version="1.0" encoding="UTF-8" standalone="no"?>
<!-- Created with Inkscape (http://www.inkscape.org/) -->

<svg
   xmlns:dc="http://purl.org/dc/elements/1.1/"
   xmlns:cc="http://creativecommons.org/ns#"
   xmlns:rdf="http://www.w3.org/1999/02/22-rdf-syntax-ns#"
   xmlns:svg="http://www.w3.org/2000/svg"
   xmlns="http://www.w3.org/2000/svg"
   xmlns:sodipodi="http://sodipodi.sourceforge.net/DTD/sodipodi-0.dtd"
   xmlns:inkscape="http://www.inkscape.org/namespaces/inkscape"
   sodipodi:docname="marginal-conditional-dist.svg"
   viewBox="0 0 1024 512"
   inkscape:version="0.92.4 (5da689c313, 2019-01-14)"
   version="1.1"
   id="svg4152"
   height="512"
   width="1024">
  <sodipodi:namedview
     inkscape:snap-global="true"
     inkscape:snap-intersection-paths="true"
     inkscape:object-paths="true"
     inkscape:object-nodes="true"
     inkscape:window-maximized="0"
     inkscape:window-y="0"
     inkscape:window-x="1"
     inkscape:window-height="782"
     inkscape:window-width="1440"
     showgrid="false"
     inkscape:current-layer="layer1"
     inkscape:document-units="px"
     inkscape:cy="328.03739"
     inkscape:cx="651.6288"
     inkscape:zoom="0.84852814"
     inkscape:pageshadow="2"
     inkscape:pageopacity="0"
     borderopacity="1.0"
     bordercolor="#666666"
     pagecolor="#5b5b5b"
     id="base">
    <inkscape:grid
       type="xygrid"
       id="grid4700"
       empspacing="4" />
  </sodipodi:namedview>
  <defs
     id="defs4154">
    <marker
       inkscape:isstock="true"
       style="overflow:visible"
       id="marker7462"
       refX="0"
       refY="0"
       orient="auto"
       inkscape:stockid="Arrow1Lend">
      <path
         inkscape:connector-curvature="0"
         transform="matrix(-0.8,0,0,-0.8,-10,0)"
         style="fill:#ffffff;fill-opacity:1;fill-rule:evenodd;stroke:#ffffff;stroke-width:1pt;stroke-opacity:1"
         d="M 0,0 5,-5 -12.5,0 5,5 0,0 Z"
         id="path7464" />
    </marker>
    <marker
       inkscape:isstock="true"
       style="overflow:visible"
       id="marker4620"
       refX="0"
       refY="0"
       orient="auto"
       inkscape:stockid="Arrow1Mend">
      <path
         transform="matrix(-0.4,0,0,-0.4,-4,0)"
         style="fill:#4daf4a;fill-opacity:1;fill-rule:evenodd;stroke:#4daf4a;stroke-width:1pt;stroke-opacity:1"
         d="M 0,0 5,-5 -12.5,0 5,5 0,0 Z"
         id="path4622"
         inkscape:connector-curvature="0" />
    </marker>
    <marker
       inkscape:stockid="Arrow1Mend"
       orient="auto"
       refY="0"
       refX="0"
       id="marker5421"
       style="overflow:visible"
       inkscape:isstock="true">
      <path
         id="path5423"
         d="M 0,0 5,-5 -12.5,0 5,5 0,0 Z"
         style="fill:#4daf4a;fill-opacity:1;fill-rule:evenodd;stroke:#4daf4a;stroke-width:1pt;stroke-opacity:1"
         transform="matrix(-0.4,0,0,-0.4,-4,0)"
         inkscape:connector-curvature="0" />
    </marker>
    <marker
       inkscape:stockid="Arrow1Lend"
       orient="auto"
       refY="0"
       refX="0"
       id="Arrow1Lend"
       style="overflow:visible"
       inkscape:isstock="true"
       inkscape:collect="always">
      <path
         id="path4763"
         d="M 0,0 5,-5 -12.5,0 5,5 0,0 Z"
         style="fill:#ffffff;fill-opacity:1;fill-rule:evenodd;stroke:#ffffff;stroke-width:1pt;stroke-opacity:1"
         transform="matrix(-0.8,0,0,-0.8,-10,0)"
         inkscape:connector-curvature="0" />
    </marker>
    <marker
       inkscape:isstock="true"
       style="overflow:visible"
       id="marker7462-3"
       refX="0"
       refY="0"
       orient="auto"
       inkscape:stockid="Arrow1Lend">
      <path
         inkscape:connector-curvature="0"
         transform="matrix(-0.8,0,0,-0.8,-10,0)"
         style="fill:#ffffff;fill-opacity:1;fill-rule:evenodd;stroke:#ffffff;stroke-width:1pt;stroke-opacity:1"
         d="M 0,0 5,-5 -12.5,0 5,5 0,0 Z"
         id="path7464-6" />
    </marker>
    <marker
       inkscape:stockid="Arrow1Lend"
       orient="auto"
       refY="0"
       refX="0"
       id="Arrow1Lend-5"
       style="overflow:visible"
       inkscape:isstock="true"
       inkscape:collect="always">
      <path
         id="path4763-3"
         d="M 0,0 5,-5 -12.5,0 5,5 0,0 Z"
         style="fill:#ffffff;fill-opacity:1;fill-rule:evenodd;stroke:#ffffff;stroke-width:1pt;stroke-opacity:1"
         transform="matrix(-0.8,0,0,-0.8,-10,0)"
         inkscape:connector-curvature="0" />
    </marker>
  </defs>
  <metadata
     id="metadata4157">
    <rdf:RDF>
      <cc:Work
         rdf:about="">
        <dc:format>image/svg+xml</dc:format>
        <dc:type
           rdf:resource="http://purl.org/dc/dcmitype/StillImage" />
        <dc:title />
      </cc:Work>
    </rdf:RDF>
  </metadata>
  <g
     id="layer1"
     inkscape:label="Layer 1"
     inkscape:groupmode="layer"
     transform="translate(0,-568)">
    <path
       style="color:#000000;clip-rule:nonzero;display:inline;overflow:visible;visibility:visible;opacity:1;isolation:auto;mix-blend-mode:normal;color-interpolation:sRGB;color-interpolation-filters:linearRGB;solid-color:#000000;solid-opacity:1;fill:#984ea3;fill-opacity:0.49803922;fill-rule:evenodd;stroke:none;stroke-width:2;stroke-linecap:round;stroke-linejoin:miter;stroke-miterlimit:4;stroke-dasharray:none;stroke-dashoffset:0;stroke-opacity:1;color-rendering:auto;image-rendering:auto;shape-rendering:auto;text-rendering:auto;enable-background:accumulate"
       d="M 64 177.48828 L 220.17969 448 L 447.80664 448 C 447.91421 448 448 447.91421 448 447.80664 L 448 330.52539 L 284.79102 48 L 64.193359 48 C 64.085788 48 64 48.085788 64 48.193359 L 64 177.48828 z "
       id="rect9234"
       transform="translate(0,568)" />
    <ellipse
       style="color:#000000;clip-rule:nonzero;display:inline;overflow:visible;visibility:visible;opacity:1;isolation:auto;mix-blend-mode:normal;color-interpolation:sRGB;color-interpolation-filters:linearRGB;solid-color:#000000;solid-opacity:1;fill:#ffffff;fill-opacity:0.24705882;fill-rule:evenodd;stroke:none;stroke-width:3;stroke-linecap:round;stroke-linejoin:miter;stroke-miterlimit:4;stroke-dasharray:none;stroke-dashoffset:0;stroke-opacity:1;color-rendering:auto;image-rendering:auto;shape-rendering:auto;text-rendering:auto;enable-background:accumulate"
       id="path7860"
       cx="594.38171"
       cy="625.94128"
       rx="37.869499"
       ry="151.478"
       transform="matrix(0.89735118,0.44131719,-0.44131719,0.89735118,0,0)" />
    <path
       style="fill:#ffffff;fill-rule:evenodd;stroke:#ffffff;stroke-width:2;stroke-linecap:butt;stroke-linejoin:miter;stroke-miterlimit:4;stroke-dasharray:none;stroke-dashoffset:0;stroke-opacity:1;marker-end:url(#Arrow1Lend);fill-opacity:1"
       d="m 256,1048 0,-448"
       id="path4723"
       inkscape:connector-curvature="0"
       sodipodi:nodetypes="cc" />
    <path
       style="fill:#ffffff;fill-rule:evenodd;stroke:#ffffff;stroke-width:2;stroke-linecap:butt;stroke-linejoin:miter;stroke-miterlimit:4;stroke-dasharray:none;stroke-opacity:1;marker-end:url(#marker7462);fill-opacity:1"
       d="m 32,824 448,0"
       id="path4725"
       inkscape:connector-curvature="0"
       sodipodi:nodetypes="cc" />
    <path
       style="fill:#cacaca;fill-rule:evenodd;stroke:#ffffff;stroke-width:2;stroke-linecap:butt;stroke-linejoin:miter;stroke-miterlimit:4;stroke-dasharray:11.99999982, 11.99999981999999932;stroke-dashoffset:0;stroke-opacity:1;fill-opacity:1"
       d="M 64.357806,746.10791 219.40761,1014.6621"
       id="path5281"
       inkscape:connector-curvature="0" />
    <path
       style="fill:#cacaca;fill-rule:evenodd;stroke:#ffffff;stroke-width:2;stroke-linecap:butt;stroke-linejoin:miter;stroke-miterlimit:4;stroke-dasharray:12.00000001, 12.00000001000000083;stroke-dashoffset:0;stroke-opacity:1;fill-opacity:1"
       d="M 293.30864,630.6624 448.35898,899.21743"
       id="path5301"
       inkscape:connector-curvature="0" />
    <path
       style="fill:#cacaca;fill-rule:evenodd;stroke:#ffffff;stroke-width:1.99999988;stroke-linecap:butt;stroke-linejoin:miter;stroke-miterlimit:4;stroke-dasharray:11.99999963, 11.99999962999999958;stroke-dashoffset:0;stroke-opacity:1;fill-opacity:1"
       d="M 145.50739,630.66312 367.21007,1014.6634"
       id="path5291"
       inkscape:connector-curvature="0" />
    <g
       id="g5794"
       transform="translate(256.66667,725)"
       style="stroke:#ffffff;stroke-opacity:1;fill:#ffffff;fill-opacity:1">
      <g
         word-spacing="normal"
         letter-spacing="normal"
         font-size-adjust="none"
         font-stretch="normal"
         font-weight="normal"
         font-variant="normal"
         font-style="normal"
         stroke-miterlimit="10.433"
         xml:space="preserve"
         transform="matrix(0.73142857,0,0,-0.73142857,-128,384)"
         id="g5796"
         style="font-style:normal;font-variant:normal;font-weight:normal;font-stretch:normal;letter-spacing:normal;word-spacing:normal;text-anchor:start;fill:#ffffff;fill-opacity:1;fill-rule:evenodd;stroke:#ffffff;stroke-linecap:butt;stroke-linejoin:miter;stroke-miterlimit:10.43299961;stroke-dasharray:none;stroke-dashoffset:0;stroke-opacity:1"><path
           id="path5798"
           d="m 478.66,430.91 0,0.31 -0.01,0.34 -0.01,0.36 -0.02,0.37 -0.03,0.38 -0.04,0.4 -0.05,0.41 -0.06,0.41 -0.06,0.42 -0.08,0.42 -0.09,0.43 -0.1,0.42 -0.11,0.43 -0.13,0.42 -0.13,0.41 -0.16,0.4 -0.17,0.4 -0.18,0.39 -0.2,0.37 -0.22,0.35 -0.23,0.34 -0.25,0.32 -0.27,0.3 -0.29,0.27 -0.31,0.25 -0.17,0.12 -0.16,0.11 -0.18,0.1 -0.17,0.09 -0.19,0.09 -0.19,0.07 -0.19,0.07 -0.2,0.06 -0.21,0.06 -0.21,0.04 -0.21,0.03 -0.23,0.03 -0.23,0.01 -0.23,0.01 -0.05,-1.1 c 2.44,0 2.74,-3.18 2.74,-6.02 0,-2.45 -0.4,-4.99 -1.59,-9.92 l -10.42,0 c 0.85,3.19 1.84,7.17 3.84,10.71 1.34,2.44 3.18,5.23 5.43,5.23 l 0.05,1.1 c -6.93,0 -14.6,-14.05 -14.6,-25.46 0,-4.68 1.45,-10.21 5.98,-10.21 l 0,1.1 c -1.64,0 -2.69,1.44 -2.69,6.07 0,2.1 0.3,4.99 1.59,9.87 l 10.37,0 c -0.55,-2.29 -1.6,-6.53 -3.49,-10.11 -1.74,-3.39 -3.64,-5.83 -5.78,-5.83 l 0,-1.1 c 7.02,0 14.59,14.3 14.59,25.46 z"
           inkscape:connector-curvature="0"
           style="fill:#ffffff;stroke-width:0;stroke:#ffffff;stroke-opacity:1;fill-opacity:1" /><path
           id="path5800"
           d="m 491.68,446.18 0,0.04 0,0.04 0,0.04 0,0.04 0,0.04 0,0.04 0,0.03 0,0.04 -0.01,0.03 0,0.03 0,0.04 0,0.03 -0.01,0.02 0,0.03 0,0.03 -0.01,0.03 0,0.02 0,0.02 -0.02,0.05 -0.01,0.04 -0.01,0.04 -0.02,0.03 -0.02,0.03 -0.02,0.03 -0.03,0.03 -0.02,0.02 -0.03,0.02 -0.04,0.02 -0.03,0.01 -0.04,0.01 -0.05,0.02 -0.05,0 -0.02,0.01 -0.03,0 -0.03,0.01 -0.02,0 -0.03,0 -0.03,0 -0.04,0 -0.03,0.01 -0.03,0 -0.04,0 -0.03,0 -0.04,0 -0.04,0 -0.04,0 -0.04,0 -0.04,0 -0.05,0 -0.04,0 c -2.24,-2.19 -5.41,-2.23 -6.84,-2.23 l 0,-1.25 c 0.84,0 3.14,0 5.06,0.97 l 0,-17.78 c 0,-1.15 0,-1.61 -3.49,-1.61 l -1.33,0 0,-1.25 12.45,0 0,1.25 -1.32,0 c -3.49,0 -3.49,0.46 -3.49,1.61 z"
           inkscape:connector-curvature="0"
           style="fill:#ffffff;stroke-width:0;stroke:#ffffff;stroke-opacity:1;fill-opacity:1" /></g>    </g>
    <g
       id="g5900"
       transform="translate(56.666667,519.16667)"
       style="stroke:#ffffff;stroke-opacity:1;fill:#ffffff;fill-opacity:1">
      <g
         id="g5902"
         transform="matrix(0.73142857,0,0,-0.73142857,-128,384)"
         xml:space="preserve"
         stroke-miterlimit="10.433"
         font-style="normal"
         font-variant="normal"
         font-weight="normal"
         font-stretch="normal"
         font-size-adjust="none"
         letter-spacing="normal"
         word-spacing="normal"
         style="font-style:normal;font-variant:normal;font-weight:normal;font-stretch:normal;letter-spacing:normal;word-spacing:normal;text-anchor:start;fill:#ffffff;fill-opacity:1;fill-rule:evenodd;stroke:#ffffff;stroke-linecap:butt;stroke-linejoin:miter;stroke-miterlimit:10.43299961;stroke-dasharray:none;stroke-dashoffset:0;stroke-opacity:1"><path
           d="m 478.66,430.91 0,0.31 -0.01,0.34 -0.01,0.36 -0.02,0.37 -0.03,0.38 -0.04,0.4 -0.05,0.41 -0.06,0.41 -0.06,0.42 -0.08,0.42 -0.09,0.43 -0.1,0.42 -0.11,0.43 -0.13,0.42 -0.13,0.41 -0.16,0.4 -0.17,0.4 -0.18,0.39 -0.2,0.37 -0.22,0.35 -0.23,0.34 -0.25,0.32 -0.27,0.3 -0.29,0.27 -0.31,0.25 -0.17,0.12 -0.16,0.11 -0.18,0.1 -0.17,0.09 -0.19,0.09 -0.19,0.07 -0.19,0.07 -0.2,0.06 -0.21,0.06 -0.21,0.04 -0.21,0.03 -0.23,0.03 -0.23,0.01 -0.23,0.01 -0.05,-1.1 c 2.44,0 2.74,-3.18 2.74,-6.02 0,-2.45 -0.4,-4.99 -1.59,-9.92 l -10.42,0 c 0.85,3.19 1.84,7.17 3.84,10.71 1.34,2.44 3.18,5.23 5.43,5.23 l 0.05,1.1 c -6.93,0 -14.6,-14.05 -14.6,-25.46 0,-4.68 1.45,-10.21 5.98,-10.21 l 0,1.1 c -1.64,0 -2.69,1.44 -2.69,6.07 0,2.1 0.3,4.99 1.59,9.87 l 10.37,0 c -0.55,-2.29 -1.6,-6.53 -3.49,-10.11 -1.74,-3.39 -3.64,-5.83 -5.78,-5.83 l 0,-1.1 c 7.02,0 14.59,14.3 14.59,25.46 z"
           id="path5904"
           inkscape:connector-curvature="0"
           style="fill:#ffffff;stroke-width:0;stroke:#ffffff;stroke-opacity:1;fill-opacity:1" /><path
           d="m 497.61,430.35 -1.19,0 c -0.1,-0.77 -0.45,-2.83 -0.9,-3.18 -0.28,-0.21 -2.97,-0.21 -3.45,-0.21 l -6.42,0 c 3.66,3.25 4.88,4.22 6.97,5.86 2.58,2.06 4.99,4.22 4.99,7.54 0,4.21 -3.7,6.79 -8.16,6.79 -4.33,0 -7.25,-3.03 -7.25,-6.24 0,-1.78 1.5,-1.95 1.84,-1.95 0.84,0 1.85,0.59 1.85,1.85 0,0.62 -0.24,1.85 -2.05,1.85 1.08,2.47 3.45,3.24 5.09,3.24 3.48,0 5.3,-2.72 5.3,-5.54 0,-3.04 -2.16,-5.45 -3.28,-6.7 l -8.4,-8.3 c -0.35,-0.31 -0.35,-0.38 -0.35,-1.36 l 14.36,0 z"
           id="path5906"
           inkscape:connector-curvature="0"
           style="fill:#ffffff;stroke-width:0;stroke:#ffffff;stroke-opacity:1;fill-opacity:1" /></g>    </g>
    <path
       style="fill:#ffffff;fill-rule:evenodd;stroke:#ffffff;stroke-width:2;stroke-linecap:butt;stroke-linejoin:miter;stroke-miterlimit:4;stroke-dasharray:none;stroke-opacity:1;marker-end:url(#marker7462-3);fill-opacity:1"
       d="m 544,824 448,0"
       id="path4725-7"
       inkscape:connector-curvature="0"
       sodipodi:nodetypes="cc" />
    <path
       style="fill:#ffffff;fill-rule:evenodd;stroke:#ffffff;stroke-width:2;stroke-linecap:butt;stroke-linejoin:miter;stroke-miterlimit:4;stroke-dasharray:none;stroke-dashoffset:0;stroke-opacity:1;marker-end:url(#Arrow1Lend-5);fill-opacity:1"
       d="m 768,1048 0,-448"
       id="path4723-5"
       inkscape:connector-curvature="0"
       sodipodi:nodetypes="cc" />
    <path
       id="path8207"
       title="exp(-x**2)"
       d=" M 576.0 823.999978393 C 576.5 823.999976593 577.0 823.999974575 577.5 823.999972283 C 578.0 823.999969992 578.5 823.999967426 579.0 823.999964515 C 579.5 823.999961605 580.0 823.999958349 580.5 823.999954659 C 581.0 823.999950969 581.5 823.999946845 582.0 823.999942177 C 582.5 823.999937509 583.0 823.999932297 583.5 823.999926404 C 584.0 823.99992051 584.5 823.999913936 585.0 823.99990651 C 585.5 823.999899085 586.0 823.999890809 586.5 823.999881471 C 587.0 823.999872134 587.5 823.999861737 588.0 823.999850019 C 588.5 823.999838302 589.0 823.999825266 589.5 823.999810592 C 590.0 823.999795918 590.5 823.999779606 591.0 823.999761266 C 591.5 823.999742926 592.0 823.999722558 592.5 823.999699682 C 593.0 823.999676806 593.5 823.999651424 594.0 823.999622949 C 594.5 823.999594474 595.0 823.999562907 595.5 823.999527533 C 596.0 823.99949216 596.5 823.999452982 597.0 823.999409128 C 597.5 823.999365274 598.0 823.999316747 598.5 823.99926249 C 599.0 823.999208233 599.5 823.999148249 600.0 823.999081257 C 600.5 823.999014266 601.0 823.99894027 601.5 823.998857722 C 602.0 823.998775175 602.5 823.99868408 603.0 823.998582571 C 603.5 823.998481063 604.0 823.998369145 604.5 823.998244574 C 605.0 823.998120003 605.5 823.997982783 606.0 823.99783022 C 606.5 823.997677658 607.0 823.997509758 607.5 823.997323295 C 608.0 823.997136832 608.5 823.996931812 609.0 823.99670438 C 609.5 823.996476948 610.0 823.996227111 610.5 823.995950275 C 611.0 823.995673438 611.5 823.99536961 612.0 823.995033325 C 612.5 823.994697039 613.0 823.994328307 613.5 823.993920642 C 614.0 823.993512977 614.5 823.993066391 615.0 823.992573205 C 615.5 823.992080019 616.0 823.991540248 616.5 823.990944823 C 617.0 823.990349398 617.5 823.989698335 618.0 823.988980949 C 618.5 823.988263563 619.0 823.987479872 619.5 823.986617317 C 620.0 823.985754761 620.5 823.984813361 621.0 823.983778388 C 621.5 823.982743416 622.0 823.981614894 622.5 823.980375592 C 623.0 823.97913629 623.5 823.977786235 624.0 823.976305318 C 624.5 823.9748244 625.0 823.97321265 625.5 823.971446655 C 626.0 823.96968066 626.5 823.967760455 627.0 823.965658848 C 627.5 823.963557241 628.0 823.96127427 628.5 823.958778433 C 629.0 823.956282596 629.5 823.953573935 630.0 823.950616041 C 630.5 823.947658148 631.0 823.944451069 631.5 823.940952832 C 632.0 823.937454594 632.5 823.93366525 633.0 823.929536531 C 633.5 823.925407812 634.0 823.920939775 634.5 823.916077052 C 635.0 823.911214329 635.5 823.905956983 636.0 823.900241661 C 636.5 823.89452634 637.0 823.888353111 637.5 823.881649674 C 638.0 823.874946238 638.5 823.867712667 639.0 823.85986666 C 639.5 823.852020652 640.0 823.843562287 640.5 823.834398121 C 641.0 823.825233955 641.5 823.815364071 642.0 823.804682654 C 642.5 823.794001237 643.0 823.782508376 643.5 823.77008456 C 644.0 823.757660744 644.5 823.744306069 645.0 823.729885917 C 645.5 823.715465764 646.0 823.699980235 646.5 823.683278104 C 647.0 823.666575973 647.5 823.648657347 648.0 823.629352806 C 648.5 823.610048264 649.0 823.589357921 649.5 823.567092496 C 650.0 823.544827071 650.5 823.520986682 651.0 823.495360456 C 651.5 823.469734229 652.0 823.442322285 652.5 823.412890357 C 653.0 823.383458428 653.5 823.352006638 654.0 823.318275477 C 654.5 823.284544316 655.0 823.248533909 655.5 823.209957621 C 656.0 823.171381333 656.5 823.13023929 657.0 823.086215834 C 657.5 823.042192378 658.0 822.995287635 658.5 822.945155029 C 659.0 822.895022423 659.5 822.841662077 660.0 822.784694638 C 660.5 822.727727199 661.0 822.667152785 661.5 822.602557459 C 662.0 822.537962133 662.5 822.469346007 663.0 822.396258845 C 663.5 822.323171682 664.0 822.245613586 664.5 822.163096434 C 665.0 822.080579282 665.5 821.993103162 666.0 821.900140638 C 666.5 821.807178114 667.0 821.70872926 667.5 821.604226102 C 668.0 821.499722943 668.5 821.389165536 669.0 821.271944397 C 669.5 821.154723258 670.0 821.030838421 670.5 820.899638215 C 671.0 820.768438009 671.5 820.629922444 672.0 820.483397333 C 672.5 820.336872222 673.0 820.182337546 673.5 820.019056667 C 674.0 819.855775788 674.5 819.683748656 675.0 819.5021967 C 675.5 819.320644744 676.0 819.129567878 676.5 818.928146617 C 677.0 818.726725357 677.5 818.514959577 678.0 818.291990454 C 678.5 818.069021331 679.0 817.834848698 679.5 817.588576575 C 680.0 817.342304451 680.5 817.083932624 681.0 816.812530792 C 681.5 816.54112896 682.0 816.256696862 682.5 815.958273415 C 683.0 815.659849967 683.5 815.347434859 684.0 815.020040502 C 684.5 814.692646146 685.0 814.350272177 685.5 813.991909564 C 686.0 813.63354695 686.5 813.259195274 687.0 812.86782992 C 687.5 812.476464566 688.0 812.068085059 688.5 811.64165789 C 689.0 811.215230721 689.5 810.77075536 690.0 810.307196922 C 690.5 809.843638484 691.0 809.360996386 691.5 808.858242727 C 692.0 808.355489067 692.5 807.832623208 693.0 807.28863341 C 693.5 806.744643612 694.0 806.179529185 694.5 805.592304525 C 695.0 805.005079864 695.5 804.395744231 696.0 803.763348884 C 696.5 803.130953537 697.0 802.475497691 697.5 801.796080896 C 698.0 801.1166641 698.5 800.413285532 699.0 799.685105085 C 699.5 798.956924638 700.0 798.203941458 700.5 797.425388383 C 701.0 796.646835308 701.5 795.842711458 702.0 795.012335656 C 702.5 794.181959855 703.0 793.325331203 703.5 792.441867869 C 704.0 791.558404535 704.5 790.648105611 705.0 789.710502154 C 705.5 788.772898698 706.0 787.807989804 706.5 786.815433003 C 707.0 785.822876202 707.5 784.802670603 708.0 783.754613667 C 708.5 782.706556731 709.0 781.630647595 709.5 780.526836811 C 710.0 779.423026027 710.5 778.29131277 711.0 777.131813361 C 711.5 775.972313952 712.0 774.785027617 712.5 773.570248446 C 713.0 772.355469274 713.5 771.113196557 714.0 769.843913275 C 714.5 768.574629992 715.0 767.278335514 715.5 765.955711759 C 716.0 764.633088003 716.5 763.284134432 717.0 761.909740671 C 717.5 760.53534691 718.0 759.135512526 718.5 757.711342142 C 719.0 756.287171758 719.5 754.83866506 720.0 753.367147295 C 720.5 751.89562953 721.0 750.401100513 721.5 748.885109892 C 722.0 747.369119271 722.5 745.831667001 723.0 744.274528893 C 723.5 742.717390786 724.0 741.140566943 724.5 739.546058941 C 725.0 737.951550939 725.5 736.339359037 726.0 734.711707878 C 726.5 733.08405672 727.0 731.440946726 727.5 729.784820525 C 728.0 728.128694323 728.5 726.4595525 729.0 724.780048106 C 729.5 723.100543712 730.0 721.410677503 730.5 719.713302875 C 731.0 718.015928247 731.5 716.311046126 732.0 714.601697652 C 732.5 712.892349177 733.0 711.178535441 733.5 709.463470216 C 734.0 707.748404991 734.5 706.032089529 735.0 704.31789268 C 735.5 702.60369583 736.0 700.891618996 736.5 699.18516619 C 737.0 697.478713384 737.5 695.777886152 738.0 694.086301537 C 738.5 692.394716922 739.0 690.712376599 739.5 689.042986458 C 740.0 687.373596316 740.5 685.717158148 741.0 684.077440655 C 741.5 682.437723163 742.0 680.814728238 742.5 679.212259758 C 743.0 677.609791279 743.5 676.027851216 744.0 674.47024965 C 744.5 672.912648084 745.0 671.379387044 745.5 669.874252794 C 746.0 668.369118543 746.5 666.892113149 747.0 665.44696833 C 747.5 664.00182351 748.0 662.588541343 748.5 661.210767894 C 749.0 659.832994445 749.5 658.490731782 750.0 657.187509198 C 750.5 655.884286613 751.0 654.620106139 751.5 653.398349527 C 752.0 652.176592916 752.5 650.997262138 753.0 649.863561366 C 753.5 648.729860593 754.0 647.641791712 754.5 646.60235237 C 755.0 645.562913029 755.5 644.572105003 756.0 643.63269194 C 756.5 642.693278877 757.0 641.805262421 757.5 640.971146552 C 758.0 640.137030683 758.5 639.356816892 759.0 638.632725978 C 759.5 637.908635064 760.0 637.240668343 760.5 636.630742374 C 761.0 636.020816405 761.5 635.468932313 762.0 634.976684095 C 762.5 634.484435876 763.0 634.05182445 763.5 633.680105907 C 764.0 633.308387364 764.5 632.997562404 765.0 632.748537062 C 765.5 632.499511719 766.0 632.312286466 766.5 632.187408477 C 767.0 632.062530488 767.5 632.0 768.0 632.0 C 768.5 632.0 769.0 632.062530488 769.5 632.187408477 C 770.0 632.312286466 770.5 632.499511719 771.0 632.748537062 C 771.5 632.997562404 772.0 633.308387364 772.5 633.680105907 C 773.0 634.05182445 773.5 634.484435876 774.0 634.976684095 C 774.5 635.468932313 775.0 636.020816405 775.5 636.630742374 C 776.0 637.240668343 776.5 637.908635064 777.0 638.632725978 C 777.5 639.356816892 778.0 640.137030683 778.5 640.971146552 C 779.0 641.805262421 779.5 642.693278877 780.0 643.63269194 C 780.5 644.572105003 781.0 645.562913029 781.5 646.60235237 C 782.0 647.641791712 782.5 648.729860593 783.0 649.863561366 C 783.5 650.997262138 784.0 652.176592916 784.5 653.398349527 C 785.0 654.620106139 785.5 655.884286613 786.0 657.187509198 C 786.5 658.490731782 787.0 659.832994445 787.5 661.210767894 C 788.0 662.588541343 788.5 664.00182351 789.0 665.44696833 C 789.5 666.892113149 790.0 668.369118543 790.5 669.874252794 C 791.0 671.379387044 791.5 672.912648084 792.0 674.47024965 C 792.5 676.027851216 793.0 677.609791279 793.5 679.212259758 C 794.0 680.814728238 794.5 682.437723163 795.0 684.077440655 C 795.5 685.717158148 796.0 687.373596316 796.5 689.042986458 C 797.0 690.712376599 797.5 692.394716922 798.0 694.086301537 C 798.5 695.777886152 799.0 697.478713384 799.5 699.18516619 C 800.0 700.891618996 800.5 702.60369583 801.0 704.31789268 C 801.5 706.032089529 802.0 707.748404991 802.5 709.463470216 C 803.0 711.178535441 803.5 712.892349177 804.0 714.601697652 C 804.5 716.311046126 805.0 718.015928247 805.5 719.713302875 C 806.0 721.410677503 806.5 723.100543712 807.0 724.780048106 C 807.5 726.4595525 808.0 728.128694323 808.5 729.784820525 C 809.0 731.440946726 809.5 733.08405672 810.0 734.711707878 C 810.5 736.339359037 811.0 737.951550939 811.5 739.546058941 C 812.0 741.140566943 812.5 742.717390786 813.0 744.274528893 C 813.5 745.831667001 814.0 747.369119271 814.5 748.885109892 C 815.0 750.401100513 815.5 751.89562953 816.0 753.367147295 C 816.5 754.83866506 817.0 756.287171758 817.5 757.711342142 C 818.0 759.135512526 818.5 760.53534691 819.0 761.909740671 C 819.5 763.284134432 820.0 764.633088003 820.5 765.955711759 C 821.0 767.278335514 821.5 768.574629992 822.0 769.843913275 C 822.5 771.113196557 823.0 772.355469274 823.5 773.570248446 C 824.0 774.785027617 824.5 775.972313952 825.0 777.131813361 C 825.5 778.29131277 826.0 779.423026027 826.5 780.526836811 C 827.0 781.630647595 827.5 782.706556731 828.0 783.754613667 C 828.5 784.802670603 829.0 785.822876202 829.5 786.815433003 C 830.0 787.807989804 830.5 788.772898698 831.0 789.710502154 C 831.5 790.648105611 832.0 791.558404535 832.5 792.441867869 C 833.0 793.325331203 833.5 794.181959855 834.0 795.012335656 C 834.5 795.842711458 835.0 796.646835308 835.5 797.425388383 C 836.0 798.203941458 836.5 798.956924638 837.0 799.685105085 C 837.5 800.413285532 838.0 801.1166641 838.5 801.796080896 C 839.0 802.475497691 839.5 803.130953537 840.0 803.763348884 C 840.5 804.395744231 841.0 805.005079864 841.5 805.592304525 C 842.0 806.179529185 842.5 806.744643612 843.0 807.28863341 C 843.5 807.832623208 844.0 808.355489067 844.5 808.858242727 C 845.0 809.360996386 845.5 809.843638484 846.0 810.307196922 C 846.5 810.77075536 847.0 811.215230721 847.5 811.64165789 C 848.0 812.068085059 848.5 812.476464566 849.0 812.86782992 C 849.5 813.259195274 850.0 813.63354695 850.5 813.991909564 C 851.0 814.350272177 851.5 814.692646146 852.0 815.020040502 C 852.5 815.347434859 853.0 815.659849967 853.5 815.958273415 C 854.0 816.256696862 854.5 816.54112896 855.0 816.812530792 C 855.5 817.083932624 856.0 817.342304451 856.5 817.588576575 C 857.0 817.834848698 857.5 818.069021331 858.0 818.291990454 C 858.5 818.514959577 859.0 818.726725357 859.5 818.928146617 C 860.0 819.129567878 860.5 819.320644744 861.0 819.5021967 C 861.5 819.683748656 862.0 819.855775788 862.5 820.019056667 C 863.0 820.182337546 863.5 820.336872222 864.0 820.483397333 C 864.5 820.629922444 865.0 820.768438009 865.5 820.899638215 C 866.0 821.030838421 866.5 821.154723258 867.0 821.271944397 C 867.5 821.389165536 868.0 821.499722943 868.5 821.604226102 C 869.0 821.70872926 869.5 821.807178114 870.0 821.900140638 C 870.5 821.993103162 871.0 822.080579282 871.5 822.163096434 C 872.0 822.245613586 872.5 822.323171682 873.0 822.396258845 C 873.5 822.469346007 874.0 822.537962133 874.5 822.602557459 C 875.0 822.667152785 875.5 822.727727199 876.0 822.784694638 C 876.5 822.841662077 877.0 822.895022423 877.5 822.945155029 C 878.0 822.995287635 878.5 823.042192378 879.0 823.086215834 C 879.5 823.13023929 880.0 823.171381333 880.5 823.209957621 C 881.0 823.248533909 881.5 823.284544316 882.0 823.318275477 C 882.5 823.352006638 883.0 823.383458428 883.5 823.412890357 C 884.0 823.442322285 884.5 823.469734229 885.0 823.495360456 C 885.5 823.520986682 886.0 823.544827071 886.5 823.567092496 C 887.0 823.589357921 887.5 823.610048264 888.0 823.629352806 C 888.5 823.648657347 889.0 823.666575973 889.5 823.683278104 C 890.0 823.699980235 890.5 823.715465764 891.0 823.729885917 C 891.5 823.744306069 892.0 823.757660744 892.5 823.77008456 C 893.0 823.782508376 893.5 823.794001237 894.0 823.804682654 C 894.5 823.815364071 895.0 823.825233955 895.5 823.834398121 C 896.0 823.843562287 896.5 823.852020652 897.0 823.85986666 C 897.5 823.867712667 898.0 823.874946238 898.5 823.881649674 C 899.0 823.888353111 899.5 823.89452634 900.0 823.900241661 C 900.5 823.905956983 901.0 823.911214329 901.5 823.916077052 C 902.0 823.920939775 902.5 823.925407812 903.0 823.929536531 C 903.5 823.93366525 904.0 823.937454594 904.5 823.940952832 C 905.0 823.944451069 905.5 823.947658148 906.0 823.950616041 C 906.5 823.953573935 907.0 823.956282596 907.5 823.958778433 C 908.0 823.96127427 908.5 823.963557241 909.0 823.965658848 C 909.5 823.967760455 910.0 823.96968066 910.5 823.971446655 C 911.0 823.97321265 911.5 823.9748244 912.0 823.976305318 C 912.5 823.977786235 913.0 823.97913629 913.5 823.980375592 C 914.0 823.981614894 914.5 823.982743416 915.0 823.983778388 C 915.5 823.984813361 916.0 823.985754761 916.5 823.986617317 C 917.0 823.987479872 917.5 823.988263563 918.0 823.988980949 C 918.5 823.989698335 919.0 823.990349398 919.5 823.990944823 C 920.0 823.991540248 920.5 823.992080019 921.0 823.992573205 C 921.5 823.993066391 922.0 823.993512977 922.5 823.993920642 C 923.0 823.994328307 923.5 823.994697039 924.0 823.995033325 C 924.5 823.99536961 925.0 823.995673438 925.5 823.995950275 C 926.0 823.996227111 926.5 823.996476948 927.0 823.99670438 C 927.5 823.996931812 928.0 823.997136832 928.5 823.997323295 C 929.0 823.997509758 929.5 823.997677658 930.0 823.99783022 C 930.5 823.997982783 931.0 823.998120003 931.5 823.998244574 C 932.0 823.998369145 932.5 823.998481063 933.0 823.998582571 C 933.5 823.99868408 934.0 823.998775175 934.5 823.998857722 C 935.0 823.99894027 935.5 823.999014266 936.0 823.999081257 C 936.5 823.999148249 937.0 823.999208233 937.5 823.99926249 C 938.0 823.999316747 938.5 823.999365274 939.0 823.999409128 C 939.5 823.999452982 940.0 823.99949216 940.5 823.999527533 C 941.0 823.999562907 941.5 823.999594474 942.0 823.999622949 C 942.5 823.999651424 943.0 823.999676806 943.5 823.999699682 C 944.0 823.999722558 944.5 823.999742926 945.0 823.999761266 C 945.5 823.999779606 946.0 823.999795918 946.5 823.999810592 C 947.0 823.999825266 947.5 823.999838302 948.0 823.999850019 C 948.5 823.999861737 949.0 823.999872134 949.5 823.999881471 C 950.0 823.999890809 950.5 823.999899085 951.0 823.99990651 C 951.5 823.999913936 952.0 823.99992051 952.5 823.999926404 C 953.0 823.999932297 953.5 823.999937509 954.0 823.999942177 C 954.5 823.999946845 955.0 823.999950969 955.5 823.999954659 C 956.0 823.999958349 956.5 823.999961605 957.0 823.999964515 C 957.5 823.999967426 958.0 823.999969992 958.5 823.999972283 C 959.0 823.999974575 959.5 823.999976593 960.0 823.999978393"
       style="color:#000000;clip-rule:nonzero;display:inline;overflow:visible;visibility:visible;opacity:1;isolation:auto;mix-blend-mode:normal;color-interpolation:sRGB;color-interpolation-filters:linearRGB;solid-color:#000000;solid-opacity:1;fill:#e41a1c;fill-opacity:0.49803922;fill-rule:evenodd;stroke:none;stroke-width:3;stroke-linecap:round;stroke-linejoin:miter;stroke-miterlimit:4;stroke-dasharray:none;stroke-dashoffset:0;stroke-opacity:1;color-rendering:auto;image-rendering:auto;shape-rendering:auto;text-rendering:auto;enable-background:accumulate" />
    <path
       inkscape:connector-curvature="0"
       id="path8207-6"
       title="exp(-x**2)"
       d="m 384,823.99999 c 1,0 2,-10e-6 3,-10e-6 1,0 2,0 3,0 1,0 2,0 3,-1e-5 1,0 2,0 3,0 1,0 2,-10e-6 3,-10e-6 1,0 2,-10e-6 3,-10e-6 1,0 2,-10e-6 3,-10e-6 1,-1e-5 2,-1e-5 3,-2e-5 1,0 2,-10e-6 3,-2e-5 1,0 2,-10e-6 3,-2e-5 1,-10e-6 2,-2e-5 3,-3e-5 1,-1e-5 2,-3e-5 3,-4e-5 1,-2e-5 2,-3e-5 3,-5e-5 1,-2e-5 2,-4e-5 3,-6e-5 1,-2e-5 2,-4e-5 3,-7e-5 1,-3e-5 2,-6e-5 3,-9e-5 1,-4e-5 2,-7e-5 3,-1.1e-4 1,-4e-5 2,-9e-5 3,-1.4e-4 1,-5e-5 2,-1.1e-4 3,-1.7e-4 1,-7e-5 2,-1.3e-4 3,-2.1e-4 1,-7e-5 2,-1.6e-4 3,-2.5e-4 1,-9e-5 2,-2e-4 3,-3.1e-4 1,-1.1e-4 2,-2.4e-4 3,-3.8e-4 1,-1.4e-4 2,-2.9e-4 3,-4.6e-4 1,-1.6e-4 2,-3.5e-4 3,-5e-4 1,-2e-4 2,-4.2e-4 3,-5e-4 1,-2.4e-4 2,-5e-4 3,-10e-4 1,-2.9e-4 2,-5e-4 3,-10e-4 1,-3.6e-4 2,-5e-4 3,-10e-4 1,-4.3e-4 2,-10e-4 3,-10e-4 1,-5e-4 2,-0.001 3,-0.002 1,-5e-4 2,-10e-4 3,-0.002 1,-5e-4 2,-10e-4 3,-0.003 1,-10e-4 2,-0.002 3,-0.003 1,-0.001 2,-0.002 3,-0.004 1,-10e-4 2,-0.003 3,-0.004 1,-10e-4 2,-0.003 3,-0.005 1,-0.002 2,-0.004 3,-0.006 1,-0.002 2,-0.005 3,-0.007 1,-0.003 2,-0.005 3,-0.008 1,-0.003 2,-0.006 3,-0.009 1,-0.004 2,-0.007 3,-0.0109 1,-0.004 2,-0.008 3,-0.0128 1,-0.005 2,-0.01 3,-0.0148 1,-0.005 2,-0.0111 3,-0.0173 1,-0.006 2,-0.0129 3,-0.0201 1,-0.007 2,-0.0149 3,-0.0233 1,-0.008 2,-0.0173 3,-0.027 1,-0.01 2,-0.02 3,-0.0312 1,-0.0111 2,-0.0231 3,-0.0358 1,-0.0128 2,-0.0265 3,-0.0412 1,-0.0147 2,-0.0304 3,-0.0473 1,-0.0169 2,-0.0349 3,-0.0542 1,-0.0193 2,-0.0399 3,-0.0619 1,-0.022 2,-0.0455 3,-0.0705 1,-0.0251 2,-0.0518 3,-0.0802 1,-0.0285 2,-0.0588 3,-0.0911 1,-0.0323 2,-0.0666 3,-0.10315 1,-0.0366 2,-0.0753 3,-0.11658 1,-0.0413 2,-0.085 3,-0.13148 1,-0.0465 2,-0.0957 3,-0.14795 1,-0.0523 2,-0.10753 3,-0.16615 1,-0.0586 2,-0.12055 3,-0.18615 1,-0.0656 2,-0.13486 3,-0.20812 1,-0.0733 2,-0.15053 3,-0.23217 1,-0.0816 2,-0.16765 3,-0.25843 1,-0.0908 2,-0.18631 3,-0.28702 1,-0.10071 2,-0.2066 3,-0.31808 1,-0.11149 2,-0.22857 3,-0.35171 1,-0.12314 2,-0.25232 3,-0.38802 1,-0.13571 2,-0.27792 3,-0.42714 1,-0.1492 2,-0.30541 3,-0.46911 1,-0.16369 2,-0.33488 3,-0.51406 1,-0.17918 2,-0.36636 3,-0.56204 1,-0.19569 2,-0.39987 3,-0.61309 1,-0.21321 2,-0.43545 3,-0.66723 1,-0.23178 2,-0.4731 3,-0.72448 1,-0.25138 2,-0.51281 3,-0.78481 1,-0.27199 2,-0.55455 3,-0.84816 1,-0.29361 2,-0.59828 3,-0.91447 1,-0.3162 2,-0.64393 3,-0.98364 1,-0.33971 2,-0.6914 3,-1.05549 1,-0.36409 2,-0.74058 3,-1.12986 1,-0.38927 2,-0.79134 3,-1.20652 1,-0.41519 2,-0.84351 3,-1.28524 1,-0.44173 2,-0.89688 3,-1.36568 1,-0.4688 2,-0.95125 3,-1.44754 1,-0.49627 2,-1.00638 3,-1.53041 1,-0.52402 2,-1.06198 3,-1.61388 1,-0.5519 2,-1.11777 3,-1.69752 1,-0.57975 2,-1.17339 3,-1.78077 1,-0.6074 2,-1.22853 3,-1.86318 1,-0.63464 2,-1.28278 3,-1.94409 1,-0.66132 2,-1.3358 3,-2.02299 1,-0.6872 2,-1.38712 3,-2.0992 1,-0.71209 2,-1.43634 3,-2.1721 1,-0.73576 2,-1.48302 3,-2.24101 1,-0.758 2,-1.52673 3,-2.30529 1,-0.77858 2,-1.56699 3,-2.36424 1,-0.79726 2,-1.60335 3,-2.41718 1,-0.81382 2,-1.63537 3,-2.46344 1,-0.82807 2,-1.66264 3,-2.50239 1,-0.83975 2,-1.68468 3,-2.53337 1,-0.84869 2,-1.70112 3,-2.5558 1,-0.85468 2,-1.71158 3,-2.56911 1,-0.85754 2,-1.71569 3,-2.57279 1,-0.8571 2,-1.71314 3,-2.56636 1,-0.85323 2,-1.70364 3,-2.54944 1,-0.84579 2,-1.68696 3,-2.52165 1,-0.8347 2,-1.66292 3,-2.48278 1,-0.81986 2,-1.63136 3,-2.43259 1,-0.80124 2,-1.5922 3,-2.37101 1,-0.77879 2,-1.54543 3,-2.298 1,-0.75256 2,-1.49106 3,-2.21364 1,-0.72257 2,-1.42921 3,-2.11809 1,-0.6889 2,-1.36003 3,-2.01164 1,-0.65161 2,-1.2837 3,-1.89458 1,-0.61088 2,-1.20054 3,-1.76739 1,-0.56685 2,-1.11089 3,-1.63061 1,-0.51972 2,-1.01512 3,-1.48483 1,-0.4697 2,-0.91371 3,-1.33077 1,-0.41706 2,-0.80716 3,-1.16921 1,-0.36204 2,-0.69603 3,-1.00099 1,-0.30496 2,-0.58091 3,-0.82703 1,-0.24612 2,-0.46243 3,-0.64829 1,-0.18585 2,-0.34127 3,-0.46578 1,-0.12452 2,-0.21813 3,-0.28057 1,-0.0625 2,-0.0937 3,-0.0937 1,0 2,0.0312 3,0.0937 1,0.0624 2,0.15605 3,0.28057 1,0.12451 2,0.27992 3,0.46578 1,0.18585 2,0.40216 3,0.64828 1,0.24613 2,0.52207 3,0.82703 1,0.30497 2,0.63895 3,1.001 1,0.36204 2,0.75215 3,1.16921 1,0.41705 2,0.86106 3,1.33077 1,0.46971 2,0.96511 3,1.48483 1,0.51972 2,1.06375 3,1.63061 1,0.56684 2,1.15651 3,1.76739 1,0.61088 2,1.24297 3,1.89458 1,0.65161 2,1.32274 3,2.01163 1,0.68888 2,1.39553 3,2.1181 1,0.72257 2,1.46108 3,2.21364 1,0.75257 2,1.5192 3,2.298 1,0.7788 2,1.56977 3,2.37101 1,0.80123 2,1.61273 3,2.43259 1,0.81986 2,1.64808 3,2.48277 1,0.8347 2,1.67587 3,2.52166 1,0.84579 2,1.6962 3,2.54943 1,0.85323 2,1.70927 3,2.56636 1,0.8571 2,1.71526 3,2.57279 1,0.85754 2,1.71444 3,2.56912 1,0.85467 2,1.70711 3,2.5558 1,0.84869 2,1.69362 3,2.53337 1,0.83975 2,1.67432 3,2.50239 1,0.82806 2,1.64962 3,2.46344 1,0.81383 2,1.61992 3,2.41717 1,0.79726 2,1.58567 3,2.36424 1,0.77857 2,1.5473 3,2.30529 1,0.758 2,1.50526 3,2.24102 1,0.73576 2,1.46001 3,2.1721 1,0.71208 2,1.412 3,2.0992 1,0.68719 2,1.36167 3,2.02298 1,0.66132 2,1.30946 3,1.9441 1,0.63465 2,1.25578 3,1.86317 1,0.60739 2,1.20103 3,1.78078 1,0.57975 2,1.14561 3,1.69752 1,0.5519 2,1.08986 3,1.61388 1,0.52403 2,1.03413 3,1.53041 1,0.49628 2,0.97874 3,1.44754 1,0.4688 2,0.92395 3,1.36568 1,0.44173 2,0.87005 3,1.28523 1,0.41519 2,0.81726 3,1.20653 1,0.38928 2,0.76577 3,1.12986 1,0.36409 2,0.71578 3,1.05549 1,0.33971 2,0.66743 3,0.98363 1,0.3162 2,0.62087 3,0.91448 1,0.29361 2,0.57617 3,0.84816 1,0.27199 2,0.53343 3,0.78481 1,0.25138 2,0.4927 3,0.72447 1,0.23179 2,0.45402 3,0.66724 1,0.21321 2,0.4174 3,0.61308 1,0.19569 2,0.38286 3,0.56204 1,0.17918 2,0.35037 3,0.51407 1,0.16369 2,0.3199 3,0.46911 1,0.14922 2,0.29143 3,0.42713 1,0.1357 2,0.26489 3,0.38803 1,0.12313 2,0.24022 3,0.3517 1,0.11149 2,0.21737 3,0.31808 1,0.10071 2,0.19625 3,0.28703 1,0.0908 2,0.17679 3,0.25843 1,0.0816 2,0.1589 3,0.23217 1,0.0733 2,0.14252 3,0.20812 1,0.0656 2,0.12754 3,0.18615 1,0.0586 2,0.11389 3,0.16614 1,0.0523 2,0.10148 3,0.14796 1,0.0465 2,0.0902 3,0.13148 1,0.0412 2,0.08 3,0.11658 1,0.0366 2,0.0709 3,0.10315 1,0.0323 2,0.0626 3,0.0911 1,0.0285 2,0.0552 3,0.0802 1,0.025 2,0.0485 3,0.0705 1,0.022 2,0.0426 3,0.0619 1,0.0193 2,0.0373 3,0.0542 1,0.0168 2,0.0326 3,0.0473 1,0.0147 2,0.0284 3,0.0412 1,0.0128 2,0.0247 3,0.0358 1,0.0111 2,0.0215 3,0.0312 1,0.01 2,0.0186 3,0.0269 1,0.008 2,0.0161 3,0.0233 1,0.007 2,0.0139 3,0.0201 1,0.006 2,0.0119 3,0.0173 1,0.005 2,0.0103 3,0.0149 1,0.005 2,0.009 3,0.0127 1,0.004 2,0.008 3,0.0109 1,0.004 2,0.006 3,0.009 1,0.003 2,0.005 3,0.008 1,0.003 2,0.005 3,0.007 1,0.002 2,0.004 3,0.006 1,10e-4 2,0.003 3,0.005 1,10e-4 2,0.003 3,0.004 1,10e-4 2,0.002 3,0.003 1,10e-4 2,0.002 3,0.003 1,10e-4 2,10e-4 3,0.002 1,5e-4 2,0.002 3,0.002 1,5e-4 2,10e-4 3,10e-4 1,5e-4 2,10e-4 3,10e-4 1,4.3e-4 2,10e-4 3,10e-4 1,3.6e-4 2,5e-4 3,10e-4 1,3e-4 2,5e-4 3,0.001 1,2.5e-4 2,4.7e-4 3,5e-4 1,2e-4 2,3.9e-4 3,5e-4 1,1.7e-4 2,3.2e-4 3,4.6e-4 1,1.4e-4 2,2.6e-4 3,3.7e-4 1,1.2e-4 2,2.2e-4 3,3.1e-4 1,10e-5 2,1.8e-4 3,2.6e-4 1,7e-5 2,1.4e-4 3,2e-4 1,7e-5 2,1.2e-4 3,1.7e-4 1,5e-5 2,10e-5 3,1.4e-4 1,4e-5 2,8e-5 3,1.1e-4 1,4e-5 2,7e-5 3,9e-5 1,3e-5 2,6e-5 3,8e-5 1,2e-5 2,4e-5 3,6e-5 1,10e-6 2,3e-5 3,4e-5 1,2e-5 2,3e-5 3,4e-5 1,10e-6 2,2e-5 3,3e-5 1,10e-6 2,2e-5 3,3e-5 1,10e-6 2,10e-6 3,2e-5 1,0 2,1e-5 3,1e-5 1,10e-6 2,10e-6 3,2e-5 1,0 2,0 3,10e-6 1,0 2,0 3,0 1,10e-6 2,10e-6 3,10e-6 1,0 2,0 3,0 1,1e-5 2,1e-5 3,1e-5 1,0 2,0 3,0"
       style="color:#000000;clip-rule:nonzero;display:inline;overflow:visible;visibility:visible;opacity:1;isolation:auto;mix-blend-mode:normal;color-interpolation:sRGB;color-interpolation-filters:linearRGB;solid-color:#000000;solid-opacity:1;fill:#984ea3;fill-opacity:0.49803922;fill-rule:evenodd;stroke:none;stroke-width:3;stroke-linecap:round;stroke-linejoin:miter;stroke-miterlimit:4;stroke-dasharray:none;stroke-dashoffset:0;stroke-opacity:1;color-rendering:auto;image-rendering:auto;shape-rendering:auto;text-rendering:auto;enable-background:accumulate" />
    <path
       style="fill:none;fill-rule:evenodd;stroke:#e41a1c;stroke-width:4;stroke-linecap:butt;stroke-linejoin:miter;stroke-miterlimit:4;stroke-dasharray:none;stroke-opacity:1"
       d="M 55.814763,941.07921 458.44623,706.92078"
       id="path8286"
       inkscape:connector-curvature="0"
       sodipodi:nodetypes="cc" />
    <g
       id="g6014"
       transform="matrix(0.58287382,1.0095671,-1.0095671,0.5828738,308.53229,368.1475)"
       style="fill:#ffffff;fill-opacity:1">
      <g
         word-spacing="normal"
         letter-spacing="normal"
         font-size-adjust="none"
         font-stretch="normal"
         font-weight="normal"
         font-variant="normal"
         font-style="normal"
         stroke-miterlimit="10.433"
         xml:space="preserve"
         transform="matrix(0.73142857,0,0,-0.73142857,-128,384)"
         id="g6016"
         style="font-style:normal;font-variant:normal;font-weight:normal;font-stretch:normal;letter-spacing:normal;word-spacing:normal;text-anchor:start;fill:#ffffff;fill-opacity:1;fill-rule:evenodd;stroke:#000000;stroke-width:1.33333337;stroke-linecap:butt;stroke-linejoin:miter;stroke-miterlimit:10.43299961;stroke-dasharray:none;stroke-dashoffset:0;stroke-opacity:1"><path
           id="path6018"
           d="m 478.52,427.47 v 0.02 l -0.01,0.02 v 0.02 0.02 l -0.01,0.02 v 0.02 l -0.01,0.02 v 0.02 l -0.01,0.02 -0.01,0.02 -0.01,0.02 -0.01,0.02 -0.01,0.03 -0.01,0.02 -0.02,0.01 -0.01,0.02 -0.02,0.02 -0.01,0.02 -0.02,0.02 -0.02,0.01 -0.02,0.02 -0.02,0.01 -0.02,0.02 -0.03,0.01 -0.02,0.01 -0.03,0.01 -0.02,0.01 -0.03,0.01 h -0.03 l -0.03,0.01 h -0.03 -0.02 -0.01 c -0.55,0 -2.54,-1.99 -3.39,-3.44 -1.09,2.69 -3.04,3.49 -4.63,3.49 v -1.1 c 3.23,0 3.93,-4.03 3.93,-4.38 0,-0.3 -2.74,-11.21 -2.89,-11.41 -0.74,-1.4 -3.53,-4.58 -6.32,-4.58 v 0 c -2.99,0 -3.19,3.83 -3.19,4.68 0,2.39 1.44,7.82 2.29,9.91 1.54,3.69 4.14,5.78 6.18,5.78 v 1.1 c -5.88,0 -12.01,-7.38 -12.01,-14.6 0,-4.88 2.94,-7.97 6.58,-7.97 2.14,0 4.08,1.2 5.88,2.99 -0.45,-1.74 -2.09,-8.47 -2.25,-8.92 -0.4,-1.39 -0.79,-1.59 -3.58,-1.64 -0.65,0 -1.15,0 -1.15,-1 0,-0.04 0,-0.54 0.65,-0.54 h 10.11 c 0.25,0 0.9,0 0.9,0.99 0,0.55 -0.5,0.55 -1.3,0.55 -2.39,0 -2.39,0.35 -2.39,0.8 0,0.35 0.1,0.64 0.2,1.09 z"
           inkscape:connector-curvature="0"
           style="fill:#ffffff;fill-opacity:1;stroke-width:0" /><path
           id="path6020"
           d="m 527.22,422.29 h 0.14 0.15 l 0.15,0.01 h 0.07 0.07 l 0.07,0.01 0.08,0.01 0.07,0.01 0.07,0.01 0.06,0.02 0.07,0.01 0.07,0.02 0.06,0.02 0.06,0.03 0.06,0.03 0.05,0.03 0.06,0.03 0.05,0.04 0.04,0.04 0.05,0.05 0.03,0.05 0.02,0.03 0.02,0.02 0.02,0.03 0.01,0.03 0.02,0.03 0.01,0.04 0.01,0.03 0.01,0.04 0.01,0.03 0.01,0.04 0.01,0.04 v 0.04 l 0.01,0.04 v 0.04 0.05 0.05 c 0,0.99 -0.94,0.99 -1.64,0.99 h -29.84 c -0.7,0 -1.64,0 -1.64,-0.99 0,-1 0.94,-1 1.69,-1 z"
           inkscape:connector-curvature="0"
           style="fill:#ffffff;fill-opacity:1;stroke-width:0" /><path
           id="path6022"
           d="m 527.27,412.62 0.13,0.01 h 0.14 0.14 l 0.07,0.01 h 0.07 l 0.07,0.01 0.07,0.01 0.07,0.01 0.07,0.01 0.06,0.01 0.07,0.02 0.06,0.02 0.06,0.02 0.06,0.02 0.06,0.03 0.06,0.03 0.05,0.04 0.05,0.04 0.04,0.04 0.05,0.04 0.02,0.03 0.02,0.03 0.01,0.02 0.02,0.03 0.02,0.03 0.01,0.03 0.02,0.03 0.01,0.03 0.01,0.04 0.01,0.03 0.01,0.04 0.01,0.04 0.01,0.04 v 0.04 l 0.01,0.04 v 0.04 0.05 0.04 c 0,1 -0.94,1 -1.69,1 h -29.74 c -0.75,0 -1.69,0 -1.69,-1 0,-1 0.94,-1 1.64,-1 z"
           inkscape:connector-curvature="0"
           style="fill:#ffffff;fill-opacity:1;stroke-width:0" /><path
           id="path6024"
           d="m 560.65,437.88 v 0.05 l -0.01,0.06 v 0.05 0.05 0.05 0.05 0.04 0.05 0.04 0.04 0.04 0.04 0.04 l -0.01,0.04 v 0.03 0.04 l -0.01,0.03 v 0.03 l -0.01,0.06 -0.01,0.05 -0.02,0.05 -0.01,0.05 -0.02,0.04 -0.02,0.04 -0.03,0.04 -0.03,0.03 -0.03,0.02 -0.03,0.03 -0.04,0.02 -0.05,0.02 -0.02,0.01 -0.03,0.01 h -0.02 l -0.03,0.01 -0.03,0.01 h -0.03 l -0.03,0.01 h -0.03 l -0.03,0.01 h -0.04 -0.04 -0.03 l -0.04,0.01 h -0.04 -0.04 -0.05 -0.04 -0.05 l -0.05,0.01 h -0.05 -0.05 -0.05 c -3.09,-3.19 -7.47,-3.19 -9.07,-3.19 v -1.55 c 1,0 3.94,0 6.53,1.3 v -25.81 c 0,-1.79 -0.15,-2.39 -4.63,-2.39 h -1.6 V 406 h 16.14 v 1.54 h -1.59 c -4.49,0 -4.63,0.55 -4.63,2.39 z"
           inkscape:connector-curvature="0"
           style="fill:#ffffff;fill-opacity:1;stroke-width:0" /></g>    </g>
  </g>
</svg>
