<?xml version="1.0" encoding="UTF-8" standalone="no"?>
<!-- Created with Inkscape (http://www.inkscape.org/) -->

<svg
   xmlns:dc="http://purl.org/dc/elements/1.1/"
   xmlns:cc="http://creativecommons.org/ns#"
   xmlns:rdf="http://www.w3.org/1999/02/22-rdf-syntax-ns#"
   xmlns:svg="http://www.w3.org/2000/svg"
   xmlns="http://www.w3.org/2000/svg"
   xmlns:sodipodi="http://sodipodi.sourceforge.net/DTD/sodipodi-0.dtd"
   xmlns:inkscape="http://www.inkscape.org/namespaces/inkscape"
   sodipodi:docname="marginal-dist.svg"
   viewBox="0 0 1024 512"
   inkscape:version="0.92.4 (5da689c313, 2019-01-14)"
   version="1.1"
   id="svg4152"
   height="512"
   width="1024">
  <sodipodi:namedview
     inkscape:snap-global="true"
     inkscape:snap-intersection-paths="true"
     inkscape:object-paths="true"
     inkscape:object-nodes="true"
     inkscape:window-maximized="0"
     inkscape:window-y="0"
     inkscape:window-x="1"
     inkscape:window-height="782"
     inkscape:window-width="1440"
     showgrid="false"
     inkscape:current-layer="layer1"
     inkscape:document-units="px"
     inkscape:cy="328.03739"
     inkscape:cx="890.62721"
     inkscape:zoom="0.84852814"
     inkscape:pageshadow="2"
     inkscape:pageopacity="0"
     borderopacity="1.0"
     bordercolor="#666666"
     pagecolor="#5b5b5b"
     id="base">
    <inkscape:grid
       type="xygrid"
       id="grid4700"
       empspacing="4" />
  </sodipodi:namedview>
  <defs
     id="defs4154">
    <marker
       inkscape:isstock="true"
       style="overflow:visible"
       id="marker7462"
       refX="0"
       refY="0"
       orient="auto"
       inkscape:stockid="Arrow1Lend">
      <path
         inkscape:connector-curvature="0"
         transform="matrix(-0.8,0,0,-0.8,-10,0)"
         style="fill:#ffffff;fill-opacity:1;fill-rule:evenodd;stroke:#ffffff;stroke-width:1pt;stroke-opacity:1"
         d="M 0,0 5,-5 -12.5,0 5,5 0,0 Z"
         id="path7464" />
    </marker>
    <marker
       inkscape:isstock="true"
       style="overflow:visible"
       id="marker4620"
       refX="0"
       refY="0"
       orient="auto"
       inkscape:stockid="Arrow1Mend">
      <path
         transform="matrix(-0.4,0,0,-0.4,-4,0)"
         style="fill:#4daf4a;fill-opacity:1;fill-rule:evenodd;stroke:#4daf4a;stroke-width:1pt;stroke-opacity:1"
         d="M 0,0 5,-5 -12.5,0 5,5 0,0 Z"
         id="path4622"
         inkscape:connector-curvature="0" />
    </marker>
    <marker
       inkscape:stockid="Arrow1Mend"
       orient="auto"
       refY="0"
       refX="0"
       id="marker5421"
       style="overflow:visible"
       inkscape:isstock="true">
      <path
         id="path5423"
         d="M 0,0 5,-5 -12.5,0 5,5 0,0 Z"
         style="fill:#4daf4a;fill-opacity:1;fill-rule:evenodd;stroke:#4daf4a;stroke-width:1pt;stroke-opacity:1"
         transform="matrix(-0.4,0,0,-0.4,-4,0)"
         inkscape:connector-curvature="0" />
    </marker>
    <marker
       inkscape:stockid="Arrow1Lend"
       orient="auto"
       refY="0"
       refX="0"
       id="Arrow1Lend"
       style="overflow:visible"
       inkscape:isstock="true"
       inkscape:collect="always">
      <path
         id="path4763"
         d="M 0,0 5,-5 -12.5,0 5,5 0,0 Z"
         style="fill:#ffffff;fill-opacity:1;fill-rule:evenodd;stroke:#ffffff;stroke-width:1pt;stroke-opacity:1"
         transform="matrix(-0.8,0,0,-0.8,-10,0)"
         inkscape:connector-curvature="0" />
    </marker>
    <marker
       inkscape:isstock="true"
       style="overflow:visible"
       id="marker7462-3"
       refX="0"
       refY="0"
       orient="auto"
       inkscape:stockid="Arrow1Lend">
      <path
         inkscape:connector-curvature="0"
         transform="matrix(-0.8,0,0,-0.8,-10,0)"
         style="fill:#ffffff;fill-opacity:1;fill-rule:evenodd;stroke:#ffffff;stroke-width:1pt;stroke-opacity:1"
         d="M 0,0 5,-5 -12.5,0 5,5 0,0 Z"
         id="path7464-6" />
    </marker>
    <marker
       inkscape:stockid="Arrow1Lend"
       orient="auto"
       refY="0"
       refX="0"
       id="Arrow1Lend-5"
       style="overflow:visible"
       inkscape:isstock="true"
       inkscape:collect="always">
      <path
         id="path4763-3"
         d="M 0,0 5,-5 -12.5,0 5,5 0,0 Z"
         style="fill:#ffffff;fill-opacity:1;fill-rule:evenodd;stroke:#ffffff;stroke-width:1pt;stroke-opacity:1"
         transform="matrix(-0.8,0,0,-0.8,-10,0)"
         inkscape:connector-curvature="0" />
    </marker>
  </defs>
  <metadata
     id="metadata4157">
    <rdf:RDF>
      <cc:Work
         rdf:about="">
        <dc:format>image/svg+xml</dc:format>
        <dc:type
           rdf:resource="http://purl.org/dc/dcmitype/StillImage" />
        <dc:title></dc:title>
      </cc:Work>
    </rdf:RDF>
  </metadata>
  <g
     id="layer1"
     inkscape:label="Layer 1"
     inkscape:groupmode="layer"
     transform="translate(0,-568)">
    <path
       style="color:#000000;clip-rule:nonzero;display:inline;overflow:visible;visibility:visible;opacity:1;isolation:auto;mix-blend-mode:normal;color-interpolation:sRGB;color-interpolation-filters:linearRGB;solid-color:#000000;solid-opacity:1;fill:#984ea3;fill-opacity:0.49803922;fill-rule:evenodd;stroke:none;stroke-width:2;stroke-linecap:round;stroke-linejoin:miter;stroke-miterlimit:4;stroke-dasharray:none;stroke-dashoffset:0;stroke-opacity:1;color-rendering:auto;image-rendering:auto;shape-rendering:auto;text-rendering:auto;enable-background:accumulate"
       d="M 64 177.48828 L 220.17969 448 L 447.80664 448 C 447.91421 448 448 447.91421 448 447.80664 L 448 330.52539 L 284.79102 48 L 64.193359 48 C 64.085788 48 64 48.085788 64 48.193359 L 64 177.48828 z "
       id="rect9234"
       transform="translate(0,568)" />
    <ellipse
       style="color:#000000;clip-rule:nonzero;display:inline;overflow:visible;visibility:visible;opacity:1;isolation:auto;mix-blend-mode:normal;color-interpolation:sRGB;color-interpolation-filters:linearRGB;solid-color:#000000;solid-opacity:1;fill:#ffffff;fill-opacity:0.24705882;fill-rule:evenodd;stroke:none;stroke-width:3;stroke-linecap:round;stroke-linejoin:miter;stroke-miterlimit:4;stroke-dasharray:none;stroke-dashoffset:0;stroke-opacity:1;color-rendering:auto;image-rendering:auto;shape-rendering:auto;text-rendering:auto;enable-background:accumulate"
       id="path7860"
       cx="594.38171"
       cy="625.94128"
       rx="37.869499"
       ry="151.478"
       transform="matrix(0.89735118,0.44131719,-0.44131719,0.89735118,0,0)" />
    <path
       style="fill:#ffffff;fill-rule:evenodd;stroke:#ffffff;stroke-width:2;stroke-linecap:butt;stroke-linejoin:miter;stroke-miterlimit:4;stroke-dasharray:none;stroke-dashoffset:0;stroke-opacity:1;marker-end:url(#Arrow1Lend);fill-opacity:1"
       d="m 256,1048 0,-448"
       id="path4723"
       inkscape:connector-curvature="0"
       sodipodi:nodetypes="cc" />
    <path
       style="fill:#ffffff;fill-rule:evenodd;stroke:#ffffff;stroke-width:2;stroke-linecap:butt;stroke-linejoin:miter;stroke-miterlimit:4;stroke-dasharray:none;stroke-opacity:1;marker-end:url(#marker7462);fill-opacity:1"
       d="m 32,824 448,0"
       id="path4725"
       inkscape:connector-curvature="0"
       sodipodi:nodetypes="cc" />
    <path
       style="fill:#cacaca;fill-rule:evenodd;stroke:#ffffff;stroke-width:2;stroke-linecap:butt;stroke-linejoin:miter;stroke-miterlimit:4;stroke-dasharray:11.99999982, 11.99999981999999932;stroke-dashoffset:0;stroke-opacity:1;fill-opacity:1"
       d="M 64.357806,746.10791 219.40761,1014.6621"
       id="path5281"
       inkscape:connector-curvature="0" />
    <path
       style="fill:#cacaca;fill-rule:evenodd;stroke:#ffffff;stroke-width:2;stroke-linecap:butt;stroke-linejoin:miter;stroke-miterlimit:4;stroke-dasharray:12.00000001, 12.00000001000000083;stroke-dashoffset:0;stroke-opacity:1;fill-opacity:1"
       d="M 293.30864,630.6624 448.35898,899.21743"
       id="path5301"
       inkscape:connector-curvature="0" />
    <path
       style="fill:#cacaca;fill-rule:evenodd;stroke:#ffffff;stroke-width:1.99999988;stroke-linecap:butt;stroke-linejoin:miter;stroke-miterlimit:4;stroke-dasharray:11.99999963, 11.99999962999999958;stroke-dashoffset:0;stroke-opacity:1;fill-opacity:1"
       d="M 145.50739,630.66312 367.21007,1014.6634"
       id="path5291"
       inkscape:connector-curvature="0" />
    <g
       id="g5794"
       transform="translate(256.66667,725)"
       style="stroke:#ffffff;stroke-opacity:1;fill:#ffffff;fill-opacity:1">
      <g
         word-spacing="normal"
         letter-spacing="normal"
         font-size-adjust="none"
         font-stretch="normal"
         font-weight="normal"
         font-variant="normal"
         font-style="normal"
         stroke-miterlimit="10.433"
         xml:space="preserve"
         transform="matrix(0.73142857,0,0,-0.73142857,-128,384)"
         id="g5796"
         style="font-style:normal;font-variant:normal;font-weight:normal;font-stretch:normal;letter-spacing:normal;word-spacing:normal;text-anchor:start;fill:#ffffff;fill-opacity:1;fill-rule:evenodd;stroke:#ffffff;stroke-linecap:butt;stroke-linejoin:miter;stroke-miterlimit:10.43299961;stroke-dasharray:none;stroke-dashoffset:0;stroke-opacity:1"><path
           id="path5798"
           d="m 478.66,430.91 0,0.31 -0.01,0.34 -0.01,0.36 -0.02,0.37 -0.03,0.38 -0.04,0.4 -0.05,0.41 -0.06,0.41 -0.06,0.42 -0.08,0.42 -0.09,0.43 -0.1,0.42 -0.11,0.43 -0.13,0.42 -0.13,0.41 -0.16,0.4 -0.17,0.4 -0.18,0.39 -0.2,0.37 -0.22,0.35 -0.23,0.34 -0.25,0.32 -0.27,0.3 -0.29,0.27 -0.31,0.25 -0.17,0.12 -0.16,0.11 -0.18,0.1 -0.17,0.09 -0.19,0.09 -0.19,0.07 -0.19,0.07 -0.2,0.06 -0.21,0.06 -0.21,0.04 -0.21,0.03 -0.23,0.03 -0.23,0.01 -0.23,0.01 -0.05,-1.1 c 2.44,0 2.74,-3.18 2.74,-6.02 0,-2.45 -0.4,-4.99 -1.59,-9.92 l -10.42,0 c 0.85,3.19 1.84,7.17 3.84,10.71 1.34,2.44 3.18,5.23 5.43,5.23 l 0.05,1.1 c -6.93,0 -14.6,-14.05 -14.6,-25.46 0,-4.68 1.45,-10.21 5.98,-10.21 l 0,1.1 c -1.64,0 -2.69,1.44 -2.69,6.07 0,2.1 0.3,4.99 1.59,9.87 l 10.37,0 c -0.55,-2.29 -1.6,-6.53 -3.49,-10.11 -1.74,-3.39 -3.64,-5.83 -5.78,-5.83 l 0,-1.1 c 7.02,0 14.59,14.3 14.59,25.46 z"
           inkscape:connector-curvature="0"
           style="fill:#ffffff;stroke-width:0;stroke:#ffffff;stroke-opacity:1;fill-opacity:1" /><path
           id="path5800"
           d="m 491.68,446.18 0,0.04 0,0.04 0,0.04 0,0.04 0,0.04 0,0.04 0,0.03 0,0.04 -0.01,0.03 0,0.03 0,0.04 0,0.03 -0.01,0.02 0,0.03 0,0.03 -0.01,0.03 0,0.02 0,0.02 -0.02,0.05 -0.01,0.04 -0.01,0.04 -0.02,0.03 -0.02,0.03 -0.02,0.03 -0.03,0.03 -0.02,0.02 -0.03,0.02 -0.04,0.02 -0.03,0.01 -0.04,0.01 -0.05,0.02 -0.05,0 -0.02,0.01 -0.03,0 -0.03,0.01 -0.02,0 -0.03,0 -0.03,0 -0.04,0 -0.03,0.01 -0.03,0 -0.04,0 -0.03,0 -0.04,0 -0.04,0 -0.04,0 -0.04,0 -0.04,0 -0.05,0 -0.04,0 c -2.24,-2.19 -5.41,-2.23 -6.84,-2.23 l 0,-1.25 c 0.84,0 3.14,0 5.06,0.97 l 0,-17.78 c 0,-1.15 0,-1.61 -3.49,-1.61 l -1.33,0 0,-1.25 12.45,0 0,1.25 -1.32,0 c -3.49,0 -3.49,0.46 -3.49,1.61 z"
           inkscape:connector-curvature="0"
           style="fill:#ffffff;stroke-width:0;stroke:#ffffff;stroke-opacity:1;fill-opacity:1" /></g>    </g>
    <g
       id="g5900"
       transform="translate(56.666667,519.16667)"
       style="stroke:#ffffff;stroke-opacity:1;fill:#ffffff;fill-opacity:1">
      <g
         id="g5902"
         transform="matrix(0.73142857,0,0,-0.73142857,-128,384)"
         xml:space="preserve"
         stroke-miterlimit="10.433"
         font-style="normal"
         font-variant="normal"
         font-weight="normal"
         font-stretch="normal"
         font-size-adjust="none"
         letter-spacing="normal"
         word-spacing="normal"
         style="font-style:normal;font-variant:normal;font-weight:normal;font-stretch:normal;letter-spacing:normal;word-spacing:normal;text-anchor:start;fill:#ffffff;fill-opacity:1;fill-rule:evenodd;stroke:#ffffff;stroke-linecap:butt;stroke-linejoin:miter;stroke-miterlimit:10.43299961;stroke-dasharray:none;stroke-dashoffset:0;stroke-opacity:1"><path
           d="m 478.66,430.91 0,0.31 -0.01,0.34 -0.01,0.36 -0.02,0.37 -0.03,0.38 -0.04,0.4 -0.05,0.41 -0.06,0.41 -0.06,0.42 -0.08,0.42 -0.09,0.43 -0.1,0.42 -0.11,0.43 -0.13,0.42 -0.13,0.41 -0.16,0.4 -0.17,0.4 -0.18,0.39 -0.2,0.37 -0.22,0.35 -0.23,0.34 -0.25,0.32 -0.27,0.3 -0.29,0.27 -0.31,0.25 -0.17,0.12 -0.16,0.11 -0.18,0.1 -0.17,0.09 -0.19,0.09 -0.19,0.07 -0.19,0.07 -0.2,0.06 -0.21,0.06 -0.21,0.04 -0.21,0.03 -0.23,0.03 -0.23,0.01 -0.23,0.01 -0.05,-1.1 c 2.44,0 2.74,-3.18 2.74,-6.02 0,-2.45 -0.4,-4.99 -1.59,-9.92 l -10.42,0 c 0.85,3.19 1.84,7.17 3.84,10.71 1.34,2.44 3.18,5.23 5.43,5.23 l 0.05,1.1 c -6.93,0 -14.6,-14.05 -14.6,-25.46 0,-4.68 1.45,-10.21 5.98,-10.21 l 0,1.1 c -1.64,0 -2.69,1.44 -2.69,6.07 0,2.1 0.3,4.99 1.59,9.87 l 10.37,0 c -0.55,-2.29 -1.6,-6.53 -3.49,-10.11 -1.74,-3.39 -3.64,-5.83 -5.78,-5.83 l 0,-1.1 c 7.02,0 14.59,14.3 14.59,25.46 z"
           id="path5904"
           inkscape:connector-curvature="0"
           style="fill:#ffffff;stroke-width:0;stroke:#ffffff;stroke-opacity:1;fill-opacity:1" /><path
           d="m 497.61,430.35 -1.19,0 c -0.1,-0.77 -0.45,-2.83 -0.9,-3.18 -0.28,-0.21 -2.97,-0.21 -3.45,-0.21 l -6.42,0 c 3.66,3.25 4.88,4.22 6.97,5.86 2.58,2.06 4.99,4.22 4.99,7.54 0,4.21 -3.7,6.79 -8.16,6.79 -4.33,0 -7.25,-3.03 -7.25,-6.24 0,-1.78 1.5,-1.95 1.84,-1.95 0.84,0 1.85,0.59 1.85,1.85 0,0.62 -0.24,1.85 -2.05,1.85 1.08,2.47 3.45,3.24 5.09,3.24 3.48,0 5.3,-2.72 5.3,-5.54 0,-3.04 -2.16,-5.45 -3.28,-6.7 l -8.4,-8.3 c -0.35,-0.31 -0.35,-0.38 -0.35,-1.36 l 14.36,0 z"
           id="path5906"
           inkscape:connector-curvature="0"
           style="fill:#ffffff;stroke-width:0;stroke:#ffffff;stroke-opacity:1;fill-opacity:1" /></g>    </g>
    <path
       style="fill:#ffffff;fill-rule:evenodd;stroke:#ffffff;stroke-width:2;stroke-linecap:butt;stroke-linejoin:miter;stroke-miterlimit:4;stroke-dasharray:none;stroke-opacity:1;marker-end:url(#marker7462-3);fill-opacity:1"
       d="m 544,824 448,0"
       id="path4725-7"
       inkscape:connector-curvature="0"
       sodipodi:nodetypes="cc" />
    <path
       style="fill:#ffffff;fill-rule:evenodd;stroke:#ffffff;stroke-width:2;stroke-linecap:butt;stroke-linejoin:miter;stroke-miterlimit:4;stroke-dasharray:none;stroke-dashoffset:0;stroke-opacity:1;marker-end:url(#Arrow1Lend-5);fill-opacity:1"
       d="m 768,1048 0,-448"
       id="path4723-5"
       inkscape:connector-curvature="0"
       sodipodi:nodetypes="cc" />
    <path
       inkscape:connector-curvature="0"
       id="path8207-6"
       title="exp(-x**2)"
       d="m 384,823.99999 c 1,0 2,-10e-6 3,-10e-6 1,0 2,0 3,0 1,0 2,0 3,-1e-5 1,0 2,0 3,0 1,0 2,-10e-6 3,-10e-6 1,0 2,-10e-6 3,-10e-6 1,0 2,-10e-6 3,-10e-6 1,-1e-5 2,-1e-5 3,-2e-5 1,0 2,-10e-6 3,-2e-5 1,0 2,-10e-6 3,-2e-5 1,-10e-6 2,-2e-5 3,-3e-5 1,-1e-5 2,-3e-5 3,-4e-5 1,-2e-5 2,-3e-5 3,-5e-5 1,-2e-5 2,-4e-5 3,-6e-5 1,-2e-5 2,-4e-5 3,-7e-5 1,-3e-5 2,-6e-5 3,-9e-5 1,-4e-5 2,-7e-5 3,-1.1e-4 1,-4e-5 2,-9e-5 3,-1.4e-4 1,-5e-5 2,-1.1e-4 3,-1.7e-4 1,-7e-5 2,-1.3e-4 3,-2.1e-4 1,-7e-5 2,-1.6e-4 3,-2.5e-4 1,-9e-5 2,-2e-4 3,-3.1e-4 1,-1.1e-4 2,-2.4e-4 3,-3.8e-4 1,-1.4e-4 2,-2.9e-4 3,-4.6e-4 1,-1.6e-4 2,-3.5e-4 3,-5e-4 1,-2e-4 2,-4.2e-4 3,-5e-4 1,-2.4e-4 2,-5e-4 3,-10e-4 1,-2.9e-4 2,-5e-4 3,-10e-4 1,-3.6e-4 2,-5e-4 3,-10e-4 1,-4.3e-4 2,-10e-4 3,-10e-4 1,-5e-4 2,-0.001 3,-0.002 1,-5e-4 2,-10e-4 3,-0.002 1,-5e-4 2,-10e-4 3,-0.003 1,-10e-4 2,-0.002 3,-0.003 1,-0.001 2,-0.002 3,-0.004 1,-10e-4 2,-0.003 3,-0.004 1,-10e-4 2,-0.003 3,-0.005 1,-0.002 2,-0.004 3,-0.006 1,-0.002 2,-0.005 3,-0.007 1,-0.003 2,-0.005 3,-0.008 1,-0.003 2,-0.006 3,-0.009 1,-0.004 2,-0.007 3,-0.0109 1,-0.004 2,-0.008 3,-0.0128 1,-0.005 2,-0.01 3,-0.0148 1,-0.005 2,-0.0111 3,-0.0173 1,-0.006 2,-0.0129 3,-0.0201 1,-0.007 2,-0.0149 3,-0.0233 1,-0.008 2,-0.0173 3,-0.027 1,-0.01 2,-0.02 3,-0.0312 1,-0.0111 2,-0.0231 3,-0.0358 1,-0.0128 2,-0.0265 3,-0.0412 1,-0.0147 2,-0.0304 3,-0.0473 1,-0.0169 2,-0.0349 3,-0.0542 1,-0.0193 2,-0.0399 3,-0.0619 1,-0.022 2,-0.0455 3,-0.0705 1,-0.0251 2,-0.0518 3,-0.0802 1,-0.0285 2,-0.0588 3,-0.0911 1,-0.0323 2,-0.0666 3,-0.10315 1,-0.0366 2,-0.0753 3,-0.11658 1,-0.0413 2,-0.085 3,-0.13148 1,-0.0465 2,-0.0957 3,-0.14795 1,-0.0523 2,-0.10753 3,-0.16615 1,-0.0586 2,-0.12055 3,-0.18615 1,-0.0656 2,-0.13486 3,-0.20812 1,-0.0733 2,-0.15053 3,-0.23217 1,-0.0816 2,-0.16765 3,-0.25843 1,-0.0908 2,-0.18631 3,-0.28702 1,-0.10071 2,-0.2066 3,-0.31808 1,-0.11149 2,-0.22857 3,-0.35171 1,-0.12314 2,-0.25232 3,-0.38802 1,-0.13571 2,-0.27792 3,-0.42714 1,-0.1492 2,-0.30541 3,-0.46911 1,-0.16369 2,-0.33488 3,-0.51406 1,-0.17918 2,-0.36636 3,-0.56204 1,-0.19569 2,-0.39987 3,-0.61309 1,-0.21321 2,-0.43545 3,-0.66723 1,-0.23178 2,-0.4731 3,-0.72448 1,-0.25138 2,-0.51281 3,-0.78481 1,-0.27199 2,-0.55455 3,-0.84816 1,-0.29361 2,-0.59828 3,-0.91447 1,-0.3162 2,-0.64393 3,-0.98364 1,-0.33971 2,-0.6914 3,-1.05549 1,-0.36409 2,-0.74058 3,-1.12986 1,-0.38927 2,-0.79134 3,-1.20652 1,-0.41519 2,-0.84351 3,-1.28524 1,-0.44173 2,-0.89688 3,-1.36568 1,-0.4688 2,-0.95125 3,-1.44754 1,-0.49627 2,-1.00638 3,-1.53041 1,-0.52402 2,-1.06198 3,-1.61388 1,-0.5519 2,-1.11777 3,-1.69752 1,-0.57975 2,-1.17339 3,-1.78077 1,-0.6074 2,-1.22853 3,-1.86318 1,-0.63464 2,-1.28278 3,-1.94409 1,-0.66132 2,-1.3358 3,-2.02299 1,-0.6872 2,-1.38712 3,-2.0992 1,-0.71209 2,-1.43634 3,-2.1721 1,-0.73576 2,-1.48302 3,-2.24101 1,-0.758 2,-1.52673 3,-2.30529 1,-0.77858 2,-1.56699 3,-2.36424 1,-0.79726 2,-1.60335 3,-2.41718 1,-0.81382 2,-1.63537 3,-2.46344 1,-0.82807 2,-1.66264 3,-2.50239 1,-0.83975 2,-1.68468 3,-2.53337 1,-0.84869 2,-1.70112 3,-2.5558 1,-0.85468 2,-1.71158 3,-2.56911 1,-0.85754 2,-1.71569 3,-2.57279 1,-0.8571 2,-1.71314 3,-2.56636 1,-0.85323 2,-1.70364 3,-2.54944 1,-0.84579 2,-1.68696 3,-2.52165 1,-0.8347 2,-1.66292 3,-2.48278 1,-0.81986 2,-1.63136 3,-2.43259 1,-0.80124 2,-1.5922 3,-2.37101 1,-0.77879 2,-1.54543 3,-2.298 1,-0.75256 2,-1.49106 3,-2.21364 1,-0.72257 2,-1.42921 3,-2.11809 1,-0.6889 2,-1.36003 3,-2.01164 1,-0.65161 2,-1.2837 3,-1.89458 1,-0.61088 2,-1.20054 3,-1.76739 1,-0.56685 2,-1.11089 3,-1.63061 1,-0.51972 2,-1.01512 3,-1.48483 1,-0.4697 2,-0.91371 3,-1.33077 1,-0.41706 2,-0.80716 3,-1.16921 1,-0.36204 2,-0.69603 3,-1.00099 1,-0.30496 2,-0.58091 3,-0.82703 1,-0.24612 2,-0.46243 3,-0.64829 1,-0.18585 2,-0.34127 3,-0.46578 1,-0.12452 2,-0.21813 3,-0.28057 1,-0.0625 2,-0.0937 3,-0.0937 1,0 2,0.0312 3,0.0937 1,0.0624 2,0.15605 3,0.28057 1,0.12451 2,0.27992 3,0.46578 1,0.18585 2,0.40216 3,0.64828 1,0.24613 2,0.52207 3,0.82703 1,0.30497 2,0.63895 3,1.001 1,0.36204 2,0.75215 3,1.16921 1,0.41705 2,0.86106 3,1.33077 1,0.46971 2,0.96511 3,1.48483 1,0.51972 2,1.06375 3,1.63061 1,0.56684 2,1.15651 3,1.76739 1,0.61088 2,1.24297 3,1.89458 1,0.65161 2,1.32274 3,2.01163 1,0.68888 2,1.39553 3,2.1181 1,0.72257 2,1.46108 3,2.21364 1,0.75257 2,1.5192 3,2.298 1,0.7788 2,1.56977 3,2.37101 1,0.80123 2,1.61273 3,2.43259 1,0.81986 2,1.64808 3,2.48277 1,0.8347 2,1.67587 3,2.52166 1,0.84579 2,1.6962 3,2.54943 1,0.85323 2,1.70927 3,2.56636 1,0.8571 2,1.71526 3,2.57279 1,0.85754 2,1.71444 3,2.56912 1,0.85467 2,1.70711 3,2.5558 1,0.84869 2,1.69362 3,2.53337 1,0.83975 2,1.67432 3,2.50239 1,0.82806 2,1.64962 3,2.46344 1,0.81383 2,1.61992 3,2.41717 1,0.79726 2,1.58567 3,2.36424 1,0.77857 2,1.5473 3,2.30529 1,0.758 2,1.50526 3,2.24102 1,0.73576 2,1.46001 3,2.1721 1,0.71208 2,1.412 3,2.0992 1,0.68719 2,1.36167 3,2.02298 1,0.66132 2,1.30946 3,1.9441 1,0.63465 2,1.25578 3,1.86317 1,0.60739 2,1.20103 3,1.78078 1,0.57975 2,1.14561 3,1.69752 1,0.5519 2,1.08986 3,1.61388 1,0.52403 2,1.03413 3,1.53041 1,0.49628 2,0.97874 3,1.44754 1,0.4688 2,0.92395 3,1.36568 1,0.44173 2,0.87005 3,1.28523 1,0.41519 2,0.81726 3,1.20653 1,0.38928 2,0.76577 3,1.12986 1,0.36409 2,0.71578 3,1.05549 1,0.33971 2,0.66743 3,0.98363 1,0.3162 2,0.62087 3,0.91448 1,0.29361 2,0.57617 3,0.84816 1,0.27199 2,0.53343 3,0.78481 1,0.25138 2,0.4927 3,0.72447 1,0.23179 2,0.45402 3,0.66724 1,0.21321 2,0.4174 3,0.61308 1,0.19569 2,0.38286 3,0.56204 1,0.17918 2,0.35037 3,0.51407 1,0.16369 2,0.3199 3,0.46911 1,0.14922 2,0.29143 3,0.42713 1,0.1357 2,0.26489 3,0.38803 1,0.12313 2,0.24022 3,0.3517 1,0.11149 2,0.21737 3,0.31808 1,0.10071 2,0.19625 3,0.28703 1,0.0908 2,0.17679 3,0.25843 1,0.0816 2,0.1589 3,0.23217 1,0.0733 2,0.14252 3,0.20812 1,0.0656 2,0.12754 3,0.18615 1,0.0586 2,0.11389 3,0.16614 1,0.0523 2,0.10148 3,0.14796 1,0.0465 2,0.0902 3,0.13148 1,0.0412 2,0.08 3,0.11658 1,0.0366 2,0.0709 3,0.10315 1,0.0323 2,0.0626 3,0.0911 1,0.0285 2,0.0552 3,0.0802 1,0.025 2,0.0485 3,0.0705 1,0.022 2,0.0426 3,0.0619 1,0.0193 2,0.0373 3,0.0542 1,0.0168 2,0.0326 3,0.0473 1,0.0147 2,0.0284 3,0.0412 1,0.0128 2,0.0247 3,0.0358 1,0.0111 2,0.0215 3,0.0312 1,0.01 2,0.0186 3,0.0269 1,0.008 2,0.0161 3,0.0233 1,0.007 2,0.0139 3,0.0201 1,0.006 2,0.0119 3,0.0173 1,0.005 2,0.0103 3,0.0149 1,0.005 2,0.009 3,0.0127 1,0.004 2,0.008 3,0.0109 1,0.004 2,0.006 3,0.009 1,0.003 2,0.005 3,0.008 1,0.003 2,0.005 3,0.007 1,0.002 2,0.004 3,0.006 1,10e-4 2,0.003 3,0.005 1,10e-4 2,0.003 3,0.004 1,10e-4 2,0.002 3,0.003 1,10e-4 2,0.002 3,0.003 1,10e-4 2,10e-4 3,0.002 1,5e-4 2,0.002 3,0.002 1,5e-4 2,10e-4 3,10e-4 1,5e-4 2,10e-4 3,10e-4 1,4.3e-4 2,10e-4 3,10e-4 1,3.6e-4 2,5e-4 3,10e-4 1,3e-4 2,5e-4 3,0.001 1,2.5e-4 2,4.7e-4 3,5e-4 1,2e-4 2,3.9e-4 3,5e-4 1,1.7e-4 2,3.2e-4 3,4.6e-4 1,1.4e-4 2,2.6e-4 3,3.7e-4 1,1.2e-4 2,2.2e-4 3,3.1e-4 1,10e-5 2,1.8e-4 3,2.6e-4 1,7e-5 2,1.4e-4 3,2e-4 1,7e-5 2,1.2e-4 3,1.7e-4 1,5e-5 2,10e-5 3,1.4e-4 1,4e-5 2,8e-5 3,1.1e-4 1,4e-5 2,7e-5 3,9e-5 1,3e-5 2,6e-5 3,8e-5 1,2e-5 2,4e-5 3,6e-5 1,10e-6 2,3e-5 3,4e-5 1,2e-5 2,3e-5 3,4e-5 1,10e-6 2,2e-5 3,3e-5 1,10e-6 2,2e-5 3,3e-5 1,10e-6 2,10e-6 3,2e-5 1,0 2,1e-5 3,1e-5 1,10e-6 2,10e-6 3,2e-5 1,0 2,0 3,10e-6 1,0 2,0 3,0 1,10e-6 2,10e-6 3,10e-6 1,0 2,0 3,0 1,1e-5 2,1e-5 3,1e-5 1,0 2,0 3,0"
       style="color:#000000;clip-rule:nonzero;display:inline;overflow:visible;visibility:visible;opacity:1;isolation:auto;mix-blend-mode:normal;color-interpolation:sRGB;color-interpolation-filters:linearRGB;solid-color:#000000;solid-opacity:1;fill:#984ea3;fill-opacity:0.49803922;fill-rule:evenodd;stroke:none;stroke-width:3;stroke-linecap:round;stroke-linejoin:miter;stroke-miterlimit:4;stroke-dasharray:none;stroke-dashoffset:0;stroke-opacity:1;color-rendering:auto;image-rendering:auto;shape-rendering:auto;text-rendering:auto;enable-background:accumulate" />
    <g
       id="g6014"
       transform="matrix(0.58287382,1.0095671,-1.0095671,0.5828738,308.53229,368.1475)"
       style="fill:#ffffff;fill-opacity:1">
      <g
         word-spacing="normal"
         letter-spacing="normal"
         font-size-adjust="none"
         font-stretch="normal"
         font-weight="normal"
         font-variant="normal"
         font-style="normal"
         stroke-miterlimit="10.433"
         xml:space="preserve"
         transform="matrix(0.73142857,0,0,-0.73142857,-128,384)"
         id="g6016"
         style="font-style:normal;font-variant:normal;font-weight:normal;font-stretch:normal;letter-spacing:normal;word-spacing:normal;text-anchor:start;fill:#ffffff;fill-opacity:1;fill-rule:evenodd;stroke:#000000;stroke-width:1.33333337;stroke-linecap:butt;stroke-linejoin:miter;stroke-miterlimit:10.43299961;stroke-dasharray:none;stroke-dashoffset:0;stroke-opacity:1"><path
           id="path6018"
           d="m 478.52,427.47 v 0.02 l -0.01,0.02 v 0.02 0.02 l -0.01,0.02 v 0.02 l -0.01,0.02 v 0.02 l -0.01,0.02 -0.01,0.02 -0.01,0.02 -0.01,0.02 -0.01,0.03 -0.01,0.02 -0.02,0.01 -0.01,0.02 -0.02,0.02 -0.01,0.02 -0.02,0.02 -0.02,0.01 -0.02,0.02 -0.02,0.01 -0.02,0.02 -0.03,0.01 -0.02,0.01 -0.03,0.01 -0.02,0.01 -0.03,0.01 h -0.03 l -0.03,0.01 h -0.03 -0.02 -0.01 c -0.55,0 -2.54,-1.99 -3.39,-3.44 -1.09,2.69 -3.04,3.49 -4.63,3.49 v -1.1 c 3.23,0 3.93,-4.03 3.93,-4.38 0,-0.3 -2.74,-11.21 -2.89,-11.41 -0.74,-1.4 -3.53,-4.58 -6.32,-4.58 v 0 c -2.99,0 -3.19,3.83 -3.19,4.68 0,2.39 1.44,7.82 2.29,9.91 1.54,3.69 4.14,5.78 6.18,5.78 v 1.1 c -5.88,0 -12.01,-7.38 -12.01,-14.6 0,-4.88 2.94,-7.97 6.58,-7.97 2.14,0 4.08,1.2 5.88,2.99 -0.45,-1.74 -2.09,-8.47 -2.25,-8.92 -0.4,-1.39 -0.79,-1.59 -3.58,-1.64 -0.65,0 -1.15,0 -1.15,-1 0,-0.04 0,-0.54 0.65,-0.54 h 10.11 c 0.25,0 0.9,0 0.9,0.99 0,0.55 -0.5,0.55 -1.3,0.55 -2.39,0 -2.39,0.35 -2.39,0.8 0,0.35 0.1,0.64 0.2,1.09 z"
           inkscape:connector-curvature="0"
           style="fill:#ffffff;fill-opacity:1;stroke-width:0" /><path
           id="path6020"
           d="m 527.22,422.29 h 0.14 0.15 l 0.15,0.01 h 0.07 0.07 l 0.07,0.01 0.08,0.01 0.07,0.01 0.07,0.01 0.06,0.02 0.07,0.01 0.07,0.02 0.06,0.02 0.06,0.03 0.06,0.03 0.05,0.03 0.06,0.03 0.05,0.04 0.04,0.04 0.05,0.05 0.03,0.05 0.02,0.03 0.02,0.02 0.02,0.03 0.01,0.03 0.02,0.03 0.01,0.04 0.01,0.03 0.01,0.04 0.01,0.03 0.01,0.04 0.01,0.04 v 0.04 l 0.01,0.04 v 0.04 0.05 0.05 c 0,0.99 -0.94,0.99 -1.64,0.99 h -29.84 c -0.7,0 -1.64,0 -1.64,-0.99 0,-1 0.94,-1 1.69,-1 z"
           inkscape:connector-curvature="0"
           style="fill:#ffffff;fill-opacity:1;stroke-width:0" /><path
           id="path6022"
           d="m 527.27,412.62 0.13,0.01 h 0.14 0.14 l 0.07,0.01 h 0.07 l 0.07,0.01 0.07,0.01 0.07,0.01 0.07,0.01 0.06,0.01 0.07,0.02 0.06,0.02 0.06,0.02 0.06,0.02 0.06,0.03 0.06,0.03 0.05,0.04 0.05,0.04 0.04,0.04 0.05,0.04 0.02,0.03 0.02,0.03 0.01,0.02 0.02,0.03 0.02,0.03 0.01,0.03 0.02,0.03 0.01,0.03 0.01,0.04 0.01,0.03 0.01,0.04 0.01,0.04 0.01,0.04 v 0.04 l 0.01,0.04 v 0.04 0.05 0.04 c 0,1 -0.94,1 -1.69,1 h -29.74 c -0.75,0 -1.69,0 -1.69,-1 0,-1 0.94,-1 1.64,-1 z"
           inkscape:connector-curvature="0"
           style="fill:#ffffff;fill-opacity:1;stroke-width:0" /><path
           id="path6024"
           d="m 560.65,437.88 v 0.05 l -0.01,0.06 v 0.05 0.05 0.05 0.05 0.04 0.05 0.04 0.04 0.04 0.04 0.04 l -0.01,0.04 v 0.03 0.04 l -0.01,0.03 v 0.03 l -0.01,0.06 -0.01,0.05 -0.02,0.05 -0.01,0.05 -0.02,0.04 -0.02,0.04 -0.03,0.04 -0.03,0.03 -0.03,0.02 -0.03,0.03 -0.04,0.02 -0.05,0.02 -0.02,0.01 -0.03,0.01 h -0.02 l -0.03,0.01 -0.03,0.01 h -0.03 l -0.03,0.01 h -0.03 l -0.03,0.01 h -0.04 -0.04 -0.03 l -0.04,0.01 h -0.04 -0.04 -0.05 -0.04 -0.05 l -0.05,0.01 h -0.05 -0.05 -0.05 c -3.09,-3.19 -7.47,-3.19 -9.07,-3.19 v -1.55 c 1,0 3.94,0 6.53,1.3 v -25.81 c 0,-1.79 -0.15,-2.39 -4.63,-2.39 h -1.6 V 406 h 16.14 v 1.54 h -1.59 c -4.49,0 -4.63,0.55 -4.63,2.39 z"
           inkscape:connector-curvature="0"
           style="fill:#ffffff;fill-opacity:1;stroke-width:0" /></g>    </g>
  </g>
</svg>
