<?xml version="1.0" encoding="UTF-8" standalone="no"?>
<!-- Created with Inkscape (http://www.inkscape.org/) -->

<svg
   xmlns:dc="http://purl.org/dc/elements/1.1/"
   xmlns:cc="http://creativecommons.org/ns#"
   xmlns:rdf="http://www.w3.org/1999/02/22-rdf-syntax-ns#"
   xmlns:svg="http://www.w3.org/2000/svg"
   xmlns="http://www.w3.org/2000/svg"
   xmlns:sodipodi="http://sodipodi.sourceforge.net/DTD/sodipodi-0.dtd"
   xmlns:inkscape="http://www.inkscape.org/namespaces/inkscape"
   width="367.14285"
   height="338.85715"
   viewBox="0 0 367.14286 338.85715"
   id="svg2"
   version="1.1"
   inkscape:version="0.91 r13725"
   sodipodi:docname="number-hierarchy-coupling.svg">
  <sodipodi:namedview
     id="base"
     pagecolor="#3e3e3e"
     bordercolor="#666666"
     borderopacity="1.0"
     inkscape:pageopacity="0"
     inkscape:pageshadow="2"
     inkscape:zoom="1.4"
     inkscape:cx="236.53993"
     inkscape:cy="209.96144"
     inkscape:document-units="px"
     inkscape:current-layer="layer1"
     showgrid="false"
     units="px"
     inkscape:window-width="1918"
     inkscape:window-height="1078"
     inkscape:window-x="1920"
     inkscape:window-y="0"
     inkscape:window-maximized="0"
     fit-margin-top="42"
     fit-margin-left="42"
     fit-margin-right="42"
     fit-margin-bottom="42">
    <inkscape:grid
       empopacity="0.1254902"
       empcolor="#7b7bff"
       opacity="0.1254902"
       color="#7b7bff"
       empspacing="4"
       id="grid4136"
       type="xygrid"
       originx="-102.51435"
       originy="-179.40024" />
  </sodipodi:namedview>
  <defs
     id="defs4" />
  <metadata
     id="metadata7">
    <rdf:RDF>
      <cc:Work
         rdf:about="">
        <dc:format>image/svg+xml</dc:format>
        <dc:type
           rdf:resource="http://purl.org/dc/dcmitype/StillImage" />
        <dc:title></dc:title>
      </cc:Work>
    </rdf:RDF>
  </metadata>
  <g
     transform="translate(0.5,-714.005)"
     id="layer1"
     inkscape:groupmode="layer"
     inkscape:label="Layer 1">
    <rect
       rx="14.285714"
       ry="14.285714"
       y="937.005"
       x="42.5"
       height="72.857155"
       width="93.14286"
       id="rect4245-1"
       style="color:#000000;clip-rule:nonzero;display:inline;overflow:visible;visibility:visible;opacity:1;isolation:auto;mix-blend-mode:normal;color-interpolation:sRGB;color-interpolation-filters:linearRGB;solid-color:#000000;solid-opacity:1;fill:#000000;fill-opacity:0.24705882;fill-rule:evenodd;stroke:#ffffff;stroke-width:2;stroke-linecap:butt;stroke-linejoin:miter;stroke-miterlimit:4;stroke-dasharray:none;stroke-dashoffset:0;stroke-opacity:1;color-rendering:auto;image-rendering:auto;shape-rendering:auto;text-rendering:auto;enable-background:accumulate" />
    <rect
       rx="14.285714"
       ry="14.285714"
       y="757.005"
       x="42.5"
       height="72.857155"
       width="93.14286"
       id="rect4245"
       style="color:#000000;clip-rule:nonzero;display:inline;overflow:visible;visibility:visible;opacity:1;isolation:auto;mix-blend-mode:normal;color-interpolation:sRGB;color-interpolation-filters:linearRGB;solid-color:#000000;solid-opacity:1;fill:#000000;fill-opacity:0.24705882;fill-rule:evenodd;stroke:#ffffff;stroke-width:2;stroke-linecap:butt;stroke-linejoin:miter;stroke-miterlimit:4;stroke-dasharray:none;stroke-dashoffset:0;stroke-opacity:1;color-rendering:auto;image-rendering:auto;shape-rendering:auto;text-rendering:auto;enable-background:accumulate" />
    <rect
       rx="14.285714"
       ry="14.285714"
       y="937.005"
       x="230.5"
       height="72.857155"
       width="93.14286"
       id="rect4245-6"
       style="color:#000000;clip-rule:nonzero;display:inline;overflow:visible;visibility:visible;opacity:1;isolation:auto;mix-blend-mode:normal;color-interpolation:sRGB;color-interpolation-filters:linearRGB;solid-color:#000000;solid-opacity:1;fill:#000000;fill-opacity:0.24705882;fill-rule:evenodd;stroke:#ffffff;stroke-width:2;stroke-linecap:butt;stroke-linejoin:miter;stroke-miterlimit:4;stroke-dasharray:none;stroke-dashoffset:0;stroke-opacity:1;color-rendering:auto;image-rendering:auto;shape-rendering:auto;text-rendering:auto;enable-background:accumulate" />
    <rect
       rx="14.285714"
       ry="14.285714"
       y="757.005"
       x="230.5"
       height="72.857155"
       width="93.14286"
       id="rect4245-7"
       style="color:#000000;clip-rule:nonzero;display:inline;overflow:visible;visibility:visible;opacity:1;isolation:auto;mix-blend-mode:normal;color-interpolation:sRGB;color-interpolation-filters:linearRGB;solid-color:#000000;solid-opacity:1;fill:#000000;fill-opacity:0.24705882;fill-rule:evenodd;stroke:#ffffff;stroke-width:2;stroke-linecap:butt;stroke-linejoin:miter;stroke-miterlimit:4;stroke-dasharray:none;stroke-dashoffset:0;stroke-opacity:1;color-rendering:auto;image-rendering:auto;shape-rendering:auto;text-rendering:auto;enable-background:accumulate" />
    <g
       id="g4144"
       transform="translate(-155.21429,894.07143)"
       style="fill:#ffffff;fill-opacity:1">
      <g
         word-spacing="normal"
         letter-spacing="normal"
         font-size-adjust="none"
         font-stretch="normal"
         font-weight="normal"
         font-variant="normal"
         font-style="normal"
         stroke-miterlimit="10.433"
         xml:space="preserve"
         transform="matrix(0.73142857,0,0,-0.73142857,-128,384)"
         id="content"
         style="font-style:normal;font-variant:normal;font-weight:normal;font-stretch:normal;letter-spacing:normal;word-spacing:normal;text-anchor:start;fill:#ffffff;fill-opacity:1;fill-rule:evenodd;stroke:#000000;stroke-linecap:butt;stroke-linejoin:miter;stroke-miterlimit:10.43299961;stroke-dasharray:none;stroke-dashoffset:0;stroke-opacity:1"><path
           id="path4147"
           d="m 457.64,395.38 0,-0.02 -0.01,-0.03 0,-0.03 -0.01,-0.02 -0.01,-0.03 0,-0.02 -0.01,-0.03 0,-0.02 -0.01,-0.02 0,-0.02 -0.01,-0.02 0,-0.02 -0.01,-0.02 0,-0.02 -0.01,-0.04 -0.01,-0.03 -0.01,-0.04 0,-0.03 -0.01,-0.03 0,-0.02 -0.01,-0.03 0,-0.02 -0.01,-0.02 0,-0.02 0,-0.02 0,-0.02 -0.01,-0.02 0,-0.01 0,-0.02 0,-0.01 0,-0.01 0,-0.01 0,-0.02 0,-0.02 0,-0.02 0,-0.01 c 0,-0.75 0.54,-1.35 1.39,-1.35 1.04,0 1.64,0.9 1.74,1.05 0.25,0.44 1.85,7.12 3.19,12.5 1,-1.99 2.59,-3.34 4.93,-3.34 l -0.05,1.1 c -3.49,0 -4.28,3.98 -4.28,4.43 0,0.2 0.25,1.2 0.4,1.84 1.39,5.58 1.89,7.38 2.98,9.37 2.15,3.63 4.64,4.73 6.18,4.73 1.84,0 3.44,-1.44 3.44,-4.88 0,-2.74 -1.44,-8.32 -2.79,-10.76 -1.65,-3.14 -4.04,-4.73 -5.93,-4.73 l 0,0 0.05,-1.1 c 5.83,0 12.26,7.03 12.26,14.45 0,5.28 -3.29,8.12 -6.93,8.12 -4.83,0 -10.06,-4.98 -11.55,-11.06 z"
           inkscape:connector-curvature="0"
           style="fill:#ffffff;fill-opacity:1;stroke-width:0" /><path
           id="path4149"
           d="m 493.38,456.15 -0.61,-0.44 -0.58,-0.46 -0.55,-0.48 -0.52,-0.49 -0.5,-0.5 -0.47,-0.51 -0.45,-0.52 -0.42,-0.54 -0.4,-0.54 -0.38,-0.55 -0.35,-0.56 -0.33,-0.56 -0.31,-0.57 -0.29,-0.57 -0.26,-0.58 -0.25,-0.58 -0.23,-0.58 -0.2,-0.58 -0.19,-0.59 -0.18,-0.58 -0.15,-0.58 -0.14,-0.58 -0.12,-0.57 -0.11,-0.58 -0.1,-0.56 -0.07,-0.56 -0.07,-0.55 -0.05,-0.55 -0.04,-0.54 -0.03,-0.52 -0.01,-0.52 -0.01,-0.51 c 0,-4.91 1.46,-12.55 8.37,-17.43 0.28,0 0.69,0 0.69,0.41 0,0.22 -0.1,0.29 -0.34,0.53 -4.64,4.18 -6.35,10.11 -6.35,16.46 0,9.41 3.59,14.01 6.45,16.6 0.14,0.13 0.24,0.24 0.24,0.41 0,0.42 -0.41,0.42 -0.69,0.42 z"
           inkscape:connector-curvature="0"
           style="fill:#ffffff;fill-opacity:1;stroke-width:0" /><path
           id="path4151"
           d="m 514.99,441.12 0,0.71 -0.02,0.68 -0.03,0.66 -0.04,0.64 -0.06,0.62 -0.08,0.59 -0.09,0.58 -0.11,0.56 -0.12,0.55 -0.15,0.53 -0.17,0.51 -0.19,0.5 -0.21,0.49 -0.24,0.48 -0.26,0.47 -0.14,0.24 -0.15,0.23 c -1.07,1.6 -3.24,2.99 -6.03,2.99 l 0,-0.97 c 1.89,0 3.7,-1.15 4.33,-3.18 0.56,-1.88 0.59,-4.39 0.59,-7.42 0,-2.58 0,-5.17 -0.45,-7.36 -0.7,-3.17 -3.07,-3.94 -4.47,-3.94 l 0,0 c -1.6,0 -3.73,0.94 -4.43,3.8 -0.49,2.06 -0.49,4.92 -0.49,7.5 0,2.54 0,5.19 0.53,7.11 0.73,2.76 2.96,3.49 4.39,3.49 l 0,0.97 c -8.09,0 -8.09,-9.52 -8.09,-12.03 0,-2.51 0,-11.82 8.09,-11.82 8.09,0 8.09,9.31 8.09,11.82 z"
           inkscape:connector-curvature="0"
           style="fill:#ffffff;fill-opacity:1;stroke-width:0" /><path
           id="path4153"
           d="m 524.35,430.56 0,-0.36 -0.01,-0.37 -0.03,-0.38 -0.05,-0.38 -0.02,-0.2 -0.04,-0.19 -0.04,-0.2 -0.04,-0.19 -0.05,-0.2 -0.05,-0.2 -0.07,-0.2 -0.06,-0.2 -0.08,-0.21 -0.08,-0.2 -0.09,-0.2 -0.1,-0.21 -0.11,-0.2 -0.11,-0.21 -0.13,-0.21 -0.13,-0.2 -0.14,-0.21 -0.15,-0.21 -0.16,-0.21 -0.18,-0.21 -0.18,-0.21 -0.19,-0.21 -0.21,-0.2 -0.21,-0.21 c -0.14,-0.14 -0.24,-0.25 -0.24,-0.42 0,-0.24 0.27,-0.49 0.48,-0.49 0.49,0 3.45,2.79 3.45,6.94 0,2.16 -0.83,3.8 -2.43,3.8 -1.16,0 -1.99,-0.91 -1.99,-1.99 0,-1.11 0.8,-2.02 2.02,-2.02 0.84,0 1.39,0.56 1.42,0.56 z"
           inkscape:connector-curvature="0"
           style="fill:#ffffff;fill-opacity:1;stroke-width:0" /><path
           id="path4155"
           d="m 546.99,441.12 0,0.71 -0.02,0.68 -0.03,0.66 -0.04,0.64 -0.06,0.62 -0.08,0.59 -0.09,0.58 -0.11,0.56 -0.12,0.55 -0.15,0.53 -0.17,0.51 -0.19,0.5 -0.21,0.49 -0.24,0.48 -0.26,0.47 -0.14,0.24 -0.15,0.23 c -1.08,1.6 -3.24,2.99 -6.03,2.99 l 0,-0.97 c 1.88,0 3.7,-1.15 4.33,-3.18 0.55,-1.88 0.59,-4.39 0.59,-7.42 0,-2.58 0,-5.17 -0.45,-7.36 -0.7,-3.17 -3.07,-3.94 -4.47,-3.94 l 0,0 c -1.6,0 -3.73,0.94 -4.43,3.8 -0.49,2.06 -0.49,4.92 -0.49,7.5 0,2.54 0,5.19 0.53,7.11 0.73,2.76 2.96,3.49 4.39,3.49 l 0,0.97 c -8.09,0 -8.09,-9.52 -8.09,-12.03 0,-2.51 0,-11.82 8.09,-11.82 8.09,0 8.09,9.31 8.09,11.82 z"
           inkscape:connector-curvature="0"
           style="fill:#ffffff;fill-opacity:1;stroke-width:0" /><path
           id="path4157"
           d="m 551.14,456.15 -0.03,0 -0.02,0 -0.03,0 -0.02,0 -0.03,0 -0.02,0 -0.03,0 -0.03,0 -0.03,-0.01 -0.02,0 -0.03,0 -0.03,-0.01 -0.03,-0.01 -0.02,0 -0.03,-0.01 -0.02,-0.01 -0.03,-0.01 -0.02,-0.01 -0.03,-0.02 -0.02,-0.01 -0.02,-0.02 -0.02,-0.01 -0.02,-0.02 -0.01,-0.01 0,-0.01 -0.01,-0.02 -0.01,-0.01 -0.01,-0.01 0,-0.01 -0.01,-0.02 0,-0.01 -0.01,-0.01 0,-0.02 -0.01,-0.01 0,-0.02 -0.01,-0.02 0,-0.01 0,-0.02 0,-0.02 0,-0.02 0,-0.02 c 0,-0.17 0.1,-0.28 0.31,-0.52 3,-2.75 6.35,-7.46 6.35,-16.46 0,-7.29 -2.27,-12.79 -6.04,-16.21 -0.59,-0.59 -0.62,-0.63 -0.62,-0.81 0,-0.17 0.1,-0.41 0.45,-0.41 0.42,0 3.73,2.3 6.03,6.66 1.54,2.89 2.55,6.66 2.55,10.74 0,4.91 -1.47,12.55 -8.37,17.43 z"
           inkscape:connector-curvature="0"
           style="fill:#ffffff;fill-opacity:1;stroke-width:0" /><path
           id="path4159"
           d="m 489.58,400.77 3.55,0 c 0.67,0 1.12,0 1.12,0.77 0,0.49 -0.45,0.49 -1.05,0.49 l -3.31,0 1.29,5.16 c 0.03,0.17 0.11,0.35 0.11,0.49 0,0.62 -0.49,1.11 -1.19,1.11 -0.87,0 -1.39,-0.59 -1.64,-1.5 -0.24,-0.87 0.21,0.81 -1.32,-5.26 l -3.56,0 c -0.66,0 -1.12,0 -1.12,-0.77 0,-0.49 0.42,-0.49 1.05,-0.49 l 3.31,0 -2.05,-8.23 c -0.21,-0.87 -0.53,-2.12 -0.53,-2.58 0,-2.05 1.74,-3.31 3.73,-3.31 3.87,0 6.07,4.88 6.07,5.33 0,0.46 -0.45,0.46 -0.56,0.46 -0.41,0 -0.45,-0.07 -0.73,-0.66 -0.98,-2.2 -2.75,-4.15 -4.67,-4.15 -0.73,0 -1.22,0.45 -1.22,1.71 0,0.34 0.14,1.08 0.21,1.43 z"
           inkscape:connector-curvature="0"
           style="fill:#ffffff;fill-opacity:1;stroke-width:0" /><path
           id="path4161"
           d="m 502.77,411.79 0,0.05 0,0.05 0,0.06 -0.01,0.05 0,0.11 0,0.06 -0.01,0.06 0,0.05 -0.01,0.06 -0.01,0.06 -0.01,0.05 -0.01,0.06 -0.01,0.05 -0.02,0.06 -0.02,0.05 -0.02,0.05 -0.02,0.05 -0.03,0.05 -0.03,0.04 -0.03,0.04 -0.04,0.04 -0.03,0.04 -0.03,0.02 -0.02,0.01 -0.02,0.02 -0.02,0.01 -0.03,0.02 -0.02,0.01 -0.03,0.01 -0.03,0.02 -0.02,0.01 -0.03,0.01 -0.03,0 -0.04,0.01 -0.03,0.01 -0.03,0 -0.04,0.01 -0.03,0 -0.04,0 -0.04,0 c -0.88,0 -0.88,-0.8 -0.88,-1.36 l 0,-32.15 c 0,-0.52 0,-1.36 0.84,-1.36 0.88,0 0.88,0.81 0.88,1.36 z"
           inkscape:connector-curvature="0"
           style="fill:#ffffff;fill-opacity:1;stroke-width:0" /><path
           id="path4163"
           d="m 529.97,398.82 0.18,0.06 0.2,0.06 0.2,0.07 0.22,0.08 0.22,0.08 0.22,0.09 0.23,0.1 0.24,0.1 0.23,0.11 0.24,0.12 0.24,0.12 0.24,0.13 0.24,0.14 0.24,0.15 0.23,0.15 0.23,0.17 0.22,0.17 0.21,0.18 0.21,0.18 0.2,0.2 0.19,0.21 0.17,0.21 0.17,0.22 0.15,0.23 0.14,0.25 0.13,0.25 0.1,0.26 0.09,0.27 0.08,0.28 0.05,0.29 0.03,0.3 0.01,0.16 0,0.15 c 0,3.77 -4.53,6.56 -11.44,6.56 l -14.29,0 0,-1.95 3.73,0 0,-20.02 -3.73,0 0,-1.95 12.48,0 0,1.95 -3.73,0 0,9.21 0,1.6 0,9.21 5.19,0 c 5.62,0 6.11,-2.34 6.11,-4.61 0,-2.19 -0.45,-4.6 -6.24,-4.6 l 0,0 -5.06,0 0,-1.6 4.85,0 c 0.66,0 2.13,0 3.56,-1.15 1.25,-0.98 1.25,-1.81 1.25,-4.33 0,-2.79 0,-6.1 8.05,-6.1 4.15,0 4.71,3.1 4.71,3.87 0,0.87 -0.63,0.87 -1.12,0.87 -0.49,0 -1.01,0 -1.07,-0.8 -0.18,-1.88 -1.4,-2.33 -2.17,-2.33 -2.27,0 -2.58,2.26 -2.93,4.98 -0.35,2.34 -0.62,4.43 -3.9,5.65 z"
           inkscape:connector-curvature="0"
           style="fill:#ffffff;fill-opacity:1;stroke-width:0" /></g>    </g>
    <g
       id="g4197"
       transform="translate(-155.21428,714.0714)"
       style="fill:#ffffff;fill-opacity:1">
      <g
         id="g4199"
         transform="matrix(0.73142857,0,0,-0.73142857,-128,384)"
         xml:space="preserve"
         stroke-miterlimit="10.433"
         font-style="normal"
         font-variant="normal"
         font-weight="normal"
         font-stretch="normal"
         font-size-adjust="none"
         letter-spacing="normal"
         word-spacing="normal"
         style="font-style:normal;font-variant:normal;font-weight:normal;font-stretch:normal;letter-spacing:normal;word-spacing:normal;text-anchor:start;fill:#ffffff;fill-opacity:1;fill-rule:evenodd;stroke:#000000;stroke-linecap:butt;stroke-linejoin:miter;stroke-miterlimit:10.43299961;stroke-dasharray:none;stroke-dashoffset:0;stroke-opacity:1"><path
           d="m 457.64,395.38 0,-0.02 -0.01,-0.03 0,-0.03 -0.01,-0.02 -0.01,-0.03 0,-0.02 -0.01,-0.03 0,-0.02 -0.01,-0.02 0,-0.02 -0.01,-0.02 0,-0.02 -0.01,-0.02 0,-0.02 -0.01,-0.04 -0.01,-0.03 -0.01,-0.04 0,-0.03 -0.01,-0.03 0,-0.02 -0.01,-0.03 0,-0.02 -0.01,-0.02 0,-0.02 0,-0.02 0,-0.02 -0.01,-0.02 0,-0.01 0,-0.02 0,-0.01 0,-0.01 0,-0.01 0,-0.02 0,-0.02 0,-0.02 0,-0.01 c 0,-0.75 0.54,-1.35 1.39,-1.35 1.04,0 1.64,0.9 1.74,1.05 0.25,0.44 1.85,7.12 3.19,12.5 1,-1.99 2.59,-3.34 4.93,-3.34 l -0.05,1.1 c -3.49,0 -4.28,3.98 -4.28,4.43 0,0.2 0.25,1.2 0.4,1.84 1.39,5.58 1.89,7.38 2.98,9.37 2.15,3.63 4.64,4.73 6.18,4.73 1.84,0 3.44,-1.44 3.44,-4.88 0,-2.74 -1.44,-8.32 -2.79,-10.76 -1.65,-3.14 -4.04,-4.73 -5.93,-4.73 l 0,0 0.05,-1.1 c 5.83,0 12.26,7.03 12.26,14.45 0,5.28 -3.29,8.12 -6.93,8.12 -4.83,0 -10.06,-4.98 -11.55,-11.06 z"
           id="path4201"
           inkscape:connector-curvature="0"
           style="fill:#ffffff;fill-opacity:1;stroke-width:0" /><path
           d="m 493.38,456.15 -0.61,-0.44 -0.58,-0.46 -0.55,-0.48 -0.52,-0.49 -0.5,-0.5 -0.47,-0.51 -0.45,-0.52 -0.42,-0.54 -0.4,-0.54 -0.38,-0.55 -0.35,-0.56 -0.33,-0.56 -0.31,-0.57 -0.29,-0.57 -0.26,-0.58 -0.25,-0.58 -0.23,-0.58 -0.2,-0.58 -0.19,-0.59 -0.18,-0.58 -0.15,-0.58 -0.14,-0.58 -0.12,-0.57 -0.11,-0.58 -0.1,-0.56 -0.07,-0.56 -0.07,-0.55 -0.05,-0.55 -0.04,-0.54 -0.03,-0.52 -0.01,-0.52 -0.01,-0.51 c 0,-4.91 1.46,-12.55 8.37,-17.43 0.28,0 0.69,0 0.69,0.41 0,0.22 -0.1,0.29 -0.34,0.53 -4.64,4.18 -6.35,10.11 -6.35,16.46 0,9.41 3.59,14.01 6.45,16.6 0.14,0.13 0.24,0.24 0.24,0.41 0,0.42 -0.41,0.42 -0.69,0.42 z"
           id="path4203"
           inkscape:connector-curvature="0"
           style="fill:#ffffff;fill-opacity:1;stroke-width:0" /><path
           d="m 508.68,452.18 0,0.04 0,0.04 0,0.04 0,0.04 0,0.04 0,0.04 0,0.03 0,0.04 -0.01,0.03 0,0.03 0,0.04 0,0.03 -0.01,0.02 0,0.03 0,0.03 -0.01,0.03 0,0.02 0,0.02 -0.02,0.05 -0.01,0.04 -0.01,0.04 -0.02,0.03 -0.02,0.03 -0.02,0.03 -0.03,0.03 -0.02,0.02 -0.03,0.02 -0.04,0.02 -0.03,0.01 -0.04,0.01 -0.05,0.02 -0.05,0 -0.02,0.01 -0.03,0 -0.03,0.01 -0.02,0 -0.03,0 -0.03,0 -0.04,0 -0.03,0.01 -0.03,0 -0.04,0 -0.03,0 -0.04,0 -0.04,0 -0.04,0 -0.04,0 -0.04,0 -0.05,0 -0.04,0 c -2.24,-2.19 -5.41,-2.23 -6.84,-2.23 l 0,-1.25 c 0.84,0 3.14,0 5.06,0.97 l 0,-17.78 c 0,-1.15 0,-1.61 -3.49,-1.61 l -1.33,0 0,-1.25 12.45,0 0,1.25 -1.32,0 c -3.49,0 -3.49,0.46 -3.49,1.61 z"
           id="path4205"
           inkscape:connector-curvature="0"
           style="fill:#ffffff;fill-opacity:1;stroke-width:0" /><path
           d="m 524.35,430.56 0,-0.36 -0.01,-0.37 -0.03,-0.38 -0.05,-0.38 -0.02,-0.2 -0.04,-0.19 -0.04,-0.2 -0.04,-0.19 -0.05,-0.2 -0.05,-0.2 -0.07,-0.2 -0.06,-0.2 -0.08,-0.21 -0.08,-0.2 -0.09,-0.2 -0.1,-0.21 -0.11,-0.2 -0.11,-0.21 -0.13,-0.21 -0.13,-0.2 -0.14,-0.21 -0.15,-0.21 -0.16,-0.21 -0.18,-0.21 -0.18,-0.21 -0.19,-0.21 -0.21,-0.2 -0.21,-0.21 c -0.14,-0.14 -0.24,-0.25 -0.24,-0.42 0,-0.24 0.27,-0.49 0.48,-0.49 0.49,0 3.45,2.79 3.45,6.94 0,2.16 -0.83,3.8 -2.43,3.8 -1.16,0 -1.99,-0.91 -1.99,-1.99 0,-1.11 0.8,-2.02 2.02,-2.02 0.84,0 1.39,0.56 1.42,0.56 z"
           id="path4207"
           inkscape:connector-curvature="0"
           style="fill:#ffffff;fill-opacity:1;stroke-width:0" /><path
           d="m 546.99,441.12 0,0.71 -0.02,0.68 -0.03,0.66 -0.04,0.64 -0.06,0.62 -0.08,0.59 -0.09,0.58 -0.11,0.56 -0.12,0.55 -0.15,0.53 -0.17,0.51 -0.19,0.5 -0.21,0.49 -0.24,0.48 -0.26,0.47 -0.14,0.24 -0.15,0.23 c -1.08,1.6 -3.24,2.99 -6.03,2.99 l 0,-0.97 c 1.88,0 3.7,-1.15 4.33,-3.18 0.55,-1.88 0.59,-4.39 0.59,-7.42 0,-2.58 0,-5.17 -0.45,-7.36 -0.7,-3.17 -3.07,-3.94 -4.47,-3.94 l 0,0 c -1.6,0 -3.73,0.94 -4.43,3.8 -0.49,2.06 -0.49,4.92 -0.49,7.5 0,2.54 0,5.19 0.53,7.11 0.73,2.76 2.96,3.49 4.39,3.49 l 0,0.97 c -8.09,0 -8.09,-9.52 -8.09,-12.03 0,-2.51 0,-11.82 8.09,-11.82 8.09,0 8.09,9.31 8.09,11.82 z"
           id="path4209"
           inkscape:connector-curvature="0"
           style="fill:#ffffff;fill-opacity:1;stroke-width:0" /><path
           d="m 551.14,456.15 -0.03,0 -0.02,0 -0.03,0 -0.02,0 -0.03,0 -0.02,0 -0.03,0 -0.03,0 -0.03,-0.01 -0.02,0 -0.03,0 -0.03,-0.01 -0.03,-0.01 -0.02,0 -0.03,-0.01 -0.02,-0.01 -0.03,-0.01 -0.02,-0.01 -0.03,-0.02 -0.02,-0.01 -0.02,-0.02 -0.02,-0.01 -0.02,-0.02 -0.01,-0.01 0,-0.01 -0.01,-0.02 -0.01,-0.01 -0.01,-0.01 0,-0.01 -0.01,-0.02 0,-0.01 -0.01,-0.01 0,-0.02 -0.01,-0.01 0,-0.02 -0.01,-0.02 0,-0.01 0,-0.02 0,-0.02 0,-0.02 0,-0.02 c 0,-0.17 0.1,-0.28 0.31,-0.52 3,-2.75 6.35,-7.46 6.35,-16.46 0,-7.29 -2.27,-12.79 -6.04,-16.21 -0.59,-0.59 -0.62,-0.63 -0.62,-0.81 0,-0.17 0.1,-0.41 0.45,-0.41 0.42,0 3.73,2.3 6.03,6.66 1.54,2.89 2.55,6.66 2.55,10.74 0,4.91 -1.47,12.55 -8.37,17.43 z"
           id="path4211"
           inkscape:connector-curvature="0"
           style="fill:#ffffff;fill-opacity:1;stroke-width:0" /><path
           d="m 489.58,400.77 3.55,0 c 0.67,0 1.12,0 1.12,0.77 0,0.49 -0.45,0.49 -1.05,0.49 l -3.31,0 1.29,5.16 c 0.03,0.17 0.11,0.35 0.11,0.49 0,0.62 -0.49,1.11 -1.19,1.11 -0.87,0 -1.39,-0.59 -1.64,-1.5 -0.24,-0.87 0.21,0.81 -1.32,-5.26 l -3.56,0 c -0.66,0 -1.12,0 -1.12,-0.77 0,-0.49 0.42,-0.49 1.05,-0.49 l 3.31,0 -2.05,-8.23 c -0.21,-0.87 -0.53,-2.12 -0.53,-2.58 0,-2.05 1.74,-3.31 3.73,-3.31 3.87,0 6.07,4.88 6.07,5.33 0,0.46 -0.45,0.46 -0.56,0.46 -0.41,0 -0.45,-0.07 -0.73,-0.66 -0.98,-2.2 -2.75,-4.15 -4.67,-4.15 -0.73,0 -1.22,0.45 -1.22,1.71 0,0.34 0.14,1.08 0.21,1.43 z"
           id="path4213"
           inkscape:connector-curvature="0"
           style="fill:#ffffff;fill-opacity:1;stroke-width:0" /><path
           d="m 502.77,411.79 0,0.05 0,0.05 0,0.06 -0.01,0.05 0,0.11 0,0.06 -0.01,0.06 0,0.05 -0.01,0.06 -0.01,0.06 -0.01,0.05 -0.01,0.06 -0.01,0.05 -0.02,0.06 -0.02,0.05 -0.02,0.05 -0.02,0.05 -0.03,0.05 -0.03,0.04 -0.03,0.04 -0.04,0.04 -0.03,0.04 -0.03,0.02 -0.02,0.01 -0.02,0.02 -0.02,0.01 -0.03,0.02 -0.02,0.01 -0.03,0.01 -0.03,0.02 -0.02,0.01 -0.03,0.01 -0.03,0 -0.04,0.01 -0.03,0.01 -0.03,0 -0.04,0.01 -0.03,0 -0.04,0 -0.04,0 c -0.88,0 -0.88,-0.8 -0.88,-1.36 l 0,-32.15 c 0,-0.52 0,-1.36 0.84,-1.36 0.88,0 0.88,0.81 0.88,1.36 z"
           id="path4215"
           inkscape:connector-curvature="0"
           style="fill:#ffffff;fill-opacity:1;stroke-width:0" /><path
           d="m 529.97,398.82 0.18,0.06 0.2,0.06 0.2,0.07 0.22,0.08 0.22,0.08 0.22,0.09 0.23,0.1 0.24,0.1 0.23,0.11 0.24,0.12 0.24,0.12 0.24,0.13 0.24,0.14 0.24,0.15 0.23,0.15 0.23,0.17 0.22,0.17 0.21,0.18 0.21,0.18 0.2,0.2 0.19,0.21 0.17,0.21 0.17,0.22 0.15,0.23 0.14,0.25 0.13,0.25 0.1,0.26 0.09,0.27 0.08,0.28 0.05,0.29 0.03,0.3 0.01,0.16 0,0.15 c 0,3.77 -4.53,6.56 -11.44,6.56 l -14.29,0 0,-1.95 3.73,0 0,-20.02 -3.73,0 0,-1.95 12.48,0 0,1.95 -3.73,0 0,9.21 0,1.6 0,9.21 5.19,0 c 5.62,0 6.11,-2.34 6.11,-4.61 0,-2.19 -0.45,-4.6 -6.24,-4.6 l 0,0 -5.06,0 0,-1.6 4.85,0 c 0.66,0 2.13,0 3.56,-1.15 1.25,-0.98 1.25,-1.81 1.25,-4.33 0,-2.79 0,-6.1 8.05,-6.1 4.15,0 4.71,3.1 4.71,3.87 0,0.87 -0.63,0.87 -1.12,0.87 -0.49,0 -1.01,0 -1.07,-0.8 -0.18,-1.88 -1.4,-2.33 -2.17,-2.33 -2.27,0 -2.58,2.26 -2.93,4.98 -0.35,2.34 -0.62,4.43 -3.9,5.65 z"
           id="path4217"
           inkscape:connector-curvature="0"
           style="fill:#ffffff;fill-opacity:1;stroke-width:0" /></g>    </g>
    <g
       id="g4457"
       transform="translate(32.78571,894.07145)"
       style="fill:#ffffff;fill-opacity:1">
      <g
         id="g4459"
         transform="matrix(0.73142857,0,0,-0.73142857,-128,384)"
         xml:space="preserve"
         stroke-miterlimit="10.433"
         font-style="normal"
         font-variant="normal"
         font-weight="normal"
         font-stretch="normal"
         font-size-adjust="none"
         letter-spacing="normal"
         word-spacing="normal"
         style="font-style:normal;font-variant:normal;font-weight:normal;font-stretch:normal;letter-spacing:normal;word-spacing:normal;text-anchor:start;fill:#ffffff;fill-opacity:1;fill-rule:evenodd;stroke:#000000;stroke-linecap:butt;stroke-linejoin:miter;stroke-miterlimit:10.43299961;stroke-dasharray:none;stroke-dashoffset:0;stroke-opacity:1"><path
           d="m 457.64,395.38 0,-0.02 -0.01,-0.03 0,-0.03 -0.01,-0.02 -0.01,-0.03 0,-0.02 -0.01,-0.03 0,-0.02 -0.01,-0.02 0,-0.02 -0.01,-0.02 0,-0.02 -0.01,-0.02 0,-0.02 -0.01,-0.04 -0.01,-0.03 -0.01,-0.04 0,-0.03 -0.01,-0.03 0,-0.02 -0.01,-0.03 0,-0.02 -0.01,-0.02 0,-0.02 0,-0.02 0,-0.02 -0.01,-0.02 0,-0.01 0,-0.02 0,-0.01 0,-0.01 0,-0.01 0,-0.02 0,-0.02 0,-0.02 0,-0.01 c 0,-0.75 0.54,-1.35 1.39,-1.35 1.04,0 1.64,0.9 1.74,1.05 0.25,0.44 1.85,7.12 3.19,12.5 1,-1.99 2.59,-3.34 4.93,-3.34 l -0.05,1.1 c -3.49,0 -4.28,3.98 -4.28,4.43 0,0.2 0.25,1.2 0.4,1.84 1.39,5.58 1.89,7.38 2.98,9.37 2.15,3.63 4.64,4.73 6.18,4.73 1.84,0 3.44,-1.44 3.44,-4.88 0,-2.74 -1.44,-8.32 -2.79,-10.76 -1.65,-3.14 -4.04,-4.73 -5.93,-4.73 l 0,0 0.05,-1.1 c 5.83,0 12.26,7.03 12.26,14.45 0,5.28 -3.29,8.12 -6.93,8.12 -4.83,0 -10.06,-4.98 -11.55,-11.06 z"
           id="path4461"
           inkscape:connector-curvature="0"
           style="fill:#ffffff;fill-opacity:1;stroke-width:0" /><path
           d="m 493.38,456.15 -0.61,-0.44 -0.58,-0.46 -0.55,-0.48 -0.52,-0.49 -0.5,-0.5 -0.47,-0.51 -0.45,-0.52 -0.42,-0.54 -0.4,-0.54 -0.38,-0.55 -0.35,-0.56 -0.33,-0.56 -0.31,-0.57 -0.29,-0.57 -0.26,-0.58 -0.25,-0.58 -0.23,-0.58 -0.2,-0.58 -0.19,-0.59 -0.18,-0.58 -0.15,-0.58 -0.14,-0.58 -0.12,-0.57 -0.11,-0.58 -0.1,-0.56 -0.07,-0.56 -0.07,-0.55 -0.05,-0.55 -0.04,-0.54 -0.03,-0.52 -0.01,-0.52 -0.01,-0.51 c 0,-4.91 1.46,-12.55 8.37,-17.43 0.28,0 0.69,0 0.69,0.41 0,0.22 -0.1,0.29 -0.34,0.53 -4.64,4.18 -6.35,10.11 -6.35,16.46 0,9.41 3.59,14.01 6.45,16.6 0.14,0.13 0.24,0.24 0.24,0.41 0,0.42 -0.41,0.42 -0.69,0.42 z"
           id="path4463"
           inkscape:connector-curvature="0"
           style="fill:#ffffff;fill-opacity:1;stroke-width:0" /><path
           d="m 514.99,441.12 0,0.71 -0.02,0.68 -0.03,0.66 -0.04,0.64 -0.06,0.62 -0.08,0.59 -0.09,0.58 -0.11,0.56 -0.12,0.55 -0.15,0.53 -0.17,0.51 -0.19,0.5 -0.21,0.49 -0.24,0.48 -0.26,0.47 -0.14,0.24 -0.15,0.23 c -1.07,1.6 -3.24,2.99 -6.03,2.99 l 0,-0.97 c 1.89,0 3.7,-1.15 4.33,-3.18 0.56,-1.88 0.59,-4.39 0.59,-7.42 0,-2.58 0,-5.17 -0.45,-7.36 -0.7,-3.17 -3.07,-3.94 -4.47,-3.94 l 0,0 c -1.6,0 -3.73,0.94 -4.43,3.8 -0.49,2.06 -0.49,4.92 -0.49,7.5 0,2.54 0,5.19 0.53,7.11 0.73,2.76 2.96,3.49 4.39,3.49 l 0,0.97 c -8.09,0 -8.09,-9.52 -8.09,-12.03 0,-2.51 0,-11.82 8.09,-11.82 8.09,0 8.09,9.31 8.09,11.82 z"
           id="path4465"
           inkscape:connector-curvature="0"
           style="fill:#ffffff;fill-opacity:1;stroke-width:0" /><path
           d="m 524.35,430.56 0,-0.36 -0.01,-0.37 -0.03,-0.38 -0.05,-0.38 -0.02,-0.2 -0.04,-0.19 -0.04,-0.2 -0.04,-0.19 -0.05,-0.2 -0.05,-0.2 -0.07,-0.2 -0.06,-0.2 -0.08,-0.21 -0.08,-0.2 -0.09,-0.2 -0.1,-0.21 -0.11,-0.2 -0.11,-0.21 -0.13,-0.21 -0.13,-0.2 -0.14,-0.21 -0.15,-0.21 -0.16,-0.21 -0.18,-0.21 -0.18,-0.21 -0.19,-0.21 -0.21,-0.2 -0.21,-0.21 c -0.14,-0.14 -0.24,-0.25 -0.24,-0.42 0,-0.24 0.27,-0.49 0.48,-0.49 0.49,0 3.45,2.79 3.45,6.94 0,2.16 -0.83,3.8 -2.43,3.8 -1.16,0 -1.99,-0.91 -1.99,-1.99 0,-1.11 0.8,-2.02 2.02,-2.02 0.84,0 1.39,0.56 1.42,0.56 z"
           id="path4467"
           inkscape:connector-curvature="0"
           style="fill:#ffffff;fill-opacity:1;stroke-width:0" /><path
           d="m 540.68,452.18 0,0.04 0,0.04 0,0.04 0,0.04 0,0.04 0,0.04 0,0.03 0,0.04 -0.01,0.03 0,0.03 0,0.04 0,0.03 -0.01,0.02 0,0.03 0,0.03 -0.01,0.03 0,0.02 0,0.02 -0.02,0.05 -0.01,0.04 -0.01,0.04 -0.02,0.03 -0.02,0.03 -0.02,0.03 -0.03,0.03 -0.02,0.02 -0.03,0.02 -0.04,0.02 -0.03,0.01 -0.04,0.01 -0.05,0.02 -0.05,0 -0.02,0.01 -0.03,0 -0.03,0.01 -0.02,0 -0.03,0 -0.03,0 -0.04,0 -0.03,0.01 -0.03,0 -0.04,0 -0.03,0 -0.04,0 -0.04,0 -0.04,0 -0.04,0 -0.04,0 -0.05,0 -0.04,0 c -2.24,-2.19 -5.41,-2.23 -6.84,-2.23 l 0,-1.25 c 0.84,0 3.14,0 5.05,0.97 l 0,-17.78 c 0,-1.15 0,-1.61 -3.48,-1.61 l -1.33,0 0,-1.25 12.45,0 0,1.25 -1.32,0 c -3.49,0 -3.49,0.46 -3.49,1.61 z"
           id="path4469"
           inkscape:connector-curvature="0"
           style="fill:#ffffff;fill-opacity:1;stroke-width:0" /><path
           d="m 551.14,456.15 -0.03,0 -0.02,0 -0.03,0 -0.02,0 -0.03,0 -0.02,0 -0.03,0 -0.03,0 -0.03,-0.01 -0.02,0 -0.03,0 -0.03,-0.01 -0.03,-0.01 -0.02,0 -0.03,-0.01 -0.02,-0.01 -0.03,-0.01 -0.02,-0.01 -0.03,-0.02 -0.02,-0.01 -0.02,-0.02 -0.02,-0.01 -0.02,-0.02 -0.01,-0.01 0,-0.01 -0.01,-0.02 -0.01,-0.01 -0.01,-0.01 0,-0.01 -0.01,-0.02 0,-0.01 -0.01,-0.01 0,-0.02 -0.01,-0.01 0,-0.02 -0.01,-0.02 0,-0.01 0,-0.02 0,-0.02 0,-0.02 0,-0.02 c 0,-0.17 0.1,-0.28 0.31,-0.52 3,-2.75 6.35,-7.46 6.35,-16.46 0,-7.29 -2.27,-12.79 -6.04,-16.21 -0.59,-0.59 -0.62,-0.63 -0.62,-0.81 0,-0.17 0.1,-0.41 0.45,-0.41 0.42,0 3.73,2.3 6.03,6.66 1.54,2.89 2.55,6.66 2.55,10.74 0,4.91 -1.47,12.55 -8.37,17.43 z"
           id="path4471"
           inkscape:connector-curvature="0"
           style="fill:#ffffff;fill-opacity:1;stroke-width:0" /><path
           d="m 489.58,400.77 3.55,0 c 0.67,0 1.12,0 1.12,0.77 0,0.49 -0.45,0.49 -1.05,0.49 l -3.31,0 1.29,5.16 c 0.03,0.17 0.11,0.35 0.11,0.49 0,0.62 -0.49,1.11 -1.19,1.11 -0.87,0 -1.39,-0.59 -1.64,-1.5 -0.24,-0.87 0.21,0.81 -1.32,-5.26 l -3.56,0 c -0.66,0 -1.12,0 -1.12,-0.77 0,-0.49 0.42,-0.49 1.05,-0.49 l 3.31,0 -2.05,-8.23 c -0.21,-0.87 -0.53,-2.12 -0.53,-2.58 0,-2.05 1.74,-3.31 3.73,-3.31 3.87,0 6.07,4.88 6.07,5.33 0,0.46 -0.45,0.46 -0.56,0.46 -0.41,0 -0.45,-0.07 -0.73,-0.66 -0.98,-2.2 -2.75,-4.15 -4.67,-4.15 -0.73,0 -1.22,0.45 -1.22,1.71 0,0.34 0.14,1.08 0.21,1.43 z"
           id="path4473"
           inkscape:connector-curvature="0"
           style="fill:#ffffff;fill-opacity:1;stroke-width:0" /><path
           d="m 502.77,411.79 0,0.05 0,0.05 0,0.06 -0.01,0.05 0,0.11 0,0.06 -0.01,0.06 0,0.05 -0.01,0.06 -0.01,0.06 -0.01,0.05 -0.01,0.06 -0.01,0.05 -0.02,0.06 -0.02,0.05 -0.02,0.05 -0.02,0.05 -0.03,0.05 -0.03,0.04 -0.03,0.04 -0.04,0.04 -0.03,0.04 -0.03,0.02 -0.02,0.01 -0.02,0.02 -0.02,0.01 -0.03,0.02 -0.02,0.01 -0.03,0.01 -0.03,0.02 -0.02,0.01 -0.03,0.01 -0.03,0 -0.04,0.01 -0.03,0.01 -0.03,0 -0.04,0.01 -0.03,0 -0.04,0 -0.04,0 c -0.88,0 -0.88,-0.8 -0.88,-1.36 l 0,-32.15 c 0,-0.52 0,-1.36 0.84,-1.36 0.88,0 0.88,0.81 0.88,1.36 z"
           id="path4475"
           inkscape:connector-curvature="0"
           style="fill:#ffffff;fill-opacity:1;stroke-width:0" /><path
           d="m 529.97,398.82 0.18,0.06 0.2,0.06 0.2,0.07 0.22,0.08 0.22,0.08 0.22,0.09 0.23,0.1 0.24,0.1 0.23,0.11 0.24,0.12 0.24,0.12 0.24,0.13 0.24,0.14 0.24,0.15 0.23,0.15 0.23,0.17 0.22,0.17 0.21,0.18 0.21,0.18 0.2,0.2 0.19,0.21 0.17,0.21 0.17,0.22 0.15,0.23 0.14,0.25 0.13,0.25 0.1,0.26 0.09,0.27 0.08,0.28 0.05,0.29 0.03,0.3 0.01,0.16 0,0.15 c 0,3.77 -4.53,6.56 -11.44,6.56 l -14.29,0 0,-1.95 3.73,0 0,-20.02 -3.73,0 0,-1.95 12.48,0 0,1.95 -3.73,0 0,9.21 0,1.6 0,9.21 5.19,0 c 5.62,0 6.11,-2.34 6.11,-4.61 0,-2.19 -0.45,-4.6 -6.24,-4.6 l 0,0 -5.06,0 0,-1.6 4.85,0 c 0.66,0 2.13,0 3.56,-1.15 1.25,-0.98 1.25,-1.81 1.25,-4.33 0,-2.79 0,-6.1 8.05,-6.1 4.15,0 4.71,3.1 4.71,3.87 0,0.87 -0.63,0.87 -1.12,0.87 -0.49,0 -1.01,0 -1.07,-0.8 -0.18,-1.88 -1.4,-2.33 -2.17,-2.33 -2.27,0 -2.58,2.26 -2.93,4.98 -0.35,2.34 -0.62,4.43 -3.9,5.65 z"
           id="path4477"
           inkscape:connector-curvature="0"
           style="fill:#ffffff;fill-opacity:1;stroke-width:0" /></g>    </g>
    <g
       id="g4595"
       transform="translate(32.78571,714.07145)"
       style="fill:#ffffff;fill-opacity:1">
      <g
         word-spacing="normal"
         letter-spacing="normal"
         font-size-adjust="none"
         font-stretch="normal"
         font-weight="normal"
         font-variant="normal"
         font-style="normal"
         stroke-miterlimit="10.433"
         xml:space="preserve"
         transform="matrix(0.73142857,0,0,-0.73142857,-128,384)"
         id="g4597"
         style="font-style:normal;font-variant:normal;font-weight:normal;font-stretch:normal;letter-spacing:normal;word-spacing:normal;text-anchor:start;fill:#ffffff;fill-opacity:1;fill-rule:evenodd;stroke:#000000;stroke-linecap:butt;stroke-linejoin:miter;stroke-miterlimit:10.43299961;stroke-dasharray:none;stroke-dashoffset:0;stroke-opacity:1"><path
           id="path4599"
           d="m 457.64,395.38 0,-0.02 -0.01,-0.03 0,-0.03 -0.01,-0.02 -0.01,-0.03 0,-0.02 -0.01,-0.03 0,-0.02 -0.01,-0.02 0,-0.02 -0.01,-0.02 0,-0.02 -0.01,-0.02 0,-0.02 -0.01,-0.04 -0.01,-0.03 -0.01,-0.04 0,-0.03 -0.01,-0.03 0,-0.02 -0.01,-0.03 0,-0.02 -0.01,-0.02 0,-0.02 0,-0.02 0,-0.02 -0.01,-0.02 0,-0.01 0,-0.02 0,-0.01 0,-0.01 0,-0.01 0,-0.02 0,-0.02 0,-0.02 0,-0.01 c 0,-0.75 0.54,-1.35 1.39,-1.35 1.04,0 1.64,0.9 1.74,1.05 0.25,0.44 1.85,7.12 3.19,12.5 1,-1.99 2.59,-3.34 4.93,-3.34 l -0.05,1.1 c -3.49,0 -4.28,3.98 -4.28,4.43 0,0.2 0.25,1.2 0.4,1.84 1.39,5.58 1.89,7.38 2.98,9.37 2.15,3.63 4.64,4.73 6.18,4.73 1.84,0 3.44,-1.44 3.44,-4.88 0,-2.74 -1.44,-8.32 -2.79,-10.76 -1.65,-3.14 -4.04,-4.73 -5.93,-4.73 l 0,0 0.05,-1.1 c 5.83,0 12.26,7.03 12.26,14.45 0,5.28 -3.29,8.12 -6.93,8.12 -4.83,0 -10.06,-4.98 -11.55,-11.06 z"
           inkscape:connector-curvature="0"
           style="fill:#ffffff;fill-opacity:1;stroke-width:0" /><path
           id="path4601"
           d="m 493.38,456.15 -0.61,-0.44 -0.58,-0.46 -0.55,-0.48 -0.52,-0.49 -0.5,-0.5 -0.47,-0.51 -0.45,-0.52 -0.42,-0.54 -0.4,-0.54 -0.38,-0.55 -0.35,-0.56 -0.33,-0.56 -0.31,-0.57 -0.29,-0.57 -0.26,-0.58 -0.25,-0.58 -0.23,-0.58 -0.2,-0.58 -0.19,-0.59 -0.18,-0.58 -0.15,-0.58 -0.14,-0.58 -0.12,-0.57 -0.11,-0.58 -0.1,-0.56 -0.07,-0.56 -0.07,-0.55 -0.05,-0.55 -0.04,-0.54 -0.03,-0.52 -0.01,-0.52 -0.01,-0.51 c 0,-4.91 1.46,-12.55 8.37,-17.43 0.28,0 0.69,0 0.69,0.41 0,0.22 -0.1,0.29 -0.34,0.53 -4.64,4.18 -6.35,10.11 -6.35,16.46 0,9.41 3.59,14.01 6.45,16.6 0.14,0.13 0.24,0.24 0.24,0.41 0,0.42 -0.41,0.42 -0.69,0.42 z"
           inkscape:connector-curvature="0"
           style="fill:#ffffff;fill-opacity:1;stroke-width:0" /><path
           id="path4603"
           d="m 508.68,452.18 0,0.04 0,0.04 0,0.04 0,0.04 0,0.04 0,0.04 0,0.03 0,0.04 -0.01,0.03 0,0.03 0,0.04 0,0.03 -0.01,0.02 0,0.03 0,0.03 -0.01,0.03 0,0.02 0,0.02 -0.02,0.05 -0.01,0.04 -0.01,0.04 -0.02,0.03 -0.02,0.03 -0.02,0.03 -0.03,0.03 -0.02,0.02 -0.03,0.02 -0.04,0.02 -0.03,0.01 -0.04,0.01 -0.05,0.02 -0.05,0 -0.02,0.01 -0.03,0 -0.03,0.01 -0.02,0 -0.03,0 -0.03,0 -0.04,0 -0.03,0.01 -0.03,0 -0.04,0 -0.03,0 -0.04,0 -0.04,0 -0.04,0 -0.04,0 -0.04,0 -0.05,0 -0.04,0 c -2.24,-2.19 -5.41,-2.23 -6.84,-2.23 l 0,-1.25 c 0.84,0 3.14,0 5.06,0.97 l 0,-17.78 c 0,-1.15 0,-1.61 -3.49,-1.61 l -1.33,0 0,-1.25 12.45,0 0,1.25 -1.32,0 c -3.49,0 -3.49,0.46 -3.49,1.61 z"
           inkscape:connector-curvature="0"
           style="fill:#ffffff;fill-opacity:1;stroke-width:0" /><path
           id="path4605"
           d="m 524.35,430.56 0,-0.36 -0.01,-0.37 -0.03,-0.38 -0.05,-0.38 -0.02,-0.2 -0.04,-0.19 -0.04,-0.2 -0.04,-0.19 -0.05,-0.2 -0.05,-0.2 -0.07,-0.2 -0.06,-0.2 -0.08,-0.21 -0.08,-0.2 -0.09,-0.2 -0.1,-0.21 -0.11,-0.2 -0.11,-0.21 -0.13,-0.21 -0.13,-0.2 -0.14,-0.21 -0.15,-0.21 -0.16,-0.21 -0.18,-0.21 -0.18,-0.21 -0.19,-0.21 -0.21,-0.2 -0.21,-0.21 c -0.14,-0.14 -0.24,-0.25 -0.24,-0.42 0,-0.24 0.27,-0.49 0.48,-0.49 0.49,0 3.45,2.79 3.45,6.94 0,2.16 -0.83,3.8 -2.43,3.8 -1.16,0 -1.99,-0.91 -1.99,-1.99 0,-1.11 0.8,-2.02 2.02,-2.02 0.84,0 1.39,0.56 1.42,0.56 z"
           inkscape:connector-curvature="0"
           style="fill:#ffffff;fill-opacity:1;stroke-width:0" /><path
           id="path4607"
           d="m 540.68,452.18 0,0.04 0,0.04 0,0.04 0,0.04 0,0.04 0,0.04 0,0.03 0,0.04 -0.01,0.03 0,0.03 0,0.04 0,0.03 -0.01,0.02 0,0.03 0,0.03 -0.01,0.03 0,0.02 0,0.02 -0.02,0.05 -0.01,0.04 -0.01,0.04 -0.02,0.03 -0.02,0.03 -0.02,0.03 -0.03,0.03 -0.02,0.02 -0.03,0.02 -0.04,0.02 -0.03,0.01 -0.04,0.01 -0.05,0.02 -0.05,0 -0.02,0.01 -0.03,0 -0.03,0.01 -0.02,0 -0.03,0 -0.03,0 -0.04,0 -0.03,0.01 -0.03,0 -0.04,0 -0.03,0 -0.04,0 -0.04,0 -0.04,0 -0.04,0 -0.04,0 -0.05,0 -0.04,0 c -2.24,-2.19 -5.41,-2.23 -6.84,-2.23 l 0,-1.25 c 0.84,0 3.14,0 5.05,0.97 l 0,-17.78 c 0,-1.15 0,-1.61 -3.48,-1.61 l -1.33,0 0,-1.25 12.45,0 0,1.25 -1.32,0 c -3.49,0 -3.49,0.46 -3.49,1.61 z"
           inkscape:connector-curvature="0"
           style="fill:#ffffff;fill-opacity:1;stroke-width:0" /><path
           id="path4609"
           d="m 551.14,456.15 -0.03,0 -0.02,0 -0.03,0 -0.02,0 -0.03,0 -0.02,0 -0.03,0 -0.03,0 -0.03,-0.01 -0.02,0 -0.03,0 -0.03,-0.01 -0.03,-0.01 -0.02,0 -0.03,-0.01 -0.02,-0.01 -0.03,-0.01 -0.02,-0.01 -0.03,-0.02 -0.02,-0.01 -0.02,-0.02 -0.02,-0.01 -0.02,-0.02 -0.01,-0.01 0,-0.01 -0.01,-0.02 -0.01,-0.01 -0.01,-0.01 0,-0.01 -0.01,-0.02 0,-0.01 -0.01,-0.01 0,-0.02 -0.01,-0.01 0,-0.02 -0.01,-0.02 0,-0.01 0,-0.02 0,-0.02 0,-0.02 0,-0.02 c 0,-0.17 0.1,-0.28 0.31,-0.52 3,-2.75 6.35,-7.46 6.35,-16.46 0,-7.29 -2.27,-12.79 -6.04,-16.21 -0.59,-0.59 -0.62,-0.63 -0.62,-0.81 0,-0.17 0.1,-0.41 0.45,-0.41 0.42,0 3.73,2.3 6.03,6.66 1.54,2.89 2.55,6.66 2.55,10.74 0,4.91 -1.47,12.55 -8.37,17.43 z"
           inkscape:connector-curvature="0"
           style="fill:#ffffff;fill-opacity:1;stroke-width:0" /><path
           id="path4611"
           d="m 489.58,400.77 3.55,0 c 0.67,0 1.12,0 1.12,0.77 0,0.49 -0.45,0.49 -1.05,0.49 l -3.31,0 1.29,5.16 c 0.03,0.17 0.11,0.35 0.11,0.49 0,0.62 -0.49,1.11 -1.19,1.11 -0.87,0 -1.39,-0.59 -1.64,-1.5 -0.24,-0.87 0.21,0.81 -1.32,-5.26 l -3.56,0 c -0.66,0 -1.12,0 -1.12,-0.77 0,-0.49 0.42,-0.49 1.05,-0.49 l 3.31,0 -2.05,-8.23 c -0.21,-0.87 -0.53,-2.12 -0.53,-2.58 0,-2.05 1.74,-3.31 3.73,-3.31 3.87,0 6.07,4.88 6.07,5.33 0,0.46 -0.45,0.46 -0.56,0.46 -0.41,0 -0.45,-0.07 -0.73,-0.66 -0.98,-2.2 -2.75,-4.15 -4.67,-4.15 -0.73,0 -1.22,0.45 -1.22,1.71 0,0.34 0.14,1.08 0.21,1.43 z"
           inkscape:connector-curvature="0"
           style="fill:#ffffff;fill-opacity:1;stroke-width:0" /><path
           id="path4613"
           d="m 502.77,411.79 0,0.05 0,0.05 0,0.06 -0.01,0.05 0,0.11 0,0.06 -0.01,0.06 0,0.05 -0.01,0.06 -0.01,0.06 -0.01,0.05 -0.01,0.06 -0.01,0.05 -0.02,0.06 -0.02,0.05 -0.02,0.05 -0.02,0.05 -0.03,0.05 -0.03,0.04 -0.03,0.04 -0.04,0.04 -0.03,0.04 -0.03,0.02 -0.02,0.01 -0.02,0.02 -0.02,0.01 -0.03,0.02 -0.02,0.01 -0.03,0.01 -0.03,0.02 -0.02,0.01 -0.03,0.01 -0.03,0 -0.04,0.01 -0.03,0.01 -0.03,0 -0.04,0.01 -0.03,0 -0.04,0 -0.04,0 c -0.88,0 -0.88,-0.8 -0.88,-1.36 l 0,-32.15 c 0,-0.52 0,-1.36 0.84,-1.36 0.88,0 0.88,0.81 0.88,1.36 z"
           inkscape:connector-curvature="0"
           style="fill:#ffffff;fill-opacity:1;stroke-width:0" /><path
           id="path4615"
           d="m 529.97,398.82 0.18,0.06 0.2,0.06 0.2,0.07 0.22,0.08 0.22,0.08 0.22,0.09 0.23,0.1 0.24,0.1 0.23,0.11 0.24,0.12 0.24,0.12 0.24,0.13 0.24,0.14 0.24,0.15 0.23,0.15 0.23,0.17 0.22,0.17 0.21,0.18 0.21,0.18 0.2,0.2 0.19,0.21 0.17,0.21 0.17,0.22 0.15,0.23 0.14,0.25 0.13,0.25 0.1,0.26 0.09,0.27 0.08,0.28 0.05,0.29 0.03,0.3 0.01,0.16 0,0.15 c 0,3.77 -4.53,6.56 -11.44,6.56 l -14.29,0 0,-1.95 3.73,0 0,-20.02 -3.73,0 0,-1.95 12.48,0 0,1.95 -3.73,0 0,9.21 0,1.6 0,9.21 5.19,0 c 5.62,0 6.11,-2.34 6.11,-4.61 0,-2.19 -0.45,-4.6 -6.24,-4.6 l 0,0 -5.06,0 0,-1.6 4.85,0 c 0.66,0 2.13,0 3.56,-1.15 1.25,-0.98 1.25,-1.81 1.25,-4.33 0,-2.79 0,-6.1 8.05,-6.1 4.15,0 4.71,3.1 4.71,3.87 0,0.87 -0.63,0.87 -1.12,0.87 -0.49,0 -1.01,0 -1.07,-0.8 -0.18,-1.88 -1.4,-2.33 -2.17,-2.33 -2.27,0 -2.58,2.26 -2.93,4.98 -0.35,2.34 -0.62,4.43 -3.9,5.65 z"
           inkscape:connector-curvature="0"
           style="fill:#ffffff;fill-opacity:1;stroke-width:0" /></g>    </g>
    <path
       style="fill:#000000;fill-opacity:0.24705882;fill-rule:evenodd;stroke:#ffffff;stroke-width:4;stroke-linecap:butt;stroke-linejoin:miter;stroke-miterlimit:4;stroke-dasharray:none;stroke-opacity:1"
       d="m 74.857143,849.50502 0,32 -16,0 32,32 31.999997,-32 -16,0 0,-32 z"
       id="path5540-7"
       inkscape:connector-curvature="0" />
    <path
       style="fill:#000000;fill-opacity:0.24705882;fill-rule:evenodd;stroke:#ffffff;stroke-width:4;stroke-linecap:butt;stroke-linejoin:miter;stroke-miterlimit:4;stroke-dasharray:none;stroke-opacity:1"
       d="m 262.85714,849.50502 0,32 -16,0 32,32 32,-32 -16,0 0,-32 z"
       id="path5540-7-9"
       inkscape:connector-curvature="0" />
    <path
       style="fill:#000000;fill-opacity:0.24705882;fill-rule:evenodd;stroke:#ffffff;stroke-width:4;stroke-linecap:butt;stroke-linejoin:miter;stroke-miterlimit:4;stroke-dasharray:none;stroke-opacity:1"
       d="m 211.84278,777.63352 -32,0 0,-16 -32,32 32,32 0,-16 32,0 z"
       id="path5540-06-2"
       inkscape:connector-curvature="0" />
    <path
       style="fill:#000000;fill-opacity:0.24705882;fill-rule:evenodd;stroke:#ffffff;stroke-width:4;stroke-linecap:butt;stroke-linejoin:miter;stroke-miterlimit:4;stroke-dasharray:none;stroke-opacity:1"
       d="m 211.84278,957.63352 -32,0 0,-16 -32,32 32,31.99998 0,-15.99998 32,0 z"
       id="path5540-06-2-6"
       inkscape:connector-curvature="0" />
    <path
       style="fill:#000000;fill-opacity:0.24705882;fill-rule:evenodd;stroke:#ffffff;stroke-width:4;stroke-linecap:butt;stroke-linejoin:miter;stroke-miterlimit:4;stroke-dasharray:none;stroke-opacity:1"
       d="m 193.89231,849.3995 -22.62742,22.62742 -11.31371,-11.31371 0,45.25483 45.25484,0 -11.31371,-11.3137 22.62742,-22.62742 z"
       id="path5540-06-9-0"
       inkscape:connector-curvature="0" />
  </g>
</svg>
