<?xml version="1.0" encoding="utf-8" standalone="no"?>
<!DOCTYPE svg PUBLIC "-//W3C//DTD SVG 1.1//EN"
  "http://www.w3.org/Graphics/SVG/1.1/DTD/svg11.dtd">
<!-- Created with matplotlib (http://matplotlib.org/) -->
<svg height="281pt" version="1.1" viewBox="0 0 424 281" width="424pt" xmlns="http://www.w3.org/2000/svg" xmlns:xlink="http://www.w3.org/1999/xlink">
 <defs>
  <style type="text/css">
*{stroke-linecap:butt;stroke-linejoin:round;}
  </style>
 </defs>
 <g id="figure_1">
  <g id="patch_1">
   <path d="M 0 281.4 
L 424.8 281.4 
L 424.8 0 
L 0 0 
z
" style="fill:none;"/>
  </g>
  <g id="axes_1">
   <g id="patch_2">
    <path d="M 10.7 248.6 
L 414.1 248.6 
L 414.1 10.7 
L 10.7 10.7 
z
" style="fill:none;"/>
   </g>
   <g id="matplotlib.axis_1">
    <g id="text_1">
     <!-- $t$ -->
     <defs>
      <path d="M 6.203125 8.109375 
Q 6.203125 9.578125 6.5 10.890625 
L 13.71875 39.59375 
L 3.21875 39.59375 
Q 2.203125 39.59375 2.203125 40.921875 
Q 2.59375 43.109375 3.515625 43.109375 
L 14.59375 43.109375 
L 18.609375 59.421875 
Q 19 60.75 20.171875 61.671875 
Q 21.34375 62.59375 22.796875 62.59375 
Q 24.078125 62.59375 24.921875 61.828125 
Q 25.78125 61.078125 25.78125 59.8125 
Q 25.78125 59.515625 25.75 59.34375 
Q 25.734375 59.1875 25.6875 58.984375 
L 21.6875 43.109375 
L 31.984375 43.109375 
Q 33.015625 43.109375 33.015625 41.796875 
Q 32.953125 41.546875 32.8125 40.953125 
Q 32.671875 40.375 32.421875 39.984375 
Q 32.171875 39.59375 31.6875 39.59375 
L 20.796875 39.59375 
L 13.625 10.6875 
Q 12.890625 7.859375 12.890625 5.8125 
Q 12.890625 1.515625 15.828125 1.515625 
Q 20.21875 1.515625 23.609375 5.640625 
Q 27 9.765625 28.8125 14.703125 
Q 29.203125 15.28125 29.59375 15.28125 
L 30.8125 15.28125 
Q 31.203125 15.28125 31.4375 15.015625 
Q 31.6875 14.75 31.6875 14.40625 
Q 31.6875 14.203125 31.59375 14.109375 
Q 29.390625 8.0625 25.1875 3.46875 
Q 21 -1.125 15.578125 -1.125 
Q 11.625 -1.125 8.90625 1.453125 
Q 6.203125 4.046875 6.203125 8.109375 
z
" id="Cmmi10-74"/>
     </defs>
     <g style="fill:#ffffff;" transform="translate(207.96 269.88)scale(0.24 -0.24)">
      <use transform="translate(0 0.40625)" xlink:href="#Cmmi10-74"/>
     </g>
    </g>
   </g>
   <g id="matplotlib.axis_2"/>
   <g id="line2d_1">
    <path clip-path="url(#p035d475f71)" d="M 10.7 215.000903 
L 10.896973 215.19934 
L 11.290918 216.028836 
L 12.078809 217.890025 
L 12.866699 219.091264 
L 14.048535 220.668436 
L 14.245508 220.414931 
L 14.639453 218.881946 
L 15.230371 216.13186 
L 15.427344 216.086956 
L 15.624316 216.797082 
L 16.018262 220.278079 
L 16.60918 226.531576 
L 16.806152 227.631156 
L 17.003125 227.951784 
L 17.200098 227.493755 
L 17.594043 224.586322 
L 18.775879 211.501175 
L 18.972852 211.015366 
L 19.169824 211.466633 
L 19.56377 214.762729 
L 20.35166 223.372337 
L 20.745605 225.573233 
L 21.730469 228.798801 
L 21.927441 229.209085 
L 22.124414 229.231712 
L 22.321387 228.749056 
L 22.715332 226.265461 
L 24.094141 213.959344 
L 24.488086 212.332821 
L 24.685059 212.018872 
L 24.882031 211.98958 
L 25.275977 212.474924 
L 26.851758 215.39961 
L 27.836621 217.969981 
L 28.033594 218.065919 
L 28.230566 217.88068 
L 28.624512 216.599432 
L 29.806348 210.623224 
L 30.00332 210.562752 
L 30.200293 210.950075 
L 30.594238 212.667145 
L 31.185156 215.065615 
L 31.382129 215.342383 
L 31.579102 215.363424 
L 32.563965 214.733161 
L 32.760937 214.90393 
L 33.154883 215.727758 
L 34.336719 219.198104 
L 34.533691 219.123295 
L 34.730664 218.7484 
L 35.124609 217.264181 
L 36.306445 211.505328 
L 36.503418 211.099154 
L 36.700391 210.976158 
L 36.897363 211.099241 
L 38.276172 213.350918 
L 38.670117 214.511558 
L 39.458008 217.995425 
L 39.65498 218.25143 
L 39.851953 218.012666 
L 40.245898 216.412863 
L 40.639844 214.859192 
L 40.836816 214.681462 
L 41.033789 215.037274 
L 41.427734 217.068348 
L 42.215625 222.268195 
L 42.60957 223.711449 
L 42.806543 223.909225 
L 43.003516 223.683344 
L 43.200488 222.999855 
L 43.594434 220.32202 
L 44.579297 211.945986 
L 44.77627 211.636251 
L 44.973242 212.148328 
L 45.367187 215.293492 
L 45.958105 221.265768 
L 46.352051 222.938674 
L 46.549023 222.805504 
L 46.942969 221.15293 
L 47.730859 217.194517 
L 47.927832 216.75457 
L 48.124805 216.588752 
L 48.321777 216.678614 
L 48.715723 217.498418 
L 50.488477 223.546832 
L 51.079395 226.292719 
L 51.276367 226.710622 
L 51.47334 226.532738 
L 51.670312 225.664144 
L 52.064258 222.209081 
L 52.655176 216.52691 
L 53.049121 214.883785 
L 53.246094 214.83358 
L 53.443066 215.221258 
L 53.837012 217.058843 
L 54.821875 223.47167 
L 55.21582 224.399365 
L 56.003711 225.005204 
L 56.397656 225.443731 
L 56.594629 225.347952 
L 56.791602 224.895747 
L 57.185547 223.02291 
L 57.776465 220.153132 
L 57.973437 219.800404 
L 58.17041 219.799002 
L 58.564355 220.434384 
L 59.155273 221.361688 
L 59.549219 221.897788 
L 59.943164 223.023241 
L 60.731055 226.092829 
L 60.928027 226.461509 
L 61.125 226.584242 
L 61.321973 226.511321 
L 62.306836 225.409813 
L 63.094727 224.399051 
L 63.685645 223.628409 
L 63.882617 223.57405 
L 64.07959 223.74018 
L 64.276562 224.181035 
L 64.670508 225.858852 
L 66.246289 234.286766 
L 66.443262 234.760222 
L 66.640234 234.714182 
L 66.837207 234.032716 
L 67.231152 230.861811 
L 68.019043 223.22376 
L 68.412988 221.884015 
L 68.609961 221.824262 
L 69.200879 222.388599 
L 69.791797 222.824765 
L 69.98877 222.883033 
L 70.185742 222.80931 
L 70.382715 222.524653 
L 70.77666 221.180881 
L 72.549414 212.659839 
L 72.746387 212.510136 
L 72.943359 212.866626 
L 73.337305 215.110179 
L 74.125195 220.812288 
L 74.322168 221.355093 
L 74.519141 221.452337 
L 74.716113 221.214804 
L 75.307031 219.746225 
L 75.897949 217.81077 
L 76.68584 214.399854 
L 76.882812 214.06408 
L 77.079785 214.107769 
L 77.47373 215.032202 
L 77.867676 216.090789 
L 78.064648 216.364836 
L 78.458594 216.404052 
L 78.655566 216.379905 
L 78.852539 216.524445 
L 79.049512 216.971932 
L 79.443457 218.96777 
L 80.034375 222.940692 
L 80.231348 223.56978 
L 80.42832 223.458669 
L 80.625293 222.494961 
L 81.019238 218.180496 
L 81.807129 207.15163 
L 82.004102 205.932819 
L 82.201074 205.855461 
L 82.398047 206.938983 
L 82.791992 211.76622 
L 83.38291 219.917978 
L 83.776855 222.47482 
L 83.973828 222.82063 
L 84.170801 222.788772 
L 84.761719 222.280893 
L 85.549609 222.04247 
L 85.943555 221.268122 
L 86.3375 219.818858 
L 87.519336 214.378105 
L 87.716309 214.354873 
L 87.913281 214.864458 
L 88.307227 217.42876 
L 89.29209 225.956881 
L 89.489062 226.531459 
L 89.686035 226.482292 
L 89.883008 225.858348 
L 90.276953 223.423211 
L 91.261816 216.773665 
L 91.852734 214.214537 
L 92.24668 213.417613 
L 92.443652 213.435389 
L 92.640625 213.777621 
L 93.03457 215.373628 
L 93.625488 218.496997 
L 93.822461 219.039317 
L 94.019434 219.062697 
L 94.216406 218.519389 
L 94.610352 216.122896 
L 95.20127 212.460064 
L 95.595215 211.659544 
L 96.580078 211.543485 
L 96.777051 211.684417 
L 96.974023 212.148169 
L 97.367969 214.261596 
L 98.155859 219.605846 
L 98.352832 220.205023 
L 98.549805 220.424582 
L 98.746777 220.324945 
L 99.140723 219.372351 
L 100.125586 215.684078 
L 100.322559 215.908551 
L 100.716504 217.967369 
L 101.307422 221.768055 
L 101.504395 222.255496 
L 101.701367 222.243493 
L 102.292285 221.084796 
L 102.489258 221.189413 
L 102.68623 221.866093 
L 103.080176 224.862577 
L 103.671094 229.728106 
L 103.868066 230.042226 
L 104.065039 229.256348 
L 104.458984 224.26499 
L 105.837793 198.763964 
L 106.034766 198.072333 
L 106.034766 198.072333 
" style="fill:none;stroke:#fbb4ae;stroke-linecap:square;stroke-width:1.5;"/>
   </g>
   <g id="patch_3">
    <path d="M 10.7 248.6 
L 10.7 10.7 
" style="fill:none;stroke:#ffffff;stroke-linecap:square;stroke-linejoin:miter;stroke-width:0.8;"/>
   </g>
   <g id="patch_4">
    <path d="M 414.1 248.6 
L 414.1 10.7 
" style="fill:none;stroke:#ffffff;stroke-linecap:square;stroke-linejoin:miter;stroke-width:0.8;"/>
   </g>
   <g id="patch_5">
    <path d="M 10.7 248.6 
L 414.1 248.6 
" style="fill:none;stroke:#ffffff;stroke-linecap:square;stroke-linejoin:miter;stroke-width:0.8;"/>
   </g>
   <g id="patch_6">
    <path d="M 10.7 10.7 
L 414.1 10.7 
" style="fill:none;stroke:#ffffff;stroke-linecap:square;stroke-linejoin:miter;stroke-width:0.8;"/>
   </g>
  </g>
 </g>
 <defs>
  <clipPath id="p035d475f71">
   <rect height="237.9" width="403.4" x="10.7" y="10.7"/>
  </clipPath>
 </defs>
</svg>
