<?xml version="1.0" encoding="utf-8" standalone="no"?>
<!DOCTYPE svg PUBLIC "-//W3C//DTD SVG 1.1//EN"
  "http://www.w3.org/Graphics/SVG/1.1/DTD/svg11.dtd">
<!-- Created with matplotlib (http://matplotlib.org/) -->
<svg height="281pt" version="1.1" viewBox="0 0 424 281" width="424pt" xmlns="http://www.w3.org/2000/svg" xmlns:xlink="http://www.w3.org/1999/xlink">
 <defs>
  <style type="text/css">
*{stroke-linecap:butt;stroke-linejoin:round;}
  </style>
 </defs>
 <g id="figure_1">
  <g id="patch_1">
   <path d="M 0 281.4 
L 424.8 281.4 
L 424.8 0 
L 0 0 
z
" style="fill:none;"/>
  </g>
  <g id="axes_1">
   <g id="patch_2">
    <path d="M 10.7 248.6 
L 414.1 248.6 
L 414.1 10.7 
L 10.7 10.7 
z
" style="fill:none;"/>
   </g>
   <g id="matplotlib.axis_1">
    <g id="text_1">
     <!-- $t$ -->
     <defs>
      <path d="M 6.203125 8.109375 
Q 6.203125 9.578125 6.5 10.890625 
L 13.71875 39.59375 
L 3.21875 39.59375 
Q 2.203125 39.59375 2.203125 40.921875 
Q 2.59375 43.109375 3.515625 43.109375 
L 14.59375 43.109375 
L 18.609375 59.421875 
Q 19 60.75 20.171875 61.671875 
Q 21.34375 62.59375 22.796875 62.59375 
Q 24.078125 62.59375 24.921875 61.828125 
Q 25.78125 61.078125 25.78125 59.8125 
Q 25.78125 59.515625 25.75 59.34375 
Q 25.734375 59.1875 25.6875 58.984375 
L 21.6875 43.109375 
L 31.984375 43.109375 
Q 33.015625 43.109375 33.015625 41.796875 
Q 32.953125 41.546875 32.8125 40.953125 
Q 32.671875 40.375 32.421875 39.984375 
Q 32.171875 39.59375 31.6875 39.59375 
L 20.796875 39.59375 
L 13.625 10.6875 
Q 12.890625 7.859375 12.890625 5.8125 
Q 12.890625 1.515625 15.828125 1.515625 
Q 20.21875 1.515625 23.609375 5.640625 
Q 27 9.765625 28.8125 14.703125 
Q 29.203125 15.28125 29.59375 15.28125 
L 30.8125 15.28125 
Q 31.203125 15.28125 31.4375 15.015625 
Q 31.6875 14.75 31.6875 14.40625 
Q 31.6875 14.203125 31.59375 14.109375 
Q 29.390625 8.0625 25.1875 3.46875 
Q 21 -1.125 15.578125 -1.125 
Q 11.625 -1.125 8.90625 1.453125 
Q 6.203125 4.046875 6.203125 8.109375 
z
" id="Cmmi10-74"/>
     </defs>
     <g style="fill:#ffffff;" transform="translate(207.96 269.88)scale(0.24 -0.24)">
      <use transform="translate(0 0.40625)" xlink:href="#Cmmi10-74"/>
     </g>
    </g>
   </g>
   <g id="matplotlib.axis_2"/>
   <g id="line2d_1">
    <path clip-path="url(#p0ec3f43dc7)" d="M 10.7 215.000903 
L 10.896973 215.19934 
L 11.290918 216.028836 
L 12.078809 217.890025 
L 12.866699 219.091264 
L 14.048535 220.668436 
L 14.245508 220.414931 
L 14.639453 218.881946 
L 15.230371 216.13186 
L 15.427344 216.086956 
L 15.624316 216.797082 
L 16.018262 220.278079 
L 16.60918 226.531576 
L 16.806152 227.631156 
L 17.003125 227.951784 
L 17.200098 227.493755 
L 17.594043 224.586322 
L 18.775879 211.501175 
L 18.972852 211.015366 
L 19.169824 211.466633 
L 19.56377 214.762729 
L 20.35166 223.372337 
L 20.745605 225.573233 
L 21.730469 228.798801 
L 21.927441 229.209085 
L 22.124414 229.231712 
L 22.321387 228.749056 
L 22.715332 226.265461 
L 24.094141 213.959344 
L 24.488086 212.332821 
L 24.685059 212.018872 
L 24.882031 211.98958 
L 25.275977 212.474924 
L 26.851758 215.39961 
L 27.836621 217.969981 
L 28.033594 218.065919 
L 28.230566 217.88068 
L 28.624512 216.599432 
L 29.806348 210.623224 
L 30.00332 210.562752 
L 30.200293 210.950075 
L 30.594238 212.667145 
L 31.185156 215.065615 
L 31.382129 215.342383 
L 31.579102 215.363424 
L 32.563965 214.733161 
L 32.760937 214.90393 
L 33.154883 215.727758 
L 34.336719 219.198104 
L 34.533691 219.123295 
L 34.730664 218.7484 
L 35.124609 217.264181 
L 36.306445 211.505328 
L 36.503418 211.099154 
L 36.700391 210.976158 
L 36.897363 211.099241 
L 38.276172 213.350918 
L 38.670117 214.511558 
L 39.458008 217.995425 
L 39.65498 218.25143 
L 39.851953 218.012666 
L 40.245898 216.412863 
L 40.639844 214.859192 
L 40.836816 214.681462 
L 41.033789 215.037274 
L 41.427734 217.068348 
L 42.215625 222.268195 
L 42.60957 223.711449 
L 42.806543 223.909225 
L 43.003516 223.683344 
L 43.200488 222.999855 
L 43.594434 220.32202 
L 44.579297 211.945986 
L 44.77627 211.636251 
L 44.973242 212.148328 
L 45.367187 215.293492 
L 45.958105 221.265768 
L 46.352051 222.938674 
L 46.549023 222.805504 
L 46.942969 221.15293 
L 47.730859 217.194517 
L 47.927832 216.75457 
L 48.124805 216.588752 
L 48.321777 216.678614 
L 48.715723 217.498418 
L 50.488477 223.546832 
L 51.079395 226.292719 
L 51.276367 226.710622 
L 51.47334 226.532738 
L 51.670312 225.664144 
L 52.064258 222.209081 
L 52.655176 216.52691 
L 53.049121 214.883785 
L 53.246094 214.83358 
L 53.443066 215.221258 
L 53.837012 217.058843 
L 54.821875 223.47167 
L 55.21582 224.399365 
L 56.003711 225.005204 
L 56.397656 225.443731 
L 56.594629 225.347952 
L 56.791602 224.895747 
L 57.185547 223.02291 
L 57.776465 220.153132 
L 57.973437 219.800404 
L 58.17041 219.799002 
L 58.564355 220.434384 
L 59.155273 221.361688 
L 59.549219 221.897788 
L 59.943164 223.023241 
L 60.731055 226.092829 
L 60.928027 226.461509 
L 61.125 226.584242 
L 61.321973 226.511321 
L 62.306836 225.409813 
L 63.094727 224.399051 
L 63.685645 223.628409 
L 63.882617 223.57405 
L 64.07959 223.74018 
L 64.276562 224.181035 
L 64.670508 225.858852 
L 66.246289 234.286766 
L 66.443262 234.760222 
L 66.640234 234.714182 
L 66.837207 234.032716 
L 67.231152 230.861811 
L 68.019043 223.22376 
L 68.412988 221.884015 
L 68.609961 221.824262 
L 69.200879 222.388599 
L 69.791797 222.824765 
L 69.98877 222.883033 
L 70.185742 222.80931 
L 70.382715 222.524653 
L 70.77666 221.180881 
L 72.549414 212.659839 
L 72.746387 212.510136 
L 72.943359 212.866626 
L 73.337305 215.110179 
L 74.125195 220.812288 
L 74.322168 221.355093 
L 74.519141 221.452337 
L 74.716113 221.214804 
L 75.307031 219.746225 
L 75.897949 217.81077 
L 76.68584 214.399854 
L 76.882812 214.06408 
L 77.079785 214.107769 
L 77.47373 215.032202 
L 77.867676 216.090789 
L 78.064648 216.364836 
L 78.458594 216.404052 
L 78.655566 216.379905 
L 78.852539 216.524445 
L 79.049512 216.971932 
L 79.443457 218.96777 
L 80.034375 222.940692 
L 80.231348 223.56978 
L 80.42832 223.458669 
L 80.625293 222.494961 
L 81.019238 218.180496 
L 81.807129 207.15163 
L 82.004102 205.932819 
L 82.201074 205.855461 
L 82.398047 206.938983 
L 82.791992 211.76622 
L 83.38291 219.917978 
L 83.776855 222.47482 
L 83.973828 222.82063 
L 84.170801 222.788772 
L 84.761719 222.280893 
L 85.549609 222.04247 
L 85.943555 221.268122 
L 86.3375 219.818858 
L 87.519336 214.378105 
L 87.716309 214.354873 
L 87.913281 214.864458 
L 88.307227 217.42876 
L 89.29209 225.956881 
L 89.489062 226.531459 
L 89.686035 226.482292 
L 89.883008 225.858348 
L 90.276953 223.423211 
L 91.261816 216.773665 
L 91.852734 214.214537 
L 92.24668 213.417613 
L 92.443652 213.435389 
L 92.640625 213.777621 
L 93.03457 215.373628 
L 93.625488 218.496997 
L 93.822461 219.039317 
L 94.019434 219.062697 
L 94.216406 218.519389 
L 94.610352 216.122896 
L 95.20127 212.460064 
L 95.595215 211.659544 
L 96.580078 211.543485 
L 96.777051 211.684417 
L 96.974023 212.148169 
L 97.367969 214.261596 
L 98.155859 219.605846 
L 98.352832 220.205023 
L 98.549805 220.424582 
L 98.746777 220.324945 
L 99.140723 219.372351 
L 100.125586 215.684078 
L 100.322559 215.908551 
L 100.716504 217.967369 
L 101.307422 221.768055 
L 101.504395 222.255496 
L 101.701367 222.243493 
L 102.292285 221.084796 
L 102.489258 221.189413 
L 102.68623 221.866093 
L 103.080176 224.862577 
L 103.671094 229.728106 
L 103.868066 230.042226 
L 104.065039 229.256348 
L 104.458984 224.26499 
L 105.837793 198.763964 
L 106.034766 198.072333 
L 106.231738 198.366324 
L 106.428711 199.497978 
L 106.822656 203.694137 
L 107.413574 213.845259 
L 108.792383 242.31076 
L 108.989355 243.183269 
L 109.186328 242.635137 
L 109.383301 240.755222 
L 109.777246 234.061505 
L 110.565137 220.124946 
L 110.959082 217.652989 
L 111.156055 217.66301 
L 111.353027 218.266226 
L 112.140918 221.998796 
L 112.337891 222.247654 
L 112.534863 221.939855 
L 112.731836 221.032343 
L 113.125781 217.637284 
L 113.913672 209.385769 
L 114.307617 207.144995 
L 114.50459 206.62494 
L 114.701562 206.429011 
L 114.898535 206.499165 
L 115.095508 206.802769 
L 115.489453 208.047511 
L 116.277344 211.333187 
L 116.474316 211.628557 
L 116.671289 211.545622 
L 117.065234 210.54407 
L 117.45918 209.688945 
L 117.656152 209.866037 
L 117.853125 210.651862 
L 118.24707 214.106774 
L 119.231934 225.42698 
L 119.428906 226.396924 
L 119.625879 226.741775 
L 119.822852 226.580847 
L 120.41377 225.2238 
L 120.610742 225.164405 
L 120.807715 225.453611 
L 121.398633 226.913438 
L 121.595605 226.729897 
L 121.792578 225.840545 
L 122.186523 222.009826 
L 122.777441 215.142568 
L 122.974414 213.90924 
L 123.171387 213.535788 
L 123.368359 214.010308 
L 123.762305 216.925627 
L 124.550195 224.70394 
L 124.944141 226.403192 
L 125.141113 226.274487 
L 125.338086 225.531791 
L 126.322949 219.409907 
L 126.519922 219.063877 
L 126.716895 219.230233 
L 126.913867 219.887142 
L 127.307812 222.303458 
L 127.701758 224.961232 
L 127.89873 225.742991 
L 128.095703 225.840965 
L 128.292676 225.121417 
L 128.686621 221.406199 
L 129.474512 211.78206 
L 129.868457 209.611303 
L 130.06543 209.332716 
L 130.262402 209.438388 
L 130.656348 210.365938 
L 131.050293 212.059416 
L 131.444238 214.798249 
L 132.823047 226.229255 
L 133.216992 227.290686 
L 133.413965 227.416437 
L 133.610937 227.300489 
L 134.004883 226.437944 
L 135.186719 222.033714 
L 135.777637 219.669421 
L 136.368555 216.068063 
L 137.156445 211.309524 
L 137.550391 210.320376 
L 137.747363 210.366096 
L 137.944336 210.801264 
L 138.338281 212.696331 
L 139.126172 217.129085 
L 139.323145 217.612569 
L 139.520117 217.799312 
L 139.914062 217.807126 
L 140.111035 217.959859 
L 140.308008 218.383696 
L 140.701953 220.105884 
L 141.489844 224.20413 
L 141.883789 225.163272 
L 142.080762 225.244452 
L 142.277734 224.992826 
L 142.474707 224.348376 
L 142.868652 221.936387 
L 143.262598 219.20334 
L 143.45957 218.477173 
L 143.656543 218.546888 
L 143.853516 219.499581 
L 144.838379 227.982617 
L 145.035352 227.872325 
L 145.232324 226.821517 
L 145.62627 222.696333 
L 146.611133 211.19961 
L 147.202051 207.18385 
L 147.595996 205.803205 
L 147.792969 205.51904 
L 147.989941 205.497163 
L 148.383887 206.038969 
L 148.974805 206.992717 
L 149.565723 207.203024 
L 149.762695 207.584827 
L 149.959668 208.464387 
L 150.353613 212.304676 
L 151.535449 230.282616 
L 151.732422 231.230161 
L 151.929395 231.274689 
L 152.126367 230.598228 
L 152.717285 226.577944 
L 153.899121 218.350566 
L 154.096094 217.709993 
L 154.293066 217.636236 
L 154.490039 218.172449 
L 154.883984 220.716449 
L 155.868848 228.126268 
L 156.262793 229.419656 
L 156.459766 229.490589 
L 156.656738 229.159953 
L 157.050684 227.540941 
L 157.838574 223.847112 
L 158.23252 223.074864 
L 158.429492 222.973064 
L 158.823437 223.140345 
L 159.414355 223.630318 
L 159.611328 223.649168 
L 159.808301 223.513642 
L 160.202246 222.751866 
L 160.793164 221.303212 
L 160.990137 221.120991 
L 161.187109 221.167889 
L 161.778027 221.840829 
L 161.975 221.763059 
L 162.171973 221.339984 
L 162.565918 219.482663 
L 163.353809 215.201746 
L 163.550781 214.787697 
L 163.747754 214.715503 
L 164.535645 215.397073 
L 164.732617 215.036188 
L 165.126562 213.184197 
L 166.111426 206.533945 
L 166.308398 205.940814 
L 166.505371 205.84655 
L 166.702344 206.258078 
L 167.096289 208.237937 
L 167.687207 211.58676 
L 168.081152 212.754029 
L 169.066016 214.42161 
L 169.459961 215.978545 
L 170.641797 222.465621 
L 170.83877 222.414879 
L 171.035742 221.623811 
L 171.429687 217.907115 
L 172.611523 203.010519 
L 173.005469 200.636636 
L 173.399414 199.787297 
L 173.596387 199.835113 
L 173.793359 200.146254 
L 174.187305 201.496614 
L 174.58125 203.978276 
L 174.975195 207.878627 
L 176.747949 228.791042 
L 178.126758 237.813321 
L 178.32373 238.67571 
L 178.520703 238.953504 
L 178.717676 238.480085 
L 179.111621 235.236778 
L 180.096484 223.388919 
L 180.293457 222.355146 
L 180.49043 222.019764 
L 180.687402 222.298291 
L 181.081348 224.044569 
L 181.672266 226.92387 
L 182.066211 227.650129 
L 182.263184 227.553616 
L 182.460156 227.157502 
L 182.854102 225.370316 
L 183.248047 221.685032 
L 183.641992 215.510533 
L 184.429883 201.447589 
L 184.626855 199.581882 
L 184.823828 198.779421 
L 185.020801 198.949809 
L 185.414746 201.256782 
L 186.202637 206.875161 
L 186.596582 208.447703 
L 187.384473 210.346039 
L 188.369336 212.847308 
L 188.763281 214.484835 
L 189.354199 218.343497 
L 190.14209 223.504053 
L 190.339062 224.113046 
L 190.536035 224.317161 
L 190.733008 224.122293 
L 191.126953 222.799452 
L 191.717871 220.425572 
L 191.914844 220.138623 
L 192.111816 220.282609 
L 192.505762 221.773472 
L 193.09668 224.510671 
L 193.293652 224.727922 
L 193.490625 224.432316 
L 193.88457 222.720673 
L 194.278516 220.983059 
L 194.475488 220.617223 
L 194.672461 220.679937 
L 195.066406 221.656454 
L 195.460352 222.413657 
L 195.657324 222.28187 
L 196.05127 220.908894 
L 196.83916 217.386364 
L 197.233105 216.724218 
L 197.627051 216.561486 
L 197.824023 216.599363 
L 198.020996 216.762382 
L 198.217969 217.116851 
L 198.611914 218.641761 
L 199.005859 221.373866 
L 199.990723 229.325109 
L 200.187695 230.035458 
L 200.384668 230.237973 
L 200.581641 229.949105 
L 200.975586 228.13438 
L 201.566504 223.50551 
L 202.354395 217.375129 
L 202.74834 215.655999 
L 202.945312 215.240749 
L 203.142285 215.144966 
L 203.339258 215.397093 
L 203.733203 216.98121 
L 204.718066 223.172346 
L 205.112012 223.997061 
L 205.505957 224.296596 
L 205.899902 225.096844 
L 206.49082 226.707213 
L 206.687793 226.893993 
L 206.884766 226.838067 
L 207.278711 226.27069 
L 208.066602 224.704016 
L 208.65752 222.496225 
L 209.051465 221.014819 
L 209.248437 220.586452 
L 209.44541 220.470414 
L 209.642383 220.68468 
L 210.036328 221.896722 
L 210.430273 223.283701 
L 210.627246 223.613281 
L 210.824219 223.503236 
L 211.021191 222.892865 
L 211.415137 220.459596 
L 212.006055 216.81288 
L 212.203027 216.315 
L 212.4 216.197005 
L 213.581836 159.52785 
L 214.763672 112.068175 
L 215.551562 85.889786 
L 216.14248 71.687689 
L 216.930371 58.402187 
L 217.521289 52.457525 
L 217.915234 50.540267 
L 218.30918 49.115783 
L 218.703125 46.39876 
L 219.09707 41.296143 
L 220.081934 25.846796 
L 220.672852 21.177045 
L 221.460742 16.792395 
L 221.657715 16.184106 
L 221.854687 16.116731 
L 222.05166 16.706668 
L 222.445605 19.72769 
L 223.233496 27.084059 
L 223.430469 27.900035 
L 223.627441 28.137912 
L 223.824414 27.863511 
L 224.218359 26.304945 
L 224.809277 23.819104 
L 225.00625 23.469303 
L 225.203223 23.442618 
L 225.597168 24.089232 
L 225.991113 24.703967 
L 226.188086 24.636941 
L 226.582031 23.69526 
L 226.779004 23.159374 
L 226.975977 22.951567 
L 227.172949 23.364036 
L 227.369922 24.601425 
L 227.763867 29.721483 
L 229.536621 60.93063 
L 229.733594 61.990865 
L 229.930566 62.322871 
L 230.127539 62.05851 
L 230.718457 60.377349 
L 230.91543 60.559659 
L 231.112402 61.497166 
L 231.506348 65.726432 
L 233.279102 92.432552 
L 233.673047 94.905175 
L 234.066992 95.885305 
L 234.263965 95.933867 
L 234.65791 95.55785 
L 235.051855 95.308805 
L 235.248828 95.480289 
L 235.642773 96.426145 
L 236.036719 97.468133 
L 236.233691 97.723024 
L 236.430664 97.747551 
L 236.824609 97.475723 
L 237.021582 97.514894 
L 237.218555 97.91512 
L 237.415527 98.806852 
L 237.809473 102.195253 
L 238.597363 113.008547 
L 239.385254 123.478137 
L 239.779199 126.840858 
L 240.173145 128.323806 
L 240.370117 128.45629 
L 241.158008 128.071705 
L 241.35498 128.40557 
L 241.748926 130.082645 
L 242.142871 133.178383 
L 242.733789 140.026231 
L 243.52168 149.644408 
L 243.915625 152.770157 
L 244.30957 154.418042 
L 245.097461 156.415419 
L 246.082324 160.603799 
L 246.279297 160.83898 
L 246.47627 160.744768 
L 246.870215 159.862376 
L 247.26416 158.868017 
L 247.461133 158.696188 
L 247.658105 158.916307 
L 247.855078 159.601808 
L 248.249023 162.15833 
L 248.839941 165.8622 
L 249.036914 166.240228 
L 249.233887 166.177398 
L 249.627832 165.717838 
L 249.824805 165.93955 
L 250.021777 166.766262 
L 250.415723 170.304865 
L 251.400586 181.513068 
L 251.794531 183.905698 
L 252.188477 185.044451 
L 253.17334 186.515714 
L 253.567285 188.284097 
L 254.552148 193.927024 
L 254.946094 194.912873 
L 255.340039 195.146578 
L 255.733984 195.313896 
L 256.12793 195.80176 
L 257.309766 197.725692 
L 257.506738 197.857845 
L 257.703711 197.742149 
L 257.900684 197.279974 
L 258.294629 195.239339 
L 258.885547 191.472502 
L 259.08252 190.917327 
L 259.279492 190.983941 
L 259.476465 191.690795 
L 259.87041 194.581512 
L 260.461328 199.516706 
L 260.855273 201.134114 
L 261.052246 201.29909 
L 261.249219 201.156981 
L 261.840137 200.271411 
L 262.037109 200.191443 
L 262.234082 200.308587 
L 262.431055 200.642311 
L 262.825 202.088646 
L 263.218945 204.842805 
L 264.400781 216.142749 
L 264.597754 216.821405 
L 264.794727 216.902166 
L 264.991699 216.456368 
L 265.385645 214.510871 
L 266.370508 207.930838 
L 267.158398 202.578349 
L 267.355371 202.028658 
L 267.552344 202.039065 
L 267.749316 202.585459 
L 268.73418 207.28457 
L 268.931152 207.418752 
L 269.128125 207.225327 
L 269.719043 206.175628 
L 269.916016 206.106009 
L 270.112988 206.260597 
L 270.506934 207.083592 
L 271.097852 208.965712 
L 272.279687 213.137919 
L 272.673633 213.64668 
L 273.067578 213.589913 
L 273.461523 213.4406 
L 273.658496 213.557333 
L 274.052441 214.43573 
L 274.643359 216.13253 
L 274.840332 216.085953 
L 275.037305 215.452685 
L 275.43125 212.288889 
L 276.613086 198.737742 
L 277.007031 197.257077 
L 277.204004 197.249797 
L 277.400977 197.605732 
L 278.38584 200.346929 
L 278.582812 200.495272 
L 278.976758 200.422179 
L 279.17373 200.360822 
L 279.370703 200.430517 
L 279.567676 200.762063 
L 279.764648 201.469635 
L 280.158594 204.144591 
L 280.946484 210.305292 
L 281.143457 210.814051 
L 281.34043 210.842882 
L 281.734375 210.404557 
L 281.931348 210.530521 
L 282.12832 211.200833 
L 282.522266 214.377613 
L 283.704102 226.83979 
L 283.901074 227.478431 
L 284.098047 227.450664 
L 284.29502 226.753049 
L 284.688965 223.612879 
L 285.870801 211.312249 
L 286.461719 207.880168 
L 287.052637 205.292564 
L 287.446582 204.394483 
L 287.643555 204.436163 
L 287.840527 204.896354 
L 288.234473 207.187802 
L 288.825391 213.387561 
L 289.416309 218.876218 
L 289.613281 219.548172 
L 289.810254 219.491324 
L 290.007227 218.791659 
L 290.99209 213.041697 
L 291.189062 212.812675 
L 291.386035 213.132203 
L 291.77998 215.247866 
L 292.567871 220.932364 
L 292.764844 221.575754 
L 292.961816 221.763393 
L 293.158789 221.595819 
L 293.749707 220.761339 
L 293.94668 220.924395 
L 294.143652 221.439998 
L 294.73457 224.369981 
L 295.128516 225.853308 
L 295.325488 225.92068 
L 295.522461 225.401005 
L 295.916406 222.722509 
L 296.90127 214.347803 
L 297.68916 210.084954 
L 298.674023 203.203724 
L 298.870996 203.025324 
L 299.067969 203.489931 
L 299.461914 205.853246 
L 301.825586 223.266062 
L 302.022559 223.588408 
L 302.219531 223.424725 
L 302.613477 222.130162 
L 303.401367 219.09888 
L 304.38623 216.110765 
L 304.583203 215.793264 
L 304.780176 215.713597 
L 304.977148 215.875057 
L 305.765039 217.067733 
L 305.962012 216.926468 
L 306.749902 215.632958 
L 306.946875 215.957851 
L 307.34082 218.063817 
L 308.325684 225.814303 
L 308.522656 226.12602 
L 308.719629 225.746318 
L 309.50752 221.819461 
L 309.704492 221.953612 
L 309.901465 223.004404 
L 310.29541 227.471156 
L 310.886328 235.291316 
L 311.083301 236.729446 
L 311.280273 237.143227 
L 311.477246 236.433963 
L 311.871191 231.941116 
L 312.659082 219.393858 
L 313.053027 216.959092 
L 313.25 216.9929 
L 314.234863 219.306152 
L 314.431836 219.497451 
L 314.628809 219.943839 
L 314.825781 220.846219 
L 315.219727 224.256492 
L 316.007617 232.407512 
L 316.20459 233.17499 
L 316.401562 233.115727 
L 316.598535 232.253782 
L 316.99248 228.704322 
L 317.780371 220.877926 
L 317.977344 220.074173 
L 318.174316 219.959053 
L 318.371289 220.477541 
L 319.356152 225.015387 
L 319.553125 224.694005 
L 319.94707 222.453672 
L 320.537988 218.221794 
L 320.931934 216.616278 
L 321.325879 215.803155 
L 321.719824 215.413355 
L 321.916797 215.466852 
L 322.11377 215.766417 
L 323.098633 218.331243 
L 323.295605 217.946742 
L 323.689551 215.949001 
L 324.083496 213.951918 
L 324.280469 213.720785 
L 324.477441 214.255329 
L 324.871387 217.376949 
L 325.462305 223.002792 
L 325.659277 223.947345 
L 325.85625 224.178199 
L 326.053223 223.70814 
L 326.447168 221.080576 
L 327.235059 214.062217 
L 327.629004 212.284195 
L 328.022949 211.704465 
L 328.416895 211.145009 
L 328.81084 209.943466 
L 329.204785 208.662001 
L 329.401758 208.377078 
L 329.59873 208.522882 
L 329.795703 209.180291 
L 330.189648 211.980038 
L 331.174512 221.123256 
L 331.568457 222.591067 
L 331.76543 222.593099 
L 331.962402 222.111497 
L 332.356348 219.855801 
L 333.341211 212.420094 
L 333.538184 211.921689 
L 333.735156 211.95012 
L 333.932129 212.429702 
L 334.72002 215.51129 
L 334.916992 215.79034 
L 335.113965 215.758703 
L 335.901855 214.844525 
L 336.098828 215.168518 
L 336.492773 216.868084 
L 337.083691 219.953025 
L 337.280664 220.377175 
L 337.477637 220.335793 
L 337.871582 219.244422 
L 338.265527 218.179767 
L 338.4625 218.116203 
L 338.659473 218.422769 
L 339.644336 220.982874 
L 340.038281 221.327329 
L 340.432227 222.141779 
L 340.826172 223.795508 
L 342.008008 229.588306 
L 342.401953 230.274674 
L 342.598926 230.256162 
L 342.795898 230.019448 
L 343.189844 228.992274 
L 343.583789 227.188894 
L 343.977734 224.218034 
L 344.765625 216.814595 
L 344.962598 216.193127 
L 345.15957 216.594042 
L 345.553516 220.221171 
L 346.144434 226.823645 
L 346.341406 227.409572 
L 346.538379 226.749648 
L 346.932324 222.228431 
L 347.720215 211.393348 
L 347.917187 210.237751 
L 348.11416 209.756202 
L 348.311133 209.696252 
L 348.705078 209.744034 
L 349.099023 209.134553 
L 349.492969 208.628866 
L 349.689941 208.880463 
L 350.083887 210.700149 
L 350.871777 215.890894 
L 351.265723 217.042187 
L 351.462695 217.14574 
L 351.856641 216.774605 
L 352.250586 216.352321 
L 352.447559 216.385389 
L 352.644531 216.663578 
L 353.038477 217.924447 
L 354.02334 222.039212 
L 354.417285 222.996203 
L 354.81123 223.470097 
L 355.402148 223.978032 
L 355.796094 224.934366 
L 356.387012 227.565343 
L 358.553711 238.048174 
L 358.750684 238.082719 
L 358.947656 237.53949 
L 359.341602 234.925531 
L 360.523438 224.616846 
L 360.917383 222.851526 
L 361.114355 222.483734 
L 361.311328 222.49272 
L 361.508301 222.880849 
L 361.902246 224.702182 
L 362.887109 230.974386 
L 363.084082 231.207682 
L 363.281055 230.733996 
L 363.675 227.705868 
L 364.659863 216.551066 
L 365.053809 214.660857 
L 365.250781 214.480154 
L 365.447754 214.712922 
L 365.841699 216.07824 
L 366.432617 219.48177 
L 368.796289 234.420367 
L 368.993262 234.541419 
L 369.190234 234.052588 
L 369.58418 231.749736 
L 370.37207 226.628765 
L 370.962988 222.596611 
L 371.553906 215.837695 
L 372.144824 209.535941 
L 372.341797 208.621542 
L 372.53877 208.572594 
L 372.735742 209.418882 
L 373.129687 213.399515 
L 374.114551 225.563816 
L 374.311523 226.348663 
L 374.508496 226.208348 
L 374.705469 225.140735 
L 375.099414 220.789528 
L 375.690332 213.357292 
L 375.887305 211.969429 
L 376.084277 211.381674 
L 376.28125 211.479161 
L 376.872168 213.026175 
L 377.069141 213.067206 
L 377.266113 212.697318 
L 377.857031 210.217687 
L 378.447949 207.94973 
L 378.841895 206.944085 
L 379.038867 206.66238 
L 379.23584 206.600057 
L 379.432812 206.803105 
L 379.826758 207.983292 
L 380.417676 210.269624 
L 380.614648 210.644948 
L 380.811621 210.712483 
L 381.402539 210.225868 
L 381.599512 210.610601 
L 381.796484 211.673053 
L 382.19043 216.141677 
L 383.175293 230.307718 
L 383.372266 231.169683 
L 383.569238 231.102695 
L 383.766211 230.231429 
L 384.160156 226.795674 
L 385.341992 214.450589 
L 385.735937 213.016782 
L 385.93291 212.961479 
L 386.523828 213.699645 
L 386.720801 213.605411 
L 386.917773 213.082972 
L 387.311719 210.637232 
L 388.296582 202.475177 
L 388.493555 201.874836 
L 388.690527 201.828154 
L 388.8875 202.31256 
L 389.281445 204.647114 
L 390.069336 212.401346 
L 390.463281 215.779859 
L 390.660254 216.778623 
L 390.857227 217.175433 
L 391.054199 216.965271 
L 391.448145 215.128623 
L 392.433008 209.36407 
L 392.826953 208.226103 
L 393.023926 207.959788 
L 393.220898 207.909388 
L 393.417871 208.089712 
L 393.811816 209.211176 
L 394.205762 211.409134 
L 395.58457 221.581603 
L 395.781543 221.853585 
L 395.978516 221.723433 
L 396.569434 220.805219 
L 396.766406 220.974112 
L 397.160352 222.285702 
L 397.554297 223.610794 
L 397.75127 223.653711 
L 397.948242 223.082988 
L 398.342188 220.344167 
L 398.933105 215.571264 
L 399.327051 214.094735 
L 399.524023 213.957636 
L 399.720996 214.155533 
L 399.917969 214.657999 
L 400.311914 216.595605 
L 400.902832 221.553809 
L 401.49375 226.153293 
L 401.887695 227.550525 
L 402.084668 227.768606 
L 402.281641 227.705358 
L 402.478613 227.318396 
L 402.675586 226.507605 
L 403.069531 223.189077 
L 404.251367 209.006855 
L 404.44834 208.683626 
L 404.645312 209.114355 
L 405.039258 211.370497 
L 406.024121 217.758006 
L 406.615039 220.497524 
L 407.008984 221.394726 
L 407.205957 221.532805 
L 407.40293 221.496104 
L 407.599902 221.288866 
L 407.796875 220.87995 
L 408.19082 219.18129 
L 408.781738 214.338523 
L 409.175684 211.434565 
L 409.372656 210.763727 
L 409.569629 210.724022 
L 409.766602 211.20959 
L 410.35752 213.423933 
L 410.554492 213.663614 
L 410.751465 213.485581 
L 411.14541 212.179576 
L 411.539355 210.832012 
L 411.736328 210.723991 
L 411.933301 211.268619 
L 412.130273 212.578866 
L 412.524219 217.348374 
L 413.509082 231.54893 
L 413.903027 234.223215 
L 414.1 234.743255 
L 414.1 234.743255 
" style="fill:none;stroke:#fbb4ae;stroke-linecap:square;stroke-width:1.5;"/>
   </g>
   <g id="patch_3">
    <path d="M 10.7 248.6 
L 10.7 10.7 
" style="fill:none;stroke:#ffffff;stroke-linecap:square;stroke-linejoin:miter;stroke-width:0.8;"/>
   </g>
   <g id="patch_4">
    <path d="M 414.1 248.6 
L 414.1 10.7 
" style="fill:none;stroke:#ffffff;stroke-linecap:square;stroke-linejoin:miter;stroke-width:0.8;"/>
   </g>
   <g id="patch_5">
    <path d="M 10.7 248.6 
L 414.1 248.6 
" style="fill:none;stroke:#ffffff;stroke-linecap:square;stroke-linejoin:miter;stroke-width:0.8;"/>
   </g>
   <g id="patch_6">
    <path d="M 10.7 10.7 
L 414.1 10.7 
" style="fill:none;stroke:#ffffff;stroke-linecap:square;stroke-linejoin:miter;stroke-width:0.8;"/>
   </g>
  </g>
 </g>
 <defs>
  <clipPath id="p0ec3f43dc7">
   <rect height="237.9" width="403.4" x="10.7" y="10.7"/>
  </clipPath>
 </defs>
</svg>
