<?xml version="1.0" encoding="utf-8" standalone="no"?>
<!DOCTYPE svg PUBLIC "-//W3C//DTD SVG 1.1//EN"
  "http://www.w3.org/Graphics/SVG/1.1/DTD/svg11.dtd">
<!-- Created with matplotlib (http://matplotlib.org/) -->
<svg height="281pt" version="1.1" viewBox="0 0 424 281" width="424pt" xmlns="http://www.w3.org/2000/svg" xmlns:xlink="http://www.w3.org/1999/xlink">
 <defs>
  <style type="text/css">
*{stroke-linecap:butt;stroke-linejoin:round;}
  </style>
 </defs>
 <g id="figure_1">
  <g id="patch_1">
   <path d="M 0 281.4 
L 424.8 281.4 
L 424.8 0 
L 0 0 
z
" style="fill:none;"/>
  </g>
  <g id="axes_1">
   <g id="patch_2">
    <path d="M 10.7 248.6 
L 414.1 248.6 
L 414.1 10.7 
L 10.7 10.7 
z
" style="fill:none;"/>
   </g>
   <g id="matplotlib.axis_1">
    <g id="text_1">
     <!-- $t$ -->
     <defs>
      <path d="M 6.203125 8.109375 
Q 6.203125 9.578125 6.5 10.890625 
L 13.71875 39.59375 
L 3.21875 39.59375 
Q 2.203125 39.59375 2.203125 40.921875 
Q 2.59375 43.109375 3.515625 43.109375 
L 14.59375 43.109375 
L 18.609375 59.421875 
Q 19 60.75 20.171875 61.671875 
Q 21.34375 62.59375 22.796875 62.59375 
Q 24.078125 62.59375 24.921875 61.828125 
Q 25.78125 61.078125 25.78125 59.8125 
Q 25.78125 59.515625 25.75 59.34375 
Q 25.734375 59.1875 25.6875 58.984375 
L 21.6875 43.109375 
L 31.984375 43.109375 
Q 33.015625 43.109375 33.015625 41.796875 
Q 32.953125 41.546875 32.8125 40.953125 
Q 32.671875 40.375 32.421875 39.984375 
Q 32.171875 39.59375 31.6875 39.59375 
L 20.796875 39.59375 
L 13.625 10.6875 
Q 12.890625 7.859375 12.890625 5.8125 
Q 12.890625 1.515625 15.828125 1.515625 
Q 20.21875 1.515625 23.609375 5.640625 
Q 27 9.765625 28.8125 14.703125 
Q 29.203125 15.28125 29.59375 15.28125 
L 30.8125 15.28125 
Q 31.203125 15.28125 31.4375 15.015625 
Q 31.6875 14.75 31.6875 14.40625 
Q 31.6875 14.203125 31.59375 14.109375 
Q 29.390625 8.0625 25.1875 3.46875 
Q 21 -1.125 15.578125 -1.125 
Q 11.625 -1.125 8.90625 1.453125 
Q 6.203125 4.046875 6.203125 8.109375 
z
" id="Cmmi10-74"/>
     </defs>
     <g style="fill:#ffffff;" transform="translate(207.96 269.88)scale(0.24 -0.24)">
      <use transform="translate(0 0.40625)" xlink:href="#Cmmi10-74"/>
     </g>
    </g>
   </g>
   <g id="matplotlib.axis_2"/>
   <g id="line2d_1">
    <path clip-path="url(#p5b3631717d)" d="M 10.7 215.000903 
L 10.896973 215.19934 
L 11.290918 216.028836 
L 12.078809 217.890025 
L 12.866699 219.091264 
L 14.048535 220.668436 
L 14.245508 220.414931 
L 14.639453 218.881946 
L 15.230371 216.13186 
L 15.427344 216.086956 
L 15.624316 216.797082 
L 16.018262 220.278079 
L 16.60918 226.531576 
L 16.806152 227.631156 
L 17.003125 227.951784 
L 17.200098 227.493755 
L 17.594043 224.586322 
L 18.775879 211.501175 
L 18.972852 211.015366 
L 19.169824 211.466633 
L 19.56377 214.762729 
L 20.35166 223.372337 
L 20.745605 225.573233 
L 21.730469 228.798801 
L 21.927441 229.209085 
L 22.124414 229.231712 
L 22.321387 228.749056 
L 22.715332 226.265461 
L 24.094141 213.959344 
L 24.488086 212.332821 
L 24.685059 212.018872 
L 24.882031 211.98958 
L 25.275977 212.474924 
L 26.851758 215.39961 
L 27.836621 217.969981 
L 28.033594 218.065919 
L 28.230566 217.88068 
L 28.624512 216.599432 
L 29.806348 210.623224 
L 30.00332 210.562752 
L 30.200293 210.950075 
L 30.594238 212.667145 
L 31.185156 215.065615 
L 31.382129 215.342383 
L 31.579102 215.363424 
L 32.563965 214.733161 
L 32.760937 214.90393 
L 33.154883 215.727758 
L 34.336719 219.198104 
L 34.533691 219.123295 
L 34.730664 218.7484 
L 35.124609 217.264181 
L 36.306445 211.505328 
L 36.503418 211.099154 
L 36.700391 210.976158 
L 36.897363 211.099241 
L 38.276172 213.350918 
L 38.670117 214.511558 
L 39.458008 217.995425 
L 39.65498 218.25143 
L 39.851953 218.012666 
L 40.245898 216.412863 
L 40.639844 214.859192 
L 40.836816 214.681462 
L 41.033789 215.037274 
L 41.427734 217.068348 
L 42.215625 222.268195 
L 42.60957 223.711449 
L 42.806543 223.909225 
L 43.003516 223.683344 
L 43.200488 222.999855 
L 43.594434 220.32202 
L 44.579297 211.945986 
L 44.77627 211.636251 
L 44.973242 212.148328 
L 45.367187 215.293492 
L 45.958105 221.265768 
L 46.352051 222.938674 
L 46.549023 222.805504 
L 46.942969 221.15293 
L 47.730859 217.194517 
L 47.927832 216.75457 
L 48.124805 216.588752 
L 48.321777 216.678614 
L 48.715723 217.498418 
L 50.488477 223.546832 
L 51.079395 226.292719 
L 51.276367 226.710622 
L 51.47334 226.532738 
L 51.670312 225.664144 
L 52.064258 222.209081 
L 52.655176 216.52691 
L 53.049121 214.883785 
L 53.246094 214.83358 
L 53.443066 215.221258 
L 53.837012 217.058843 
L 54.821875 223.47167 
L 55.21582 224.399365 
L 56.003711 225.005204 
L 56.397656 225.443731 
L 56.594629 225.347952 
L 56.791602 224.895747 
L 57.185547 223.02291 
L 57.776465 220.153132 
L 57.973437 219.800404 
L 58.17041 219.799002 
L 58.564355 220.434384 
L 59.155273 221.361688 
L 59.549219 221.897788 
L 59.943164 223.023241 
L 60.731055 226.092829 
L 60.928027 226.461509 
L 61.125 226.584242 
L 61.321973 226.511321 
L 62.306836 225.409813 
L 63.094727 224.399051 
L 63.685645 223.628409 
L 63.882617 223.57405 
L 64.07959 223.74018 
L 64.276562 224.181035 
L 64.670508 225.858852 
L 66.246289 234.286766 
L 66.443262 234.760222 
L 66.640234 234.714182 
L 66.837207 234.032716 
L 67.231152 230.861811 
L 68.019043 223.22376 
L 68.412988 221.884015 
L 68.609961 221.824262 
L 69.200879 222.388599 
L 69.791797 222.824765 
L 69.98877 222.883033 
L 70.185742 222.80931 
L 70.382715 222.524653 
L 70.77666 221.180881 
L 72.549414 212.659839 
L 72.746387 212.510136 
L 72.943359 212.866626 
L 73.337305 215.110179 
L 74.125195 220.812288 
L 74.322168 221.355093 
L 74.519141 221.452337 
L 74.716113 221.214804 
L 75.307031 219.746225 
L 75.897949 217.81077 
L 76.68584 214.399854 
L 76.882812 214.06408 
L 77.079785 214.107769 
L 77.47373 215.032202 
L 77.867676 216.090789 
L 78.064648 216.364836 
L 78.458594 216.404052 
L 78.655566 216.379905 
L 78.852539 216.524445 
L 79.049512 216.971932 
L 79.443457 218.96777 
L 80.034375 222.940692 
L 80.231348 223.56978 
L 80.42832 223.458669 
L 80.625293 222.494961 
L 81.019238 218.180496 
L 81.807129 207.15163 
L 82.004102 205.932819 
L 82.201074 205.855461 
L 82.398047 206.938983 
L 82.791992 211.76622 
L 83.38291 219.917978 
L 83.776855 222.47482 
L 83.973828 222.82063 
L 84.170801 222.788772 
L 84.761719 222.280893 
L 85.549609 222.04247 
L 85.943555 221.268122 
L 86.3375 219.818858 
L 87.519336 214.378105 
L 87.716309 214.354873 
L 87.913281 214.864458 
L 88.307227 217.42876 
L 89.29209 225.956881 
L 89.489062 226.531459 
L 89.686035 226.482292 
L 89.883008 225.858348 
L 90.276953 223.423211 
L 91.261816 216.773665 
L 91.852734 214.214537 
L 92.24668 213.417613 
L 92.443652 213.435389 
L 92.640625 213.777621 
L 93.03457 215.373628 
L 93.625488 218.496997 
L 93.822461 219.039317 
L 94.019434 219.062697 
L 94.216406 218.519389 
L 94.610352 216.122896 
L 95.20127 212.460064 
L 95.595215 211.659544 
L 96.580078 211.543485 
L 96.777051 211.684417 
L 96.974023 212.148169 
L 97.367969 214.261596 
L 98.155859 219.605846 
L 98.352832 220.205023 
L 98.549805 220.424582 
L 98.746777 220.324945 
L 99.140723 219.372351 
L 100.125586 215.684078 
L 100.322559 215.908551 
L 100.716504 217.967369 
L 101.307422 221.768055 
L 101.504395 222.255496 
L 101.701367 222.243493 
L 102.292285 221.084796 
L 102.489258 221.189413 
L 102.68623 221.866093 
L 103.080176 224.862577 
L 103.671094 229.728106 
L 103.868066 230.042226 
L 104.065039 229.256348 
L 104.458984 224.26499 
L 105.837793 198.763964 
L 106.034766 198.072333 
L 106.231738 198.366324 
L 106.428711 199.497978 
L 106.822656 203.694137 
L 107.413574 213.845259 
L 108.792383 242.31076 
L 108.989355 243.183269 
L 109.186328 242.635137 
L 109.383301 240.755222 
L 109.777246 234.061505 
L 110.565137 220.124946 
L 110.959082 217.652989 
L 111.156055 217.66301 
L 111.353027 218.266226 
L 112.140918 221.998796 
L 112.337891 222.247654 
L 112.534863 221.939855 
L 112.731836 221.032343 
L 113.125781 217.637284 
L 113.913672 209.385769 
L 114.307617 207.144995 
L 114.50459 206.62494 
L 114.701562 206.429011 
L 114.898535 206.499165 
L 115.095508 206.802769 
L 115.489453 208.047511 
L 116.277344 211.333187 
L 116.474316 211.628557 
L 116.671289 211.545622 
L 117.065234 210.54407 
L 117.45918 209.688945 
L 117.656152 209.866037 
L 117.853125 210.651862 
L 118.24707 214.106774 
L 119.231934 225.42698 
L 119.428906 226.396924 
L 119.625879 226.741775 
L 119.822852 226.580847 
L 120.41377 225.2238 
L 120.610742 225.164405 
L 120.807715 225.453611 
L 121.398633 226.913438 
L 121.595605 226.729897 
L 121.792578 225.840545 
L 122.186523 222.009826 
L 122.777441 215.142568 
L 122.974414 213.90924 
L 123.171387 213.535788 
L 123.368359 214.010308 
L 123.762305 216.925627 
L 124.550195 224.70394 
L 124.944141 226.403192 
L 125.141113 226.274487 
L 125.338086 225.531791 
L 126.322949 219.409907 
L 126.519922 219.063877 
L 126.716895 219.230233 
L 126.913867 219.887142 
L 127.307812 222.303458 
L 127.701758 224.961232 
L 127.89873 225.742991 
L 128.095703 225.840965 
L 128.292676 225.121417 
L 128.686621 221.406199 
L 129.474512 211.78206 
L 129.868457 209.611303 
L 130.06543 209.332716 
L 130.262402 209.438388 
L 130.656348 210.365938 
L 131.050293 212.059416 
L 131.444238 214.798249 
L 132.823047 226.229255 
L 133.216992 227.290686 
L 133.413965 227.416437 
L 133.610937 227.300489 
L 134.004883 226.437944 
L 135.186719 222.033714 
L 135.777637 219.669421 
L 136.368555 216.068063 
L 137.156445 211.309524 
L 137.550391 210.320376 
L 137.747363 210.366096 
L 137.944336 210.801264 
L 138.338281 212.696331 
L 139.126172 217.129085 
L 139.323145 217.612569 
L 139.520117 217.799312 
L 139.914062 217.807126 
L 140.111035 217.959859 
L 140.308008 218.383696 
L 140.701953 220.105884 
L 141.489844 224.20413 
L 141.883789 225.163272 
L 142.080762 225.244452 
L 142.277734 224.992826 
L 142.474707 224.348376 
L 142.868652 221.936387 
L 143.262598 219.20334 
L 143.45957 218.477173 
L 143.656543 218.546888 
L 143.853516 219.499581 
L 144.838379 227.982617 
L 145.035352 227.872325 
L 145.232324 226.821517 
L 145.62627 222.696333 
L 146.611133 211.19961 
L 147.202051 207.18385 
L 147.595996 205.803205 
L 147.792969 205.51904 
L 147.989941 205.497163 
L 148.383887 206.038969 
L 148.974805 206.992717 
L 149.565723 207.203024 
L 149.762695 207.584827 
L 149.959668 208.464387 
L 150.353613 212.304676 
L 151.535449 230.282616 
L 151.732422 231.230161 
L 151.929395 231.274689 
L 152.126367 230.598228 
L 152.717285 226.577944 
L 153.899121 218.350566 
L 154.096094 217.709993 
L 154.293066 217.636236 
L 154.490039 218.172449 
L 154.883984 220.716449 
L 155.868848 228.126268 
L 156.262793 229.419656 
L 156.459766 229.490589 
L 156.656738 229.159953 
L 157.050684 227.540941 
L 157.838574 223.847112 
L 158.23252 223.074864 
L 158.429492 222.973064 
L 158.823437 223.140345 
L 159.414355 223.630318 
L 159.611328 223.649168 
L 159.808301 223.513642 
L 160.202246 222.751866 
L 160.793164 221.303212 
L 160.990137 221.120991 
L 161.187109 221.167889 
L 161.778027 221.840829 
L 161.975 221.763059 
L 162.171973 221.339984 
L 162.565918 219.482663 
L 163.353809 215.201746 
L 163.550781 214.787697 
L 163.747754 214.715503 
L 164.535645 215.397073 
L 164.732617 215.036188 
L 165.126562 213.184197 
L 166.111426 206.533945 
L 166.308398 205.940814 
L 166.505371 205.84655 
L 166.702344 206.258078 
L 167.096289 208.237937 
L 167.687207 211.58676 
L 168.081152 212.754029 
L 169.066016 214.42161 
L 169.459961 215.978545 
L 170.641797 222.465621 
L 170.83877 222.414879 
L 171.035742 221.623811 
L 171.429687 217.907115 
L 172.611523 203.010519 
L 173.005469 200.636636 
L 173.399414 199.787297 
L 173.596387 199.835113 
L 173.793359 200.146254 
L 174.187305 201.496614 
L 174.58125 203.978276 
L 174.975195 207.878627 
L 176.747949 228.791042 
L 178.126758 237.813321 
L 178.32373 238.67571 
L 178.520703 238.953504 
L 178.717676 238.480085 
L 179.111621 235.236778 
L 180.096484 223.388919 
L 180.293457 222.355146 
L 180.49043 222.019764 
L 180.687402 222.298291 
L 181.081348 224.044569 
L 181.672266 226.92387 
L 182.066211 227.650129 
L 182.263184 227.553616 
L 182.460156 227.157502 
L 182.854102 225.370316 
L 183.248047 221.685032 
L 183.641992 215.510533 
L 184.429883 201.447589 
L 184.626855 199.581882 
L 184.823828 198.779421 
L 185.020801 198.949809 
L 185.414746 201.256782 
L 186.202637 206.875161 
L 186.596582 208.447703 
L 187.384473 210.346039 
L 188.369336 212.847308 
L 188.763281 214.484835 
L 189.354199 218.343497 
L 190.14209 223.504053 
L 190.339062 224.113046 
L 190.536035 224.317161 
L 190.733008 224.122293 
L 191.126953 222.799452 
L 191.717871 220.425572 
L 191.914844 220.138623 
L 192.111816 220.282609 
L 192.505762 221.773472 
L 193.09668 224.510671 
L 193.293652 224.727922 
L 193.490625 224.432316 
L 193.88457 222.720673 
L 194.278516 220.983059 
L 194.475488 220.617223 
L 194.672461 220.679937 
L 195.066406 221.656454 
L 195.460352 222.413657 
L 195.657324 222.28187 
L 196.05127 220.908894 
L 196.83916 217.386364 
L 197.233105 216.724218 
L 197.627051 216.561486 
L 197.824023 216.599363 
L 198.020996 216.762382 
L 198.217969 217.116851 
L 198.611914 218.641761 
L 199.005859 221.373866 
L 199.990723 229.325109 
L 200.187695 230.035458 
L 200.384668 230.237973 
L 200.581641 229.949105 
L 200.975586 228.13438 
L 201.566504 223.50551 
L 202.354395 217.375129 
L 202.74834 215.655999 
L 202.945312 215.240749 
L 203.142285 215.144966 
L 203.339258 215.397093 
L 203.733203 216.98121 
L 204.718066 223.172346 
L 205.112012 223.997061 
L 205.505957 224.296596 
L 205.899902 225.096844 
L 206.49082 226.707213 
L 206.687793 226.893993 
L 206.884766 226.838067 
L 207.278711 226.27069 
L 208.066602 224.704016 
L 208.65752 222.496225 
L 209.051465 221.014819 
L 209.248437 220.586452 
L 209.44541 220.470414 
L 209.642383 220.68468 
L 210.036328 221.896722 
L 210.430273 223.283701 
L 210.627246 223.613281 
L 210.824219 223.503236 
L 211.021191 222.892865 
L 211.415137 220.459596 
L 212.006055 216.81288 
L 212.203027 216.315 
L 212.4 216.197005 
L 212.990918 186.656033 
L 212.990918 186.656033 
" style="fill:none;stroke:#fbb4ae;stroke-linecap:square;stroke-width:1.5;"/>
   </g>
   <g id="patch_3">
    <path d="M 10.7 248.6 
L 10.7 10.7 
" style="fill:none;stroke:#ffffff;stroke-linecap:square;stroke-linejoin:miter;stroke-width:0.8;"/>
   </g>
   <g id="patch_4">
    <path d="M 414.1 248.6 
L 414.1 10.7 
" style="fill:none;stroke:#ffffff;stroke-linecap:square;stroke-linejoin:miter;stroke-width:0.8;"/>
   </g>
   <g id="patch_5">
    <path d="M 10.7 248.6 
L 414.1 248.6 
" style="fill:none;stroke:#ffffff;stroke-linecap:square;stroke-linejoin:miter;stroke-width:0.8;"/>
   </g>
   <g id="patch_6">
    <path d="M 10.7 10.7 
L 414.1 10.7 
" style="fill:none;stroke:#ffffff;stroke-linecap:square;stroke-linejoin:miter;stroke-width:0.8;"/>
   </g>
  </g>
 </g>
 <defs>
  <clipPath id="p5b3631717d">
   <rect height="237.9" width="403.4" x="10.7" y="10.7"/>
  </clipPath>
 </defs>
</svg>
