<?xml version="1.0" encoding="utf-8" standalone="no"?>
<!DOCTYPE svg PUBLIC "-//W3C//DTD SVG 1.1//EN"
  "http://www.w3.org/Graphics/SVG/1.1/DTD/svg11.dtd">
<!-- Created with matplotlib (http://matplotlib.org/) -->
<svg height="288pt" version="1.1" viewBox="0 0 432 288" width="432pt" xmlns="http://www.w3.org/2000/svg" xmlns:xlink="http://www.w3.org/1999/xlink">
 <defs>
  <style type="text/css">
*{stroke-linecap:butt;stroke-linejoin:round;}
  </style>
 </defs>
 <g id="figure_1">
  <g id="patch_1">
   <path d="M 0 288 
L 432 288 
L 432 0 
L 0 0 
z
" style="fill:none;"/>
  </g>
  <g id="axes_1">
   <g id="patch_2">
    <path d="M 80.863004 226.2 
L 417.7 226.2 
L 417.7 36.58125 
L 80.863004 36.58125 
z
" style="fill:none;"/>
   </g>
   <g id="patch_3">
    <path clip-path="url(#p6aa76be5f8)" d="M 96.173776 226.2 
L 124.011544 226.2 
L 124.011544 45.610714 
L 96.173776 45.610714 
z
" style="fill:#fbb4ae;"/>
   </g>
   <g id="patch_4">
    <path clip-path="url(#p6aa76be5f8)" d="M 130.970986 226.2 
L 158.808755 226.2 
L 158.808755 226.2 
L 130.970986 226.2 
z
" style="fill:#fbb4ae;"/>
   </g>
   <g id="patch_5">
    <path clip-path="url(#p6aa76be5f8)" d="M 165.768197 226.2 
L 193.605965 226.2 
L 193.605965 155.901403 
L 165.768197 155.901403 
z
" style="fill:#fbb4ae;"/>
   </g>
   <g id="patch_6">
    <path clip-path="url(#p6aa76be5f8)" d="M 200.565407 226.2 
L 228.403176 226.2 
L 228.403176 226.2 
L 200.565407 226.2 
z
" style="fill:#fbb4ae;"/>
   </g>
   <g id="patch_7">
    <path clip-path="url(#p6aa76be5f8)" d="M 235.362618 226.2 
L 263.200386 226.2 
L 263.200386 185.151944 
L 235.362618 185.151944 
z
" style="fill:#fbb4ae;"/>
   </g>
   <g id="patch_8">
    <path clip-path="url(#p6aa76be5f8)" d="M 270.159828 226.2 
L 297.997596 226.2 
L 297.997596 226.2 
L 270.159828 226.2 
z
" style="fill:#fbb4ae;opacity:0.5;"/>
   </g>
   <g id="patch_9">
    <path clip-path="url(#p6aa76be5f8)" d="M 304.957038 226.2 
L 332.794807 226.2 
L 332.794807 199.568476 
L 304.957038 199.568476 
z
" style="fill:#fbb4ae;opacity:0.5;"/>
   </g>
   <g id="patch_10">
    <path clip-path="url(#p6aa76be5f8)" d="M 339.754249 226.2 
L 367.592017 226.2 
L 367.592017 226.2 
L 339.754249 226.2 
z
" style="fill:#fbb4ae;opacity:0.5;"/>
   </g>
   <g id="patch_11">
    <path clip-path="url(#p6aa76be5f8)" d="M 374.551459 226.2 
L 402.389227 226.2 
L 402.389227 208.05785 
L 374.551459 208.05785 
z
" style="fill:#fbb4ae;opacity:0.5;"/>
   </g>
   <g id="matplotlib.axis_1">
    <g id="xtick_1">
     <g id="line2d_1">
      <defs>
       <path d="M 0 0 
L 0 3.5 
" id="mab97a585ac" style="stroke:#ffffff;stroke-width:0.8;"/>
      </defs>
      <g>
       <use style="fill:#ffffff;stroke:#ffffff;stroke-width:0.8;" x="110.09266" xlink:href="#mab97a585ac" y="226.2"/>
      </g>
     </g>
     <g id="text_1">
      <!-- $\mathdefault{0}$ -->
      <defs>
       <path d="M 55.09375 35.90625 
Q 55.09375 26.5 53.0625 19.59375 
Q 51.046875 12.703125 47.515625 8.171875 
Q 44 3.65625 39.21875 1.453125 
Q 34.453125 -0.75 28.953125 -0.75 
Q 23.453125 -0.75 18.703125 1.453125 
Q 13.953125 3.65625 10.421875 8.171875 
Q 6.90625 12.703125 4.90625 19.59375 
Q 2.90625 26.5 2.90625 35.90625 
Q 2.90625 45.296875 4.90625 52.1875 
Q 6.90625 59.09375 10.421875 63.625 
Q 13.953125 68.15625 18.703125 70.34375 
Q 23.453125 72.546875 28.953125 72.546875 
Q 34.453125 72.546875 39.21875 70.34375 
Q 44 68.15625 47.515625 63.625 
Q 51.046875 59.09375 53.0625 52.1875 
Q 55.09375 45.296875 55.09375 35.90625 
z
M 45.25 35.90625 
Q 45.25 44 43.890625 49.5 
Q 42.546875 55 40.296875 58.34375 
Q 38.046875 61.703125 35.09375 63.125 
Q 32.15625 64.546875 28.953125 64.546875 
Q 25.75 64.546875 22.796875 63.125 
Q 19.84375 61.703125 17.59375 58.34375 
Q 15.34375 55 14.015625 49.5 
Q 12.703125 44 12.703125 35.90625 
Q 12.703125 27.75 14.015625 22.25 
Q 15.34375 16.75 17.59375 13.421875 
Q 19.84375 10.09375 22.796875 8.671875 
Q 25.75 7.25 28.953125 7.25 
Q 32.15625 7.25 35.09375 8.671875 
Q 38.046875 10.09375 40.296875 13.421875 
Q 42.546875 16.75 43.890625 22.25 
Q 45.25 27.75 45.25 35.90625 
z
" id="Lato-Medium-30"/>
      </defs>
      <g style="fill:#ffffff;" transform="translate(104.87266 246.475)scale(0.18 -0.18)">
       <use transform="translate(0 0.453125)" xlink:href="#Lato-Medium-30"/>
      </g>
     </g>
    </g>
    <g id="xtick_2">
     <g id="line2d_2">
      <g>
       <use style="fill:#ffffff;stroke:#ffffff;stroke-width:0.8;" x="179.687081" xlink:href="#mab97a585ac" y="226.2"/>
      </g>
     </g>
     <g id="text_2">
      <!-- $\mathdefault{2}$ -->
      <defs>
       <path d="M 29.59375 72.546875 
Q 34.25 72.546875 38.203125 71.171875 
Q 42.15625 69.796875 45.046875 67.21875 
Q 47.953125 64.65625 49.59375 60.921875 
Q 51.25 57.203125 51.25 52.5 
Q 51.25 48.5 50.078125 45.078125 
Q 48.90625 41.65625 46.875 38.546875 
Q 44.84375 35.453125 42.171875 32.5 
Q 39.5 29.546875 36.5 26.546875 
L 18.046875 7.75 
Q 20.09375 8.296875 22.1875 8.640625 
Q 24.296875 9 26.203125 9 
L 49.296875 9 
Q 50.84375 9 51.75 8.09375 
Q 52.65625 7.203125 52.65625 5.75 
L 52.65625 0 
L 4.546875 0 
L 4.546875 3.25 
Q 4.546875 4.25 4.96875 5.328125 
Q 5.40625 6.40625 6.296875 7.25 
L 29.046875 30.15625 
Q 31.90625 33.046875 34.203125 35.6875 
Q 36.5 38.34375 38.140625 41 
Q 39.796875 43.65625 40.671875 46.375 
Q 41.546875 49.09375 41.546875 52.203125 
Q 41.546875 55.25 40.59375 57.546875 
Q 39.65625 59.84375 37.96875 61.390625 
Q 36.296875 62.953125 34 63.703125 
Q 31.703125 64.453125 29.046875 64.453125 
Q 26.40625 64.453125 24.203125 63.671875 
Q 22 62.90625 20.265625 61.53125 
Q 18.546875 60.15625 17.375 58.28125 
Q 16.203125 56.40625 15.703125 54.15625 
Q 15.046875 52.296875 13.96875 51.671875 
Q 12.90625 51.046875 10.953125 51.34375 
L 5.953125 52.25 
Q 6.703125 57.203125 8.71875 61 
Q 10.75 64.796875 13.84375 67.375 
Q 16.953125 69.953125 20.953125 71.25 
Q 24.953125 72.546875 29.59375 72.546875 
z
" id="Lato-Medium-32"/>
      </defs>
      <g style="fill:#ffffff;" transform="translate(174.467081 246.475)scale(0.18 -0.18)">
       <use transform="translate(0 0.453125)" xlink:href="#Lato-Medium-32"/>
      </g>
     </g>
    </g>
    <g id="xtick_3">
     <g id="line2d_3">
      <g>
       <use style="fill:#ffffff;stroke:#ffffff;stroke-width:0.8;" x="249.281502" xlink:href="#mab97a585ac" y="226.2"/>
      </g>
     </g>
     <g id="text_3">
      <!-- $\mathdefault{4}$ -->
      <defs>
       <path d="M 44.65625 26.09375 
L 55.203125 26.09375 
L 55.203125 20.59375 
Q 55.203125 19.75 54.671875 19.171875 
Q 54.15625 18.59375 53.15625 18.59375 
L 44.65625 18.59375 
L 44.65625 0 
L 36.34375 0 
L 36.34375 18.59375 
L 4.75 18.59375 
Q 3.703125 18.59375 2.953125 19.1875 
Q 2.203125 19.796875 2 20.75 
L 1.046875 25.59375 
L 35.796875 71.796875 
L 44.65625 71.796875 
z
M 36.34375 54.59375 
Q 36.34375 55.953125 36.4375 57.546875 
Q 36.546875 59.15625 36.796875 60.84375 
L 11.296875 26.09375 
L 36.34375 26.09375 
z
" id="Lato-Medium-34"/>
      </defs>
      <g style="fill:#ffffff;" transform="translate(244.061502 246.475)scale(0.18 -0.18)">
       <use transform="translate(0 0.203125)" xlink:href="#Lato-Medium-34"/>
      </g>
     </g>
    </g>
    <g id="xtick_4">
     <g id="line2d_4">
      <g>
       <use style="fill:#ffffff;stroke:#ffffff;stroke-width:0.8;" x="318.875923" xlink:href="#mab97a585ac" y="226.2"/>
      </g>
     </g>
     <g id="text_4">
      <!-- $\mathdefault{6}$ -->
      <defs>
       <path d="M 24.09375 45 
Q 23.203125 43.84375 22.34375 42.796875 
Q 21.5 41.75 20.75 40.703125 
Q 23.203125 42.296875 26.171875 43.1875 
Q 29.15625 44.09375 32.59375 44.09375 
Q 36.90625 44.09375 40.75 42.6875 
Q 44.59375 41.296875 47.515625 38.5625 
Q 50.453125 35.84375 52.140625 31.84375 
Q 53.84375 27.84375 53.84375 22.703125 
Q 53.84375 17.75 52.046875 13.453125 
Q 50.25 9.15625 46.96875 6 
Q 43.703125 2.84375 39.140625 1.015625 
Q 34.59375 -0.796875 29.09375 -0.796875 
Q 23.59375 -0.796875 19.1875 0.953125 
Q 14.796875 2.703125 11.671875 5.921875 
Q 8.546875 9.15625 6.875 13.703125 
Q 5.203125 18.25 5.203125 23.84375 
Q 5.203125 28.59375 7.265625 33.921875 
Q 9.34375 39.25 13.84375 45.296875 
L 31.90625 69.453125 
Q 32.59375 70.453125 33.9375 71.09375 
Q 35.296875 71.75 36.953125 71.75 
L 45.40625 71.75 
z
M 14.296875 22.203125 
Q 14.296875 18.84375 15.265625 16.0625 
Q 16.25 13.296875 18.125 11.296875 
Q 20 9.296875 22.71875 8.1875 
Q 25.453125 7.09375 28.90625 7.09375 
Q 32.40625 7.09375 35.25 8.21875 
Q 38.09375 9.34375 40.125 11.34375 
Q 42.15625 13.34375 43.25 16.0625 
Q 44.34375 18.796875 44.34375 22 
Q 44.34375 25.453125 43.265625 28.21875 
Q 42.203125 31 40.21875 32.890625 
Q 38.25 34.796875 35.515625 35.8125 
Q 32.796875 36.84375 29.5 36.84375 
Q 26 36.84375 23.171875 35.671875 
Q 20.34375 34.5 18.375 32.46875 
Q 16.40625 30.453125 15.34375 27.796875 
Q 14.296875 25.15625 14.296875 22.203125 
z
" id="Lato-Medium-36"/>
      </defs>
      <g style="fill:#ffffff;" transform="translate(313.655923 246.475)scale(0.18 -0.18)">
       <use transform="translate(0 0.25)" xlink:href="#Lato-Medium-36"/>
      </g>
     </g>
    </g>
    <g id="xtick_5">
     <g id="line2d_5">
      <g>
       <use style="fill:#ffffff;stroke:#ffffff;stroke-width:0.8;" x="388.470343" xlink:href="#mab97a585ac" y="226.2"/>
      </g>
     </g>
     <g id="text_5">
      <!-- $\mathdefault{8}$ -->
      <defs>
       <path d="M 29 -0.796875 
Q 23.59375 -0.796875 19.125 0.640625 
Q 14.65625 2.09375 11.453125 4.765625 
Q 8.25 7.453125 6.46875 11.21875 
Q 4.703125 15 4.703125 19.703125 
Q 4.703125 26.546875 8.21875 31 
Q 11.75 35.453125 18.453125 37.40625 
Q 12.84375 39.5 10 43.671875 
Q 7.15625 47.84375 7.15625 53.65625 
Q 7.15625 57.65625 8.71875 61.09375 
Q 10.296875 64.546875 13.171875 67.09375 
Q 16.046875 69.65625 20.0625 71.09375 
Q 24.09375 72.546875 29 72.546875 
Q 33.90625 72.546875 37.921875 71.09375 
Q 41.953125 69.65625 44.828125 67.09375 
Q 47.703125 64.546875 49.265625 61.09375 
Q 50.84375 57.65625 50.84375 53.65625 
Q 50.84375 47.84375 47.96875 43.671875 
Q 45.09375 39.5 39.5 37.40625 
Q 46.203125 35.453125 49.75 31 
Q 53.296875 26.546875 53.296875 19.703125 
Q 53.296875 15 51.515625 11.21875 
Q 49.75 7.453125 46.546875 4.765625 
Q 43.34375 2.09375 38.875 0.640625 
Q 34.40625 -0.796875 29 -0.796875 
z
M 29 6.75 
Q 32.453125 6.75 35.140625 7.71875 
Q 37.84375 8.703125 39.71875 10.453125 
Q 41.59375 12.203125 42.5625 14.59375 
Q 43.546875 17 43.546875 19.90625 
Q 43.546875 23.453125 42.375 26 
Q 41.203125 28.546875 39.203125 30.171875 
Q 37.203125 31.796875 34.546875 32.5625 
Q 31.90625 33.34375 29 33.34375 
Q 26.046875 33.34375 23.421875 32.5625 
Q 20.796875 31.796875 18.796875 30.171875 
Q 16.796875 28.546875 15.625 26 
Q 14.453125 23.453125 14.453125 19.90625 
Q 14.453125 17 15.421875 14.59375 
Q 16.40625 12.203125 18.28125 10.453125 
Q 20.15625 8.703125 22.84375 7.71875 
Q 25.546875 6.75 29 6.75 
z
M 29 40.953125 
Q 32.453125 40.953125 34.828125 42 
Q 37.203125 43.046875 38.703125 44.796875 
Q 40.203125 46.546875 40.875 48.796875 
Q 41.546875 51.046875 41.546875 53.453125 
Q 41.546875 55.84375 40.765625 58 
Q 40 60.15625 38.421875 61.78125 
Q 36.84375 63.40625 34.5 64.328125 
Q 32.15625 65.25 29 65.25 
Q 25.84375 65.25 23.5 64.328125 
Q 21.15625 63.40625 19.578125 61.78125 
Q 18 60.15625 17.21875 58 
Q 16.453125 55.84375 16.453125 53.453125 
Q 16.453125 51.046875 17.125 48.796875 
Q 17.796875 46.546875 19.296875 44.796875 
Q 20.796875 43.046875 23.171875 42 
Q 25.546875 40.953125 29 40.953125 
z
" id="Lato-Medium-38"/>
      </defs>
      <g style="fill:#ffffff;" transform="translate(383.250343 246.475)scale(0.18 -0.18)">
       <use transform="translate(0 0.453125)" xlink:href="#Lato-Medium-38"/>
      </g>
     </g>
    </g>
    <g id="text_6">
     <!-- $n$ -->
     <defs>
      <path d="M 7.71875 1.703125 
Q 7.71875 2.296875 7.8125 2.59375 
L 15.28125 32.421875 
Q 16.015625 35.203125 16.015625 37.3125 
Q 16.015625 41.609375 13.09375 41.609375 
Q 9.96875 41.609375 8.453125 37.859375 
Q 6.9375 34.125 5.515625 28.421875 
Q 5.515625 28.125 5.21875 27.953125 
Q 4.9375 27.78125 4.6875 27.78125 
L 3.515625 27.78125 
Q 3.171875 27.78125 2.921875 28.140625 
Q 2.6875 28.515625 2.6875 28.8125 
Q 3.765625 33.15625 4.765625 36.171875 
Q 5.765625 39.203125 7.890625 41.6875 
Q 10.015625 44.1875 13.1875 44.1875 
Q 16.9375 44.1875 19.8125 41.8125 
Q 22.703125 39.453125 22.703125 35.796875 
Q 25.6875 39.703125 29.6875 41.9375 
Q 33.6875 44.1875 38.1875 44.1875 
Q 41.75 44.1875 44.328125 42.96875 
Q 46.921875 41.75 48.359375 39.28125 
Q 49.8125 36.8125 49.8125 33.40625 
Q 49.8125 29.296875 47.96875 23.484375 
Q 46.140625 17.671875 43.40625 10.5 
Q 42 7.234375 42 4.5 
Q 42 1.515625 44.28125 1.515625 
Q 48.1875 1.515625 50.796875 5.703125 
Q 53.421875 9.90625 54.5 14.703125 
Q 54.6875 15.28125 55.328125 15.28125 
L 56.5 15.28125 
Q 56.890625 15.28125 57.15625 15.03125 
Q 57.421875 14.796875 57.421875 14.40625 
Q 57.421875 14.3125 57.328125 14.109375 
Q 55.953125 8.453125 52.5625 3.65625 
Q 49.171875 -1.125 44.09375 -1.125 
Q 40.578125 -1.125 38.078125 1.296875 
Q 35.59375 3.71875 35.59375 7.171875 
Q 35.59375 9.03125 36.375 11.078125 
Q 37.640625 14.359375 39.28125 18.890625 
Q 40.921875 23.4375 41.96875 27.578125 
Q 43.015625 31.734375 43.015625 34.90625 
Q 43.015625 37.703125 41.859375 39.65625 
Q 40.71875 41.609375 37.984375 41.609375 
Q 34.328125 41.609375 31.25 39.984375 
Q 28.171875 38.375 25.875 35.71875 
Q 23.578125 33.0625 21.6875 29.390625 
L 14.890625 2.203125 
Q 14.546875 0.828125 13.34375 -0.140625 
Q 12.15625 -1.125 10.6875 -1.125 
Q 9.46875 -1.125 8.59375 -0.34375 
Q 7.71875 0.4375 7.71875 1.703125 
z
" id="Cmmi10-6e"/>
     </defs>
     <g style="fill:#ffffff;" transform="translate(241.961502 271.243437)scale(0.24 -0.24)">
      <use transform="translate(0 0.8125)" xlink:href="#Cmmi10-6e"/>
     </g>
    </g>
   </g>
   <g id="matplotlib.axis_2">
    <g id="ytick_1">
     <g id="line2d_6">
      <defs>
       <path d="M 0 0 
L -3.5 0 
" id="m356f4c62c2" style="stroke:#ffffff;stroke-width:0.8;"/>
      </defs>
      <g>
       <use style="fill:#ffffff;stroke:#ffffff;stroke-width:0.8;" x="80.863004" xlink:href="#m356f4c62c2" y="226.2"/>
      </g>
     </g>
     <g id="text_7">
      <!-- $\mathdefault{0.0}$ -->
      <defs>
       <path d="M 5.34375 5.75 
Q 5.34375 7.09375 5.84375 8.265625 
Q 6.34375 9.453125 7.1875 10.34375 
Q 8.046875 11.25 9.25 11.75 
Q 10.453125 12.25 11.796875 12.25 
Q 13.15625 12.25 14.328125 11.75 
Q 15.5 11.25 16.375 10.34375 
Q 17.25 9.453125 17.75 8.265625 
Q 18.25 7.09375 18.25 5.75 
Q 18.25 4.34375 17.75 3.171875 
Q 17.25 2 16.375 1.125 
Q 15.5 0.25 14.328125 -0.25 
Q 13.15625 -0.75 11.796875 -0.75 
Q 10.453125 -0.75 9.25 -0.25 
Q 8.046875 0.25 7.1875 1.125 
Q 6.34375 2 5.84375 3.171875 
Q 5.34375 4.34375 5.34375 5.75 
z
" id="Lato-Medium-2e"/>
      </defs>
      <g style="fill:#ffffff;" transform="translate(48.663004 232.8375)scale(0.18 -0.18)">
       <use transform="translate(0 0.453125)" xlink:href="#Lato-Medium-30"/>
       <use transform="translate(58 0.453125)" xlink:href="#Lato-Medium-2e"/>
       <use transform="translate(81.600006 0.453125)" xlink:href="#Lato-Medium-30"/>
      </g>
     </g>
    </g>
    <g id="ytick_2">
     <g id="line2d_7">
      <g>
       <use style="fill:#ffffff;stroke:#ffffff;stroke-width:0.8;" x="80.863004" xlink:href="#m356f4c62c2" y="187.824777"/>
      </g>
     </g>
     <g id="text_8">
      <!-- $\mathdefault{0.1}$ -->
      <defs>
       <path d="M 12.34375 7.25 
L 27.59375 7.25 
L 27.59375 54.90625 
Q 27.59375 57.09375 27.75 59.453125 
L 15.40625 48.90625 
Q 14.703125 48.34375 14.015625 48.1875 
Q 13.34375 48.046875 12.75 48.171875 
Q 12.15625 48.296875 11.65625 48.59375 
Q 11.15625 48.90625 10.90625 49.25 
L 7.953125 53.40625 
L 29.40625 71.90625 
L 37.09375 71.90625 
L 37.09375 7.25 
L 51.046875 7.25 
L 51.046875 0 
L 12.34375 0 
z
" id="Lato-Medium-31"/>
      </defs>
      <g style="fill:#ffffff;" transform="translate(48.663004 194.462277)scale(0.18 -0.18)">
       <use transform="translate(0 0.453125)" xlink:href="#Lato-Medium-30"/>
       <use transform="translate(58 0.453125)" xlink:href="#Lato-Medium-2e"/>
       <use transform="translate(81.600006 0.453125)" xlink:href="#Lato-Medium-31"/>
      </g>
     </g>
    </g>
    <g id="ytick_3">
     <g id="line2d_8">
      <g>
       <use style="fill:#ffffff;stroke:#ffffff;stroke-width:0.8;" x="80.863004" xlink:href="#m356f4c62c2" y="149.449554"/>
      </g>
     </g>
     <g id="text_9">
      <!-- $\mathdefault{0.2}$ -->
      <g style="fill:#ffffff;" transform="translate(48.663004 156.087054)scale(0.18 -0.18)">
       <use transform="translate(0 0.453125)" xlink:href="#Lato-Medium-30"/>
       <use transform="translate(58 0.453125)" xlink:href="#Lato-Medium-2e"/>
       <use transform="translate(81.600006 0.453125)" xlink:href="#Lato-Medium-32"/>
      </g>
     </g>
    </g>
    <g id="ytick_4">
     <g id="line2d_9">
      <g>
       <use style="fill:#ffffff;stroke:#ffffff;stroke-width:0.8;" x="80.863004" xlink:href="#m356f4c62c2" y="111.07433"/>
      </g>
     </g>
     <g id="text_10">
      <!-- $\mathdefault{0.3}$ -->
      <defs>
       <path d="M 29.953125 72.546875 
Q 34.59375 72.546875 38.4375 71.21875 
Q 42.296875 69.90625 45.0625 67.46875 
Q 47.84375 65.046875 49.390625 61.671875 
Q 50.953125 58.296875 50.953125 54.203125 
Q 50.953125 50.75 50.09375 48.078125 
Q 49.25 45.40625 47.640625 43.40625 
Q 46.046875 41.40625 43.765625 40.03125 
Q 41.5 38.65625 38.65625 37.75 
Q 45.59375 35.84375 49.0625 31.546875 
Q 52.546875 27.25 52.546875 20.703125 
Q 52.546875 15.65625 50.640625 11.671875 
Q 48.75 7.703125 45.5 4.921875 
Q 42.25 2.15625 37.875 0.671875 
Q 33.5 -0.796875 28.546875 -0.796875 
Q 22.90625 -0.796875 18.84375 0.59375 
Q 14.796875 2 11.9375 4.46875 
Q 9.09375 6.953125 7.25 10.390625 
Q 5.40625 13.84375 4.15625 17.953125 
L 8.25 19.703125 
Q 9.84375 20.40625 11.34375 20.09375 
Q 12.84375 19.796875 13.546875 18.34375 
Q 14.25 16.90625 15.25 15 
Q 16.25 13.09375 17.890625 11.375 
Q 19.546875 9.65625 22.0625 8.46875 
Q 24.59375 7.296875 28.453125 7.296875 
Q 32.09375 7.296875 34.84375 8.5 
Q 37.59375 9.703125 39.421875 11.59375 
Q 41.25 13.5 42.140625 15.828125 
Q 43.046875 18.15625 43.046875 20.453125 
Q 43.046875 23.296875 42.3125 25.640625 
Q 41.59375 28 39.625 29.703125 
Q 37.65625 31.40625 34.125 32.34375 
Q 30.59375 33.296875 25 33.296875 
L 25 40.203125 
Q 29.59375 40.25 32.765625 41.171875 
Q 35.953125 42.09375 37.953125 43.71875 
Q 39.953125 45.34375 40.828125 47.59375 
Q 41.703125 49.84375 41.703125 52.546875 
Q 41.703125 55.546875 40.765625 57.765625 
Q 39.84375 60 38.1875 61.46875 
Q 36.546875 62.953125 34.296875 63.703125 
Q 32.046875 64.453125 29.40625 64.453125 
Q 26.75 64.453125 24.515625 63.671875 
Q 22.296875 62.90625 20.5625 61.53125 
Q 18.84375 60.15625 17.671875 58.28125 
Q 16.5 56.40625 16 54.15625 
Q 15.296875 52.296875 14.265625 51.671875 
Q 13.25 51.046875 11.296875 51.34375 
L 6.296875 52.25 
Q 7 57.203125 9.046875 61 
Q 11.09375 64.796875 14.1875 67.375 
Q 17.296875 69.953125 21.296875 71.25 
Q 25.296875 72.546875 29.953125 72.546875 
z
" id="Lato-Medium-33"/>
      </defs>
      <g style="fill:#ffffff;" transform="translate(48.663004 117.71183)scale(0.18 -0.18)">
       <use transform="translate(0 0.453125)" xlink:href="#Lato-Medium-30"/>
       <use transform="translate(58 0.453125)" xlink:href="#Lato-Medium-2e"/>
       <use transform="translate(81.600006 0.453125)" xlink:href="#Lato-Medium-33"/>
      </g>
     </g>
    </g>
    <g id="ytick_5">
     <g id="line2d_10">
      <g>
       <use style="fill:#ffffff;stroke:#ffffff;stroke-width:0.8;" x="80.863004" xlink:href="#m356f4c62c2" y="72.699107"/>
      </g>
     </g>
     <g id="text_11">
      <!-- $\mathdefault{0.4}$ -->
      <g style="fill:#ffffff;" transform="translate(48.663004 79.336607)scale(0.18 -0.18)">
       <use transform="translate(0 0.453125)" xlink:href="#Lato-Medium-30"/>
       <use transform="translate(58 0.453125)" xlink:href="#Lato-Medium-2e"/>
       <use transform="translate(81.600006 0.453125)" xlink:href="#Lato-Medium-34"/>
      </g>
     </g>
    </g>
    <g id="text_12">
     <!-- $|\langle n|\psi\rangle|^2$ -->
     <defs>
      <path d="M 11.921875 -23.1875 
L 11.921875 73.1875 
Q 11.921875 73.96875 12.5 74.484375 
Q 13.09375 75 13.921875 75 
Q 14.65625 75 15.28125 74.484375 
Q 15.921875 73.96875 15.921875 73.1875 
L 15.921875 -23.1875 
Q 15.921875 -23.96875 15.28125 -24.484375 
Q 14.65625 -25 13.921875 -25 
Q 13.09375 -25 12.5 -24.484375 
Q 11.921875 -23.96875 11.921875 -23.1875 
z
" id="Cmsy10-6a"/>
      <path d="M 35.5 -114.796875 
L 10.015625 -56.78125 
Q 9.8125 -56.5 9.8125 -56 
Q 9.8125 -55.515625 10.015625 -55.328125 
L 35.5 2.78125 
Q 35.984375 4 37.3125 4 
Q 38.03125 4 38.671875 3.359375 
Q 39.3125 2.734375 39.3125 2 
Q 39.3125 1.515625 39.203125 1.3125 
L 14.015625 -56 
L 39.203125 -113.28125 
Q 39.3125 -113.484375 39.3125 -114.015625 
Q 39.3125 -114.75 38.671875 -115.375 
Q 38.03125 -116.015625 37.3125 -116.015625 
Q 36.03125 -116.015625 35.5 -114.796875 
z
" id="Cmex10-ad"/>
      <path d="M 23.78125 -19.484375 
L 28.515625 -0.875 
Q 24.171875 -0.875 20.09375 0.75 
Q 16.015625 2.390625 13.5 5.5625 
Q 10.984375 8.734375 10.984375 13.28125 
Q 10.984375 15.875 11.90625 19.1875 
Q 12.84375 22.515625 13.890625 25.296875 
Q 14.9375 28.078125 16.703125 32.625 
Q 18.015625 36.28125 18.015625 38.625 
Q 18.015625 41.609375 15.828125 41.609375 
Q 11.859375 41.609375 9.296875 37.53125 
Q 6.734375 33.453125 5.515625 28.421875 
Q 5.328125 27.78125 4.6875 27.78125 
L 3.515625 27.78125 
Q 2.6875 27.78125 2.6875 28.71875 
L 2.6875 29 
Q 4.296875 34.96875 7.609375 39.578125 
Q 10.9375 44.1875 16.015625 44.1875 
Q 19.578125 44.1875 22.046875 41.84375 
Q 24.515625 39.5 24.515625 35.890625 
Q 24.515625 34.03125 23.6875 31.984375 
Q 21.921875 27.4375 20.890625 24.75 
Q 19.875 22.078125 18.9375 18.671875 
Q 18.015625 15.28125 18.015625 12.59375 
Q 18.015625 7.71875 21.0625 5.03125 
Q 24.125 2.34375 29.109375 1.703125 
L 45.90625 68.796875 
Q 46.09375 69.390625 46.6875 69.390625 
L 47.90625 69.390625 
Q 48.6875 69.390625 48.6875 68.40625 
L 31.984375 1.515625 
L 33.109375 1.515625 
Q 37.3125 1.515625 41.96875 4 
Q 46.625 6.5 50.453125 10.546875 
Q 54.296875 14.59375 56.546875 19.25 
Q 58.796875 23.921875 58.796875 27.984375 
Q 58.796875 31 57.8125 32.6875 
Q 56.84375 34.375 55.28125 36.203125 
Q 53.71875 38.03125 53.71875 39.109375 
Q 53.71875 41.0625 55.328125 42.671875 
Q 56.9375 44.28125 58.890625 44.28125 
Q 61.28125 44.28125 62.328125 42.078125 
Q 63.375 39.890625 63.375 37.109375 
Q 63.375 34.1875 62.78125 31.25 
Q 62.203125 28.328125 61.1875 24.3125 
Q 58.890625 15.1875 51.609375 7.90625 
Q 49.125 5.421875 46.109375 3.34375 
Q 43.109375 1.265625 39.765625 0.0625 
Q 36.421875 -1.125 33.015625 -1.125 
L 31.390625 -1.125 
L 26.703125 -19.921875 
Q 26.515625 -20.515625 25.875 -20.515625 
L 24.703125 -20.515625 
Q 24.3125 -20.515625 24.046875 -20.1875 
Q 23.78125 -19.875 23.78125 -19.484375 
z
" id="Cmmi10-c3"/>
      <path d="M 7.8125 -114.015625 
Q 7.8125 -113.484375 8.015625 -113.28125 
L 33.109375 -56 
L 8.015625 1.3125 
Q 7.8125 1.515625 7.8125 2 
Q 7.8125 2.734375 8.390625 3.359375 
Q 8.984375 4 9.8125 4 
Q 10.984375 4 11.71875 2.78125 
L 37.203125 -55.328125 
Q 37.3125 -55.515625 37.3125 -56 
Q 37.3125 -56.5 37.203125 -56.78125 
L 11.71875 -114.796875 
Q 10.9375 -116.015625 9.8125 -116.015625 
Q 8.984375 -116.015625 8.390625 -115.375 
Q 7.8125 -114.75 7.8125 -114.015625 
z
" id="Cmex10-ae"/>
      <path d="M 4.984375 0 
L 4.984375 2.6875 
Q 4.984375 2.9375 5.171875 3.21875 
L 20.703125 20.40625 
Q 24.21875 24.21875 26.40625 26.796875 
Q 28.609375 29.390625 30.75 32.765625 
Q 32.90625 36.140625 34.15625 39.625 
Q 35.40625 43.109375 35.40625 47.015625 
Q 35.40625 51.125 33.890625 54.859375 
Q 32.375 58.59375 29.375 60.84375 
Q 26.375 63.09375 22.125 63.09375 
Q 17.78125 63.09375 14.3125 60.46875 
Q 10.84375 57.859375 9.421875 53.71875 
Q 9.8125 53.8125 10.5 53.8125 
Q 12.75 53.8125 14.328125 52.296875 
Q 15.921875 50.78125 15.921875 48.390625 
Q 15.921875 46.09375 14.328125 44.5 
Q 12.75 42.921875 10.5 42.921875 
Q 8.15625 42.921875 6.5625 44.546875 
Q 4.984375 46.1875 4.984375 48.390625 
Q 4.984375 52.15625 6.390625 55.4375 
Q 7.8125 58.734375 10.46875 61.296875 
Q 13.140625 63.875 16.484375 65.234375 
Q 19.828125 66.609375 23.578125 66.609375 
Q 29.296875 66.609375 34.21875 64.1875 
Q 39.15625 61.765625 42.03125 57.34375 
Q 44.921875 52.9375 44.921875 47.015625 
Q 44.921875 42.671875 43.015625 38.765625 
Q 41.109375 34.859375 38.125 31.65625 
Q 35.15625 28.46875 30.515625 24.40625 
Q 25.875 20.359375 24.421875 19 
L 13.09375 8.109375 
L 22.703125 8.109375 
Q 29.78125 8.109375 34.546875 8.21875 
Q 39.3125 8.34375 39.59375 8.59375 
Q 40.765625 9.859375 42 17.828125 
L 44.921875 17.828125 
L 42.09375 0 
z
" id="Cmr10-32"/>
     </defs>
     <g style="fill:#ffffff;" transform="translate(38.663004 173.270625)rotate(-90)scale(0.24 -0.24)">
      <use transform="translate(0 0.658854)" xlink:href="#Cmsy10-6a"/>
      <use transform="translate(27.685547 94)" xlink:href="#Cmex10-ad"/>
      <use transform="translate(74.902344 0.658854)" xlink:href="#Cmmi10-6e"/>
      <use transform="translate(134.912109 0.658854)" xlink:href="#Cmsy10-6a"/>
      <use transform="translate(162.597656 0.658854)" xlink:href="#Cmmi10-c3"/>
      <use transform="translate(227.685547 94)" xlink:href="#Cmex10-ae"/>
      <use transform="translate(274.902344 0.658854)" xlink:href="#Cmsy10-6a"/>
      <use transform="translate(307.052031 38.922917)scale(0.7)" xlink:href="#Cmr10-32"/>
     </g>
    </g>
   </g>
   <g id="patch_12">
    <path d="M 80.863004 226.2 
L 80.863004 36.58125 
" style="fill:none;stroke:#ffffff;stroke-linecap:square;stroke-linejoin:miter;stroke-width:0.8;"/>
   </g>
   <g id="patch_13">
    <path d="M 417.7 226.2 
L 417.7 36.58125 
" style="fill:none;stroke:#ffffff;stroke-linecap:square;stroke-linejoin:miter;stroke-width:0.8;"/>
   </g>
   <g id="patch_14">
    <path d="M 80.863004 226.2 
L 417.7 226.2 
" style="fill:none;stroke:#ffffff;stroke-linecap:square;stroke-linejoin:miter;stroke-width:0.8;"/>
   </g>
   <g id="patch_15">
    <path d="M 80.863004 36.58125 
L 417.7 36.58125 
" style="fill:none;stroke:#ffffff;stroke-linecap:square;stroke-linejoin:miter;stroke-width:0.8;"/>
   </g>
   <g id="text_13">
    <!-- $e^r=4$, $N=3.52$, $12.04\mathrm{dB}$ -->
    <defs>
     <path d="M 20.125 -1.125 
Q 15.328125 -1.125 11.734375 1.359375 
Q 8.15625 3.859375 6.265625 8.078125 
Q 4.390625 12.3125 4.390625 17 
Q 4.390625 24.125 7.984375 30.390625 
Q 11.578125 36.671875 17.71875 40.421875 
Q 23.875 44.1875 30.90625 44.1875 
Q 35.203125 44.1875 38.40625 41.96875 
Q 41.609375 39.75 41.609375 35.59375 
Q 41.609375 29.828125 37.015625 27.015625 
Q 32.421875 24.21875 26.65625 23.5625 
Q 20.90625 22.90625 13.921875 22.90625 
L 13.625 22.90625 
Q 12.015625 16.9375 12.015625 12.703125 
Q 12.015625 8.25 14.0625 4.875 
Q 16.109375 1.515625 20.3125 1.515625 
Q 26.265625 1.515625 31.75 4.25 
Q 37.25 6.984375 40.71875 11.8125 
Q 41.015625 12.109375 41.5 12.109375 
Q 42 12.109375 42.5 11.546875 
Q 43.015625 10.984375 43.015625 10.5 
Q 43.015625 10.109375 42.828125 9.90625 
Q 39.15625 4.78125 32.953125 1.828125 
Q 26.765625 -1.125 20.125 -1.125 
z
M 14.203125 25.484375 
Q 20.015625 25.484375 24.953125 26.015625 
Q 29.890625 26.5625 33.890625 28.734375 
Q 37.890625 30.90625 37.890625 35.5 
Q 37.890625 37.359375 36.859375 38.75 
Q 35.84375 40.140625 34.203125 40.875 
Q 32.5625 41.609375 30.8125 41.609375 
Q 26.5625 41.609375 23.171875 39.3125 
Q 19.78125 37.015625 17.578125 33.328125 
Q 15.375 29.640625 14.203125 25.484375 
z
" id="Cmmi10-65"/>
     <path d="M 7.71875 1.703125 
Q 7.71875 2.296875 7.8125 2.59375 
L 15.28125 32.421875 
Q 16.015625 35.203125 16.015625 37.3125 
Q 16.015625 41.609375 13.09375 41.609375 
Q 9.96875 41.609375 8.453125 37.859375 
Q 6.9375 34.125 5.515625 28.421875 
Q 5.515625 28.125 5.21875 27.953125 
Q 4.9375 27.78125 4.6875 27.78125 
L 3.515625 27.78125 
Q 3.171875 27.78125 2.921875 28.140625 
Q 2.6875 28.515625 2.6875 28.8125 
Q 3.765625 33.15625 4.765625 36.171875 
Q 5.765625 39.203125 7.890625 41.6875 
Q 10.015625 44.1875 13.1875 44.1875 
Q 16.65625 44.1875 19.265625 42.1875 
Q 21.875 40.1875 22.515625 36.921875 
Q 25.046875 40.234375 28.296875 42.203125 
Q 31.546875 44.1875 35.40625 44.1875 
Q 38.578125 44.1875 40.984375 42.328125 
Q 43.40625 40.484375 43.40625 37.3125 
Q 43.40625 34.765625 41.8125 32.875 
Q 40.234375 31 37.59375 31 
Q 35.984375 31 34.890625 32 
Q 33.796875 33.015625 33.796875 34.625 
Q 33.796875 36.8125 35.40625 38.546875 
Q 37.015625 40.28125 39.109375 40.28125 
Q 37.5 41.609375 35.203125 41.609375 
Q 30.90625 41.609375 27.734375 38.546875 
Q 24.5625 35.5 22.015625 30.8125 
L 14.890625 2.203125 
Q 14.546875 0.828125 13.34375 -0.140625 
Q 12.15625 -1.125 10.6875 -1.125 
Q 9.46875 -1.125 8.59375 -0.34375 
Q 7.71875 0.4375 7.71875 1.703125 
z
" id="Cmmi10-72"/>
     <path d="M 7.515625 13.28125 
Q 6.6875 13.28125 6.140625 13.90625 
Q 5.609375 14.546875 5.609375 15.28125 
Q 5.609375 16.109375 6.140625 16.6875 
Q 6.6875 17.28125 7.515625 17.28125 
L 70.3125 17.28125 
Q 71.046875 17.28125 71.578125 16.6875 
Q 72.125 16.109375 72.125 15.28125 
Q 72.125 14.546875 71.578125 13.90625 
Q 71.046875 13.28125 70.3125 13.28125 
z
M 7.515625 32.71875 
Q 6.6875 32.71875 6.140625 33.296875 
Q 5.609375 33.890625 5.609375 34.71875 
Q 5.609375 35.453125 6.140625 36.078125 
Q 6.6875 36.71875 7.515625 36.71875 
L 70.3125 36.71875 
Q 71.046875 36.71875 71.578125 36.078125 
Q 72.125 35.453125 72.125 34.71875 
Q 72.125 33.890625 71.578125 33.296875 
Q 71.046875 32.71875 70.3125 32.71875 
z
" id="Cmr10-3d"/>
     <path d="M 2.78125 16.5 
L 2.78125 20.015625 
L 33.6875 66.109375 
Q 34.03125 66.609375 34.71875 66.609375 
L 36.1875 66.609375 
Q 37.3125 66.609375 37.3125 65.484375 
L 37.3125 20.015625 
L 47.125 20.015625 
L 47.125 16.5 
L 37.3125 16.5 
L 37.3125 6.6875 
Q 37.3125 4.640625 40.234375 4.078125 
Q 43.171875 3.515625 47.015625 3.515625 
L 47.015625 0 
L 19.484375 0 
L 19.484375 3.515625 
Q 23.34375 3.515625 26.265625 4.078125 
Q 29.203125 4.640625 29.203125 6.6875 
L 29.203125 16.5 
z
M 6.109375 20.015625 
L 29.78125 20.015625 
L 29.78125 55.421875 
z
" id="Cmr10-34"/>
     <path d="M 7.75 2.59375 
Q 7.75 3.796875 8.578125 4.75 
Q 9.40625 5.703125 10.75 5.703125 
Q 12.09375 5.703125 12.96875 4.703125 
Q 13.84375 3.703125 13.84375 1.796875 
Q 13.84375 -2.046875 12.171875 -5.625 
Q 10.5 -9.203125 7.953125 -11.90625 
L 7.796875 -11.75 
Q 7.65625 -11.59375 7.65625 -11.40625 
Q 7.65625 -11.296875 7.796875 -11.046875 
Q 8.15625 -10.59375 8.96875 -9.515625 
Q 9.796875 -8.453125 10.640625 -6.921875 
Q 11.5 -5.40625 12.140625 -3.5 
Q 12.796875 -1.59375 12.84375 0.546875 
Q 12 -0.40625 10.546875 -0.40625 
Q 9.34375 -0.40625 8.546875 0.421875 
Q 7.75 1.25 7.75 2.59375 
z
" id="Lato-Hairline-2c"/>
     <path id="Lato-Hairline-20"/>
     <path d="M 4.6875 0 
Q 3.71875 0 3.71875 1.3125 
Q 3.765625 1.5625 3.90625 2.171875 
Q 4.046875 2.78125 4.3125 3.140625 
Q 4.59375 3.515625 4.984375 3.515625 
Q 14.546875 3.515625 16.109375 9.625 
L 29.6875 64.3125 
Q 26.90625 64.796875 20.90625 64.796875 
Q 19.921875 64.796875 19.921875 66.109375 
Q 19.96875 66.359375 20.109375 66.96875 
Q 20.265625 67.578125 20.53125 67.9375 
Q 20.796875 68.3125 21.1875 68.3125 
L 38.484375 68.3125 
Q 39.203125 68.3125 39.40625 67.671875 
L 61.625 14.796875 
L 72.703125 59.078125 
Q 72.90625 60.15625 72.90625 60.59375 
Q 72.90625 64.796875 65.1875 64.796875 
Q 64.203125 64.796875 64.203125 66.109375 
Q 64.546875 67.390625 64.734375 67.84375 
Q 64.9375 68.3125 65.921875 68.3125 
L 87.3125 68.3125 
Q 88.28125 68.3125 88.28125 67 
Q 88.234375 66.75 88.078125 66.140625 
Q 87.9375 65.53125 87.671875 65.15625 
Q 87.40625 64.796875 87.015625 64.796875 
Q 77.4375 64.796875 75.875 58.6875 
L 61.53125 0.875 
Q 61.1875 0 60.5 0 
L 59.28125 0 
Q 58.59375 0 58.40625 0.6875 
L 32.90625 61.1875 
L 32.71875 61.8125 
Q 32.515625 62.015625 32.515625 62.109375 
L 19.28125 9.1875 
Q 19.1875 8.9375 19.140625 8.5625 
Q 19.09375 8.203125 19 7.71875 
Q 19 5.125 21.234375 4.3125 
Q 23.484375 3.515625 26.8125 3.515625 
Q 27.78125 3.515625 27.78125 2.203125 
Q 27.4375 0.828125 27.1875 0.40625 
Q 26.953125 0 26.125 0 
z
" id="Cmmi10-4e"/>
     <path d="M 9.515625 7.71875 
Q 11.859375 4.296875 15.8125 2.640625 
Q 19.78125 0.984375 24.3125 0.984375 
Q 30.125 0.984375 32.5625 5.9375 
Q 35.015625 10.890625 35.015625 17.1875 
Q 35.015625 20.015625 34.5 22.84375 
Q 33.984375 25.6875 32.765625 28.125 
Q 31.546875 30.5625 29.421875 32.03125 
Q 27.296875 33.5 24.21875 33.5 
L 17.578125 33.5 
Q 16.703125 33.5 16.703125 34.421875 
L 16.703125 35.296875 
Q 16.703125 36.078125 17.578125 36.078125 
L 23.09375 36.53125 
Q 26.609375 36.53125 28.921875 39.15625 
Q 31.25 41.796875 32.328125 45.578125 
Q 33.40625 49.359375 33.40625 52.78125 
Q 33.40625 57.5625 31.15625 60.640625 
Q 28.90625 63.71875 24.3125 63.71875 
Q 20.515625 63.71875 17.046875 62.28125 
Q 13.578125 60.84375 11.53125 57.90625 
Q 11.71875 57.953125 11.859375 57.984375 
Q 12.015625 58.015625 12.203125 58.015625 
Q 14.453125 58.015625 15.96875 56.453125 
Q 17.484375 54.890625 17.484375 52.6875 
Q 17.484375 50.53125 15.96875 48.96875 
Q 14.453125 47.40625 12.203125 47.40625 
Q 10.015625 47.40625 8.453125 48.96875 
Q 6.890625 50.53125 6.890625 52.6875 
Q 6.890625 56.984375 9.46875 60.15625 
Q 12.0625 63.328125 16.140625 64.96875 
Q 20.21875 66.609375 24.3125 66.609375 
Q 27.34375 66.609375 30.703125 65.703125 
Q 34.078125 64.796875 36.8125 63.109375 
Q 39.546875 61.421875 41.28125 58.78125 
Q 43.015625 56.15625 43.015625 52.78125 
Q 43.015625 48.578125 41.140625 45.015625 
Q 39.265625 41.453125 35.984375 38.859375 
Q 32.71875 36.28125 28.8125 35.015625 
Q 33.15625 34.1875 37.0625 31.734375 
Q 40.96875 29.296875 43.328125 25.484375 
Q 45.703125 21.6875 45.703125 17.28125 
Q 45.703125 11.765625 42.671875 7.296875 
Q 39.65625 2.828125 34.71875 0.3125 
Q 29.78125 -2.203125 24.3125 -2.203125 
Q 19.625 -2.203125 14.90625 -0.40625 
Q 10.203125 1.375 7.203125 4.9375 
Q 4.203125 8.5 4.203125 13.484375 
Q 4.203125 15.96875 5.859375 17.625 
Q 7.515625 19.28125 10.015625 19.28125 
Q 11.625 19.28125 12.96875 18.53125 
Q 14.3125 17.78125 15.0625 16.40625 
Q 15.828125 15.046875 15.828125 13.484375 
Q 15.828125 11.03125 14.109375 9.375 
Q 12.40625 7.71875 10.015625 7.71875 
z
" id="Cmr10-33"/>
     <path d="M 8.40625 5.515625 
Q 8.40625 7.765625 10.0625 9.375 
Q 11.71875 10.984375 13.921875 10.984375 
Q 15.28125 10.984375 16.59375 10.25 
Q 17.921875 9.515625 18.65625 8.203125 
Q 19.390625 6.890625 19.390625 5.515625 
Q 19.390625 3.328125 17.765625 1.65625 
Q 16.15625 0 13.921875 0 
Q 11.71875 0 10.0625 1.65625 
Q 8.40625 3.328125 8.40625 5.515625 
z
" id="Cmmi10-3a"/>
     <path d="M 8.6875 11.375 
Q 9.71875 8.453125 11.84375 6.046875 
Q 13.96875 3.65625 16.875 2.3125 
Q 19.78125 0.984375 22.90625 0.984375 
Q 30.125 0.984375 32.859375 6.59375 
Q 35.59375 12.203125 35.59375 20.21875 
Q 35.59375 23.6875 35.46875 26.046875 
Q 35.359375 28.421875 34.8125 30.609375 
Q 33.890625 34.125 31.5625 36.765625 
Q 29.25 39.40625 25.875 39.40625 
Q 22.515625 39.40625 20.09375 38.375 
Q 17.671875 37.359375 16.15625 35.984375 
Q 14.65625 34.625 13.484375 33.109375 
Q 12.3125 31.59375 12.015625 31.5 
L 10.890625 31.5 
Q 10.640625 31.5 10.265625 31.8125 
Q 9.90625 32.125 9.90625 32.421875 
L 9.90625 65.828125 
Q 9.90625 66.0625 10.21875 66.328125 
Q 10.546875 66.609375 10.890625 66.609375 
L 11.1875 66.609375 
Q 17.921875 63.375 25.484375 63.375 
Q 32.90625 63.375 39.796875 66.609375 
L 40.09375 66.609375 
Q 40.4375 66.609375 40.71875 66.359375 
Q 41.015625 66.109375 41.015625 65.828125 
L 41.015625 64.890625 
Q 41.015625 64.40625 40.828125 64.40625 
Q 37.40625 59.859375 32.25 57.3125 
Q 27.09375 54.78125 21.578125 54.78125 
Q 17.578125 54.78125 13.375 55.90625 
L 13.375 37.015625 
Q 16.703125 39.703125 19.3125 40.84375 
Q 21.921875 42 25.984375 42 
Q 31.5 42 35.859375 38.8125 
Q 40.234375 35.640625 42.578125 30.53125 
Q 44.921875 25.4375 44.921875 20.125 
Q 44.921875 14.109375 41.96875 8.984375 
Q 39.015625 3.859375 33.9375 0.828125 
Q 28.859375 -2.203125 22.90625 -2.203125 
Q 17.96875 -2.203125 13.84375 0.328125 
Q 9.71875 2.875 7.34375 7.171875 
Q 4.984375 11.46875 4.984375 16.3125 
Q 4.984375 18.5625 6.4375 19.96875 
Q 7.90625 21.390625 10.109375 21.390625 
Q 12.3125 21.390625 13.796875 19.9375 
Q 15.28125 18.5 15.28125 16.3125 
Q 15.28125 14.15625 13.796875 12.671875 
Q 12.3125 11.1875 10.109375 11.1875 
Q 9.765625 11.1875 9.328125 11.25 
Q 8.890625 11.328125 8.6875 11.375 
z
" id="Cmr10-35"/>
     <path d="M 9.28125 0 
L 9.28125 3.515625 
Q 21.78125 3.515625 21.78125 6.6875 
L 21.78125 59.1875 
Q 16.609375 56.6875 8.6875 56.6875 
L 8.6875 60.203125 
Q 20.953125 60.203125 27.203125 66.609375 
L 28.609375 66.609375 
Q 28.953125 66.609375 29.265625 66.328125 
Q 29.59375 66.0625 29.59375 65.71875 
L 29.59375 6.6875 
Q 29.59375 3.515625 42.09375 3.515625 
L 42.09375 0 
z
" id="Cmr10-31"/>
     <path d="M 25 -2.203125 
Q 12.75 -2.203125 8.328125 7.875 
Q 3.90625 17.96875 3.90625 31.890625 
Q 3.90625 40.578125 5.484375 48.234375 
Q 7.078125 55.90625 11.78125 61.25 
Q 16.5 66.609375 25 66.609375 
Q 31.59375 66.609375 35.78125 63.375 
Q 39.984375 60.15625 42.1875 55.046875 
Q 44.390625 49.953125 45.1875 44.109375 
Q 46 38.28125 46 31.890625 
Q 46 23.296875 44.40625 15.796875 
Q 42.828125 8.296875 38.1875 3.046875 
Q 33.546875 -2.203125 25 -2.203125 
z
M 25 0.390625 
Q 30.5625 0.390625 33.296875 6.09375 
Q 36.03125 11.8125 36.671875 18.75 
Q 37.3125 25.6875 37.3125 33.5 
Q 37.3125 41.015625 36.671875 47.359375 
Q 36.03125 53.71875 33.3125 58.859375 
Q 30.609375 64.015625 25 64.015625 
Q 19.34375 64.015625 16.609375 58.828125 
Q 13.875 53.65625 13.234375 47.328125 
Q 12.59375 41.015625 12.59375 33.5 
Q 12.59375 27.9375 12.859375 23 
Q 13.140625 18.0625 14.3125 12.8125 
Q 15.484375 7.5625 18.09375 3.96875 
Q 20.703125 0.390625 25 0.390625 
z
" id="Cmr10-30"/>
     <path d="M 24.421875 -1.125 
Q 18.5 -1.125 13.609375 2.078125 
Q 8.734375 5.28125 6.03125 10.5 
Q 3.328125 15.71875 3.328125 21.578125 
Q 3.328125 27.640625 6.28125 32.828125 
Q 9.234375 38.03125 14.3125 41.109375 
Q 19.390625 44.1875 25.484375 44.1875 
Q 29.15625 44.1875 32.421875 42.640625 
Q 35.6875 41.109375 38.09375 38.375 
L 38.09375 59.1875 
Q 38.09375 61.859375 37.28125 63.0625 
Q 36.46875 64.265625 34.984375 64.53125 
Q 33.5 64.796875 30.328125 64.796875 
L 30.328125 68.3125 
L 45.125 69.390625 
L 45.125 9.078125 
Q 45.125 6.453125 45.921875 5.25 
Q 46.734375 4.046875 48.21875 3.78125 
Q 49.703125 3.515625 52.875 3.515625 
L 52.875 0 
L 37.796875 -1.125 
L 37.796875 5.171875 
Q 35.203125 2.203125 31.640625 0.53125 
Q 28.078125 -1.125 24.421875 -1.125 
z
M 14.203125 8.6875 
Q 15.921875 5.421875 18.765625 3.46875 
Q 21.625 1.515625 25 1.515625 
Q 29.15625 1.515625 32.609375 3.90625 
Q 36.078125 6.296875 37.796875 10.109375 
L 37.796875 34.078125 
Q 36.625 36.28125 34.84375 38.015625 
Q 33.0625 39.75 30.828125 40.671875 
Q 28.609375 41.609375 26.125 41.609375 
Q 20.90625 41.609375 17.71875 38.640625 
Q 14.546875 35.6875 13.28125 31.09375 
Q 12.015625 26.515625 12.015625 21.484375 
Q 12.015625 17.484375 12.421875 14.5 
Q 12.84375 11.53125 14.203125 8.6875 
z
" id="Cmr10-64"/>
     <path d="M 3.421875 0 
L 3.421875 3.515625 
Q 13.71875 3.515625 13.71875 6.6875 
L 13.71875 61.625 
Q 13.71875 64.796875 3.421875 64.796875 
L 3.421875 68.3125 
L 40.1875 68.3125 
Q 45.265625 68.3125 50.4375 66.328125 
Q 55.609375 64.359375 59 60.46875 
Q 62.40625 56.59375 62.40625 51.3125 
Q 62.40625 45.21875 57.390625 41.09375 
Q 52.390625 36.96875 45.703125 35.6875 
Q 50.046875 35.6875 54.640625 33.296875 
Q 59.234375 30.90625 62.15625 26.90625 
Q 65.09375 22.90625 65.09375 18.40625 
Q 65.09375 12.9375 61.84375 8.734375 
Q 58.59375 4.546875 53.421875 2.265625 
Q 48.25 0 43.015625 0 
z
M 22.40625 6.6875 
Q 22.40625 4.546875 23.625 4.03125 
Q 24.859375 3.515625 27.484375 3.515625 
L 40.1875 3.515625 
Q 44.09375 3.515625 47.4375 5.5625 
Q 50.78125 7.625 52.734375 11.0625 
Q 54.6875 14.5 54.6875 18.40625 
Q 54.6875 22.21875 53.078125 25.859375 
Q 51.46875 29.5 48.453125 31.84375 
Q 45.453125 34.1875 41.609375 34.1875 
L 22.40625 34.1875 
z
M 22.40625 36.8125 
L 37.40625 36.8125 
Q 40.4375 36.8125 43.09375 37.90625 
Q 45.75 39.015625 47.875 41.09375 
Q 50 43.171875 51.140625 45.78125 
Q 52.296875 48.390625 52.296875 51.3125 
Q 52.296875 53.90625 51.4375 56.296875 
Q 50.59375 58.6875 48.921875 60.640625 
Q 47.265625 62.59375 45.015625 63.6875 
Q 42.78125 64.796875 40.1875 64.796875 
L 27.484375 64.796875 
Q 25.6875 64.796875 24.6875 64.640625 
Q 23.6875 64.5 23.046875 63.796875 
Q 22.40625 63.09375 22.40625 61.625 
z
" id="Cmr10-42"/>
    </defs>
    <g style="fill:#ffffff;" transform="translate(119.921502 30.58125)scale(0.24 -0.24)">
     <use transform="translate(0 0.609375)" xlink:href="#Cmmi10-65"/>
     <use transform="translate(52.787656 38.873438)scale(0.7)" xlink:href="#Cmmi10-72"/>
     <use transform="translate(108.305625 0.609375)" xlink:href="#Cmr10-3d"/>
     <use transform="translate(203.549766 0.609375)" xlink:href="#Cmr10-34"/>
     <use transform="translate(253.549766 0.609375)" xlink:href="#Lato-Hairline-2c"/>
     <use transform="translate(274.734138 0.609375)" xlink:href="#Lato-Hairline-20"/>
     <use transform="translate(303.234138 0.609375)" xlink:href="#Cmmi10-4e"/>
     <use transform="translate(401.114997 0.609375)" xlink:href="#Cmr10-3d"/>
     <use transform="translate(496.359138 0.609375)" xlink:href="#Cmr10-33"/>
     <use transform="translate(546.359138 0.609375)" xlink:href="#Cmmi10-3a"/>
     <use transform="translate(574.044684 0.609375)" xlink:href="#Cmr10-35"/>
     <use transform="translate(624.044684 0.609375)" xlink:href="#Cmr10-32"/>
     <use transform="translate(674.044684 0.609375)" xlink:href="#Lato-Hairline-2c"/>
     <use transform="translate(695.229056 0.609375)" xlink:href="#Lato-Hairline-20"/>
     <use transform="translate(723.729056 0.609375)" xlink:href="#Cmr10-31"/>
     <use transform="translate(773.729056 0.609375)" xlink:href="#Cmr10-32"/>
     <use transform="translate(823.729056 0.609375)" xlink:href="#Cmmi10-3a"/>
     <use transform="translate(851.414603 0.609375)" xlink:href="#Cmr10-30"/>
     <use transform="translate(901.414603 0.609375)" xlink:href="#Cmr10-34"/>
     <use transform="translate(951.414603 0.609375)" xlink:href="#Cmr10-64"/>
     <use transform="translate(1006.932181 0.609375)" xlink:href="#Cmr10-42"/>
    </g>
   </g>
  </g>
 </g>
 <defs>
  <clipPath id="p6aa76be5f8">
   <rect height="189.61875" width="336.836996" x="80.863004" y="36.58125"/>
  </clipPath>
 </defs>
</svg>
