<?xml version="1.0" encoding="UTF-8" standalone="no"?>
<!-- Created with Inkscape (http://www.inkscape.org/) -->

<svg
   xmlns:dc="http://purl.org/dc/elements/1.1/"
   xmlns:cc="http://creativecommons.org/ns#"
   xmlns:rdf="http://www.w3.org/1999/02/22-rdf-syntax-ns#"
   xmlns:svg="http://www.w3.org/2000/svg"
   xmlns="http://www.w3.org/2000/svg"
   xmlns:sodipodi="http://sodipodi.sourceforge.net/DTD/sodipodi-0.dtd"
   xmlns:inkscape="http://www.inkscape.org/namespaces/inkscape"
   width="384.89581"
   height="228.05914"
   viewBox="0 0 384.89582 228.05915"
   id="svg5669"
   version="1.1"
   inkscape:version="0.91 r13725"
   sodipodi:docname="wavepacket.svg">
  <sodipodi:namedview
     id="base"
     pagecolor="#7d7d7d"
     bordercolor="#666666"
     borderopacity="1.0"
     inkscape:pageopacity="0"
     inkscape:pageshadow="2"
     inkscape:zoom="0.98994949"
     inkscape:cx="242.29167"
     inkscape:cy="74.253465"
     inkscape:document-units="px"
     inkscape:current-layer="layer1"
     showgrid="true"
     units="px"
     inkscape:window-width="1918"
     inkscape:window-height="1078"
     inkscape:window-x="1920"
     inkscape:window-y="0"
     inkscape:window-maximized="0"
     fit-margin-top="32"
     fit-margin-left="32"
     fit-margin-right="32"
     fit-margin-bottom="32">
    <inkscape:grid
       empspacing="4"
       id="grid6217"
       type="xygrid"
       originx="16.447912"
       originy="-255.23676" />
  </sodipodi:namedview>
  <defs
     id="defs5671" />
  <metadata
     id="metadata5674">
    <rdf:RDF>
      <cc:Work
         rdf:about="">
        <dc:format>image/svg+xml</dc:format>
        <dc:type
           rdf:resource="http://purl.org/dc/dcmitype/StillImage" />
        <dc:title></dc:title>
      </cc:Work>
    </rdf:RDF>
  </metadata>
  <g
     transform="translate(16.447911,-569.06626)"
     id="layer1"
     inkscape:groupmode="layer"
     inkscape:label="Layer 1">
    <path
       inkscape:connector-curvature="0"
       id="path6243"
       title="exp(-x**2)"
       d="m 16,682.89693 c 0.416667,-0.0305 0.833333,-0.0619 1.25,-0.0941 0.416667,-0.0322 0.833333,-0.0653 1.25,-0.0994 0.416667,-0.034 0.833333,-0.0689 1.25,-0.10482 0.416667,-0.0359 0.833333,-0.0727 1.25,-0.11053 0.416667,-0.0378 0.833333,-0.0766 1.25,-0.11649 0.416667,-0.0399 0.833333,-0.0807 1.25,-0.1227 0.416667,-0.042 0.833333,-0.085 1.25,-0.12917 0.416667,-0.0442 0.833333,-0.0894 1.25,-0.1359 0.416667,-0.0464 0.833333,-0.0941 1.25,-0.1429 0.416667,-0.0488 0.833333,-0.0989 1.25,-0.15019 0.416667,-0.0513 0.833333,-0.10387 1.25,-0.15775 0.416667,-0.0539 0.833333,-0.10906 1.25,-0.1656 0.416667,-0.0565 0.833333,-0.11444 1.25,-0.17375 0.416667,-0.0593 0.833333,-0.12002 1.25,-0.18219 0.416667,-0.0622 0.833333,-0.1258 1.25,-0.19094 0.416667,-0.0651 0.833333,-0.13178 1.25,-0.19999 0.416667,-0.0682 0.833333,-0.13797 1.25,-0.20936 0.416667,-0.0714 0.833333,-0.14437 1.25,-0.21903 0.416667,-0.0747 0.833333,-0.15098 1.25,-0.22902 0.416667,-0.078 0.833333,-0.15781 1.25,-0.23934 0.416667,-0.0815 0.833333,-0.16485 1.25,-0.24998 0.416667,-0.0851 0.833333,-0.17209 1.25,-0.26093 0.416667,-0.0888 0.833333,-0.17956 1.25,-0.27221 0.416667,-0.0926 0.833333,-0.18724 1.25,-0.28381 0.416667,-0.0966 0.833333,-0.19514 1.25,-0.29575 0.416667,-0.1006 0.833333,-0.20325 1.25,-0.30799 0.416667,-0.10474 0.833333,-0.21157 1.25,-0.32055 0.416667,-0.10899 0.833333,-0.22012 1.25,-0.33345 0.416667,-0.11333 0.833333,-0.22886 1.25,-0.34665 0.416667,-0.11778 0.833333,-0.23781 1.25,-0.36015 0.416667,-0.12234 0.833333,-0.24698 1.25,-0.37398 0.416667,-0.12699 0.833333,-0.25634 1.25,-0.38809 0.416667,-0.13175 0.833333,-0.2659 1.25,-0.4025 0.416667,-0.1366 0.833333,-0.27565 1.25,-0.41719 0.416667,-0.14155 0.833333,-0.28559 1.25,-0.43217 0.416667,-0.14658 0.833333,-0.2957 1.25,-0.44741 0.416667,-0.1517 0.833333,-0.30599 1.25,-0.4629 0.416667,-0.15691 0.833333,-0.31645 1.25,-0.47864 0.416667,-0.1622 0.833333,-0.32706 1.25,-0.49463 0.416667,-0.16756 0.833333,-0.33782 1.25,-0.51081 0.416667,-0.173 0.833333,-0.34873 1.25,-0.52722 0.416667,-0.1785 0.833333,-0.35976 1.25,-0.54381 0.416667,-0.18406 0.833333,-0.37091 1.25,-0.56058 0.416667,-0.18967 0.833333,-0.38216 1.25,-0.57749 0.416667,-0.19533 0.833333,-0.39351 1.25,-0.59455 0.416667,-0.20104 0.833333,-0.40495 1.25,-0.61173 0.416667,-0.20678 0.833333,-0.41644 1.25,-0.629 0.416667,-0.21255 0.833333,-0.428 1.25,-0.64634 0.416667,-0.21835 0.833333,-0.43959 1.25,-0.66374 0.416667,-0.22415 0.833333,-0.45121 1.25,-0.68117 0.416667,-0.22996 0.833333,-0.46282 1.25,-0.69859 0.416667,-0.23577 0.833333,-0.47444 1.25,-0.716 0.416667,-0.24156 0.833333,-0.48602 1.25,-0.73336 0.416667,-0.24733 0.833333,-0.49755 1.25,-0.75063 0.416667,-0.25308 0.83333,-0.50902 1.25,-0.7678 0.41667,-0.25878 0.83333,-0.5204 1.25,-0.78484 0.41667,-0.26443 0.83333,-0.53168 1.25,-0.8017 0.41667,-0.27003 0.83333,-0.54283 1.25,-0.81838 0.41667,-0.27555 0.83333,-0.55383 1.25,-0.83482 0.41667,-0.28099 0.83333,-0.56467 1.25,-0.851 0.41667,-0.28633 0.83333,-0.57531 1.25,-0.86689 0.41667,-0.29157 0.83333,-0.58574 1.25,-0.88244 0.41667,-0.29671 0.83333,-0.59594 1.25,-0.89765 0.41667,-0.3017 0.83333,-0.60587 1.25,-0.91244 0.41667,-0.30656 0.83333,-0.61552 1.25,-0.9268 0.41667,-0.31128 0.83333,-0.62488 1.25,-0.94071 0.41667,-0.31583 0.83333,-0.6339 1.25,-0.95411 0.41667,-0.32021 0.83333,-0.64256 1.25,-0.96697 0.41667,-0.3244 0.83333,-0.65085 1.25,-0.97925 0.41667,-0.3284 0.83333,-0.65875 1.25,-0.99094 0.41667,-0.33219 0.83333,-0.66622 1.25,-1.00198 0.41667,-0.33576 0.83333,-0.67324 1.25,-1.01234 0.41667,-0.33909 0.83333,-0.67979 1.25,-1.02198 0.41667,-0.34219 0.83333,-0.68586 1.25,-1.03088 0.41667,-0.34503 0.83333,-0.69141 1.25,-1.03901 0.41667,-0.3476 0.83333,-0.69642 1.25,-1.04632 0.41667,-0.34989 0.83333,-0.70087 1.25,-1.05278 0.41667,-0.3519 0.83333,-0.70474 1.25,-1.05836 0.41667,-0.35362 0.83333,-0.70802 1.25,-1.06305 0.41667,-0.35502 0.83333,-0.71067 1.25,-1.06679 0.41667,-0.35611 0.83333,-0.71269 1.25,-1.06957 0.41667,-0.35687 0.83333,-0.71405 1.25,-1.07135 0.41667,-0.35731 0.83333,-0.71474 1.25,-1.07213 0.41667,-0.35739 0.83333,-0.71474 1.25,-1.07186 0.41667,-0.35713 0.83333,-0.71403 1.25,-1.07053 0.41667,-0.3565 0.83333,-0.7126 1.25,-1.06811 0.41667,-0.35551 0.83333,-0.71044 1.25,-1.06459 0.41667,-0.35415 0.83333,-0.70752 1.25,-1.05994 0.41667,-0.35241 0.83333,-0.70386 1.25,-1.05416 0.41667,-0.35029 0.83333,-0.69943 1.25,-1.04722 0.41667,-0.34779 0.83333,-0.69423 1.25,-1.03912 0.41667,-0.3449 0.83333,-0.68825 1.25,-1.02986 0.41667,-0.3416 0.83333,-0.68147 1.25,-1.0194 0.41667,-0.33792 0.83333,-0.67391 1.25,-1.00776 0.41667,-0.33384 0.83333,-0.66555 1.25,-0.99492 0.41667,-0.32938 0.83333,-0.65641 1.25,-0.98091 0.41667,-0.3245 0.83333,-0.64647 1.25,-0.9657 0.41667,-0.31923 0.83333,-0.63573 1.25,-0.9493 0.41667,-0.31357 0.83333,-0.62421 1.25,-0.93173 0.41667,-0.30751 0.83333,-0.6119 1.25,-0.91297 0.41667,-0.30108 0.83333,-0.59883 1.25,-0.89307 0.41667,-0.29425 0.83333,-0.58498 1.25,-0.87202 0.41667,-0.28703 0.83333,-0.57037 1.25,-0.84983 0.41667,-0.27945 0.83333,-0.55502 1.25,-0.82652 0.41667,-0.27151 0.83333,-0.53895 1.25,-0.80214 0.41667,-0.2632 0.83333,-0.52215 1.25,-0.77668 0.41667,-0.25453 0.83333,-0.50465 1.25,-0.75018 0.41667,-0.24552 0.83333,-0.48646 1.25,-0.72265 0.41667,-0.23619 0.83333,-0.46762 1.25,-0.69415 0.41667,-0.22652 0.83333,-0.44814 1.25,-0.66469 0.41667,-0.21655 0.83333,-0.42803 1.25,-0.63431 0.41667,-0.20627 0.83333,-0.40733 1.25,-0.60305 0.41667,-0.19571 0.83333,-0.38607 1.25,-0.57094 0.41667,-0.18487 0.83333,-0.36426 1.25,-0.53803 0.41667,-0.17378 0.83333,-0.34194 1.25,-0.50437 0.41667,-0.16243 0.83333,-0.31912 1.25,-0.46997 0.41667,-0.15086 0.83333,-0.29586 1.25,-0.43492 0.41667,-0.13906 0.83333,-0.27218 1.25,-0.39924 0.41667,-0.12707 0.83333,-0.2481 1.25,-0.36299 0.41667,-0.11489 0.83333,-0.22365 1.25,-0.3262 0.41667,-0.10256 0.83333,-0.1989 1.25,-0.28896 0.41667,-0.0901 0.83333,-0.17384 1.25,-0.25129 0.41667,-0.0774 0.83333,-0.14854 1.25,-0.21325 0.41667,-0.0647 0.83333,-0.12302 1.25,-0.1749 0.41667,-0.0519 0.83333,-0.0973 1.25,-0.1363 0.41667,-0.039 0.83333,-0.0715 1.25,-0.0975 0.41667,-0.026 0.83333,-0.0455 1.25,-0.0586 0.41667,-0.013 0.83333,-0.0195 1.25,-0.0195 0.41667,0 0.83333,0.007 1.25,0.0195 0.41667,0.013 0.83333,0.0325 1.25,0.0586 0.41667,0.026 0.83333,0.0585 1.25,0.0975 0.41667,0.039 0.83333,0.0844 1.25,0.1363 0.41667,0.0519 0.83333,0.1102 1.25,0.1749 0.41667,0.0647 0.83333,0.13581 1.25,0.21325 0.41667,0.0774 0.83333,0.16123 1.25,0.25129 0.41667,0.0901 0.83333,0.1864 1.25,0.28896 0.41667,0.10255 0.83333,0.21131 1.25,0.3262 0.41667,0.11489 0.83333,0.23592 1.25,0.36299 0.41667,0.12706 0.83333,0.26018 1.25,0.39924 0.41667,0.13906 0.83333,0.28406 1.25,0.43492 0.41667,0.15085 0.83333,0.30754 1.25,0.46997 0.41667,0.16243 0.83333,0.33059 1.25,0.50437 0.41667,0.17377 0.83333,0.35316 1.25,0.53803 0.41667,0.18487 0.83333,0.37523 1.25,0.57094 0.41667,0.19572 0.83333,0.39678 1.25,0.60305 0.41667,0.20628 0.83333,0.41776 1.25,0.63431 0.41667,0.21655 0.83333,0.43817 1.25,0.66469 0.41667,0.22653 0.83333,0.45796 1.25,0.69415 0.41667,0.23619 0.83333,0.47713 1.25,0.72265 0.41667,0.24553 0.83333,0.49565 1.25,0.75018 0.41667,0.25453 0.83333,0.51348 1.25,0.77668 0.41667,0.26319 0.83333,0.53063 1.25,0.80214 0.41667,0.2715 0.83333,0.54707 1.25,0.82652 0.41667,0.27946 0.83333,0.5628 1.25,0.84983 0.41667,0.28704 0.83333,0.57777 1.25,0.87202 0.41667,0.29424 0.83333,0.59199 1.25,0.89307 0.41667,0.30107 0.83333,0.60546 1.25,0.91297 0.41667,0.30752 0.83333,0.61816 1.25,0.93173 0.41667,0.31357 0.83333,0.63007 1.25,0.9493 0.41667,0.31923 0.83333,0.6412 1.25,0.9657 0.41667,0.3245 0.83333,0.65153 1.25,0.98091 0.41667,0.32937 0.83333,0.66108 1.25,0.99492 0.41667,0.33385 0.83333,0.66984 1.25,1.00776 0.41667,0.33793 0.83333,0.6778 1.25,1.0194 0.41667,0.34161 0.83333,0.68496 1.25,1.02986 0.41667,0.34489 0.83333,0.69133 1.25,1.03912 0.41667,0.34779 0.83333,0.69693 1.25,1.04722 0.41667,0.3503 0.83333,0.70175 1.25,1.05416 0.41667,0.35242 0.83333,0.70579 1.25,1.05994 0.41667,0.35415 0.83333,0.70908 1.25,1.06459 0.41667,0.35551 0.83333,0.71161 1.25,1.06811 0.41667,0.3565 0.83333,0.7134 1.25,1.07053 0.41667,0.35712 0.83333,0.71447 1.25,1.07186 0.41667,0.35739 0.83333,0.71482 1.25,1.07213 0.41667,0.3573 0.83333,0.71448 1.25,1.07135 0.41667,0.35688 0.83333,0.71346 1.25,1.06957 0.41667,0.35612 0.83333,0.71177 1.25,1.06679 0.41667,0.35503 0.83333,0.70943 1.25,1.06305 0.41667,0.35362 0.83333,0.70646 1.25,1.05836 0.41667,0.35191 0.83333,0.70289 1.25,1.05278 0.41667,0.3499 0.83333,0.69872 1.25,1.04632 0.41667,0.3476 0.83333,0.69398 1.25,1.03901 0.41667,0.34502 0.83333,0.68869 1.25,1.03088 0.41667,0.34219 0.83333,0.68289 1.25,1.02198 0.41667,0.3391 0.83333,0.67658 1.25,1.01234 0.41667,0.33576 0.83333,0.66979 1.25,1.00198 0.41667,0.33219 0.83333,0.66254 1.25,0.99094 0.41667,0.3284 0.83333,0.65485 1.25,0.97925 0.41667,0.32441 0.83333,0.64676 1.25,0.96697 0.41667,0.32021 0.83333,0.63828 1.25,0.95411 0.41667,0.31583 0.83333,0.62943 1.25,0.94071 0.41667,0.31128 0.83333,0.62024 1.25,0.9268 0.41667,0.30657 0.83333,0.61074 1.25,0.91244 0.41667,0.30171 0.83333,0.60094 1.25,0.89765 0.41667,0.2967 0.83333,0.59087 1.25,0.88244 0.41667,0.29158 0.83333,0.58056 1.25,0.86689 0.41667,0.28633 0.83333,0.57001 1.25,0.851 0.41667,0.28099 0.83333,0.55927 1.25,0.83482 0.41667,0.27555 0.83333,0.54835 1.25,0.81838 0.41667,0.27002 0.83333,0.53727 1.25,0.8017 0.41667,0.26444 0.83333,0.52606 1.25,0.78484 0.41667,0.25878 0.83333,0.51472 1.25,0.7678 0.41667,0.25308 0.83333,0.5033 1.25,0.75063 0.41667,0.24734 0.83333,0.4918 1.25,0.73336 0.41667,0.24156 0.83333,0.48023 1.25,0.716 0.41667,0.23577 0.83333,0.46863 1.25,0.69859 0.41667,0.22996 0.83333,0.45702 1.25,0.68117 0.41667,0.22415 0.83333,0.44539 1.25,0.66374 0.41667,0.21834 0.83333,0.43379 1.25,0.64634 0.41667,0.21256 0.83333,0.42222 1.25,0.629 0.41667,0.20678 0.83333,0.41069 1.25,0.61173 0.41667,0.20104 0.83333,0.39922 1.25,0.59455 0.41667,0.19533 0.83333,0.38782 1.25,0.57749 0.41667,0.18967 0.83333,0.37652 1.25,0.56058 0.41667,0.18405 0.83333,0.36531 1.25,0.54381 0.41667,0.17849 0.83333,0.35422 1.25,0.52722 0.41667,0.17299 0.83333,0.34325 1.25,0.51081 0.41667,0.16757 0.83333,0.33243 1.25,0.49463 0.41667,0.16219 0.83333,0.32173 1.25,0.47864 0.41667,0.15691 0.83333,0.3112 1.25,0.4629 0.41667,0.15171 0.83333,0.30083 1.25,0.44741 0.41667,0.14658 0.83333,0.29062 1.25,0.43217 0.41667,0.14154 0.83333,0.28059 1.25,0.41719 0.41667,0.1366 0.83333,0.27075 1.25,0.4025 0.41667,0.13175 0.83333,0.2611 1.25,0.38809 0.41667,0.127 0.83333,0.25164 1.25,0.37398 0.41667,0.12234 0.83333,0.24237 1.25,0.36015 0.41667,0.11779 0.83333,0.23332 1.25,0.34665 0.41667,0.11333 0.83333,0.22446 1.25,0.33345 0.41667,0.10898 0.83333,0.21581 1.25,0.32055 0.41667,0.10474 0.83333,0.20739 1.25,0.30799 0.41667,0.10061 0.83333,0.19917 1.25,0.29575 0.41667,0.0966 0.83333,0.19116 1.25,0.28381 0.41667,0.0927 0.83333,0.18337 1.25,0.27221 0.41667,0.0888 0.83333,0.1758 1.25,0.26093 0.41667,0.0851 0.83333,0.16844 1.25,0.24998 0.41667,0.0815 0.83333,0.16129 1.25,0.23934 0.41667,0.078 0.83333,0.15436 1.25,0.22902 0.41667,0.0747 0.83333,0.14765 1.25,0.21903 0.41667,0.0714 0.83333,0.14115 1.25,0.20936 0.41667,0.0682 0.83333,0.13485 1.25,0.19999 0.41667,0.0651 0.83333,0.12877 1.25,0.19094 0.41667,0.0622 0.83333,0.12289 1.25,0.18219 0.41667,0.0593 0.83333,0.11721 1.25,0.17375 0.41667,0.0565 0.83333,0.11173 1.25,0.1656 0.41667,0.0539 0.83333,0.10645 1.25,0.15775 0.41667,0.0513 0.83333,0.10136 1.25,0.15019 0.41667,0.0488 0.83333,0.0965 1.25,0.1429 0.41667,0.0465 0.83333,0.0917 1.25,0.1359 0.41667,0.0442 0.83333,0.0872 1.25,0.12917 0.41667,0.042 0.83333,0.0829 1.25,0.1227 0.41667,0.0399 0.83333,0.0787 1.25,0.11649 0.41667,0.0378 0.83333,0.0747 1.25,0.11053 0.41667,0.0359 0.83333,0.0708 1.25,0.10482 0.41667,0.034 0.83333,0.0671 1.25,0.0994 0.41667,0.0322 0.83333,0.0636 1.25,0.0941"
       style="color:#000000;clip-rule:nonzero;display:inline;overflow:visible;visibility:visible;opacity:1;isolation:auto;mix-blend-mode:normal;color-interpolation:sRGB;color-interpolation-filters:linearRGB;solid-color:#000000;solid-opacity:1;fill:none;fill-opacity:0.35519128;fill-rule:evenodd;stroke:#ffffff;stroke-width:4;stroke-linecap:butt;stroke-linejoin:miter;stroke-miterlimit:4;stroke-dasharray:none;stroke-dashoffset:0;stroke-opacity:1;color-rendering:auto;image-rendering:auto;shape-rendering:auto;text-rendering:auto;enable-background:accumulate" />
    <path
       inkscape:connector-curvature="0"
       style="color:#000000;clip-rule:nonzero;display:inline;overflow:visible;visibility:visible;opacity:1;isolation:auto;mix-blend-mode:normal;color-interpolation:sRGB;color-interpolation-filters:linearRGB;solid-color:#000000;solid-opacity:1;fill:none;fill-opacity:0;fill-rule:evenodd;stroke:#ff9999;stroke-width:2;stroke-linecap:butt;stroke-linejoin:miter;stroke-miterlimit:4;stroke-dasharray:none;stroke-dashoffset:0;stroke-opacity:1;color-rendering:auto;image-rendering:auto;shape-rendering:auto;text-rendering:auto;enable-background:accumulate"
       d="m 16,683.91556 c 0.416667,0.20874 0.833333,0.44785 1.25,0.69353 0.416667,0.24568 0.833333,0.49757 1.25,0.72732 0.416667,0.22974 0.833333,0.43689 1.25,0.59466 0.416667,0.15776 0.833333,0.26572 1.25,0.30517 0.416667,0.0394 0.833333,0.0101 1.25,-0.0932 0.416667,-0.10332 0.833333,-0.28069 1.25,-0.52075 0.416667,-0.24006 0.833333,-0.54265 1.25,-0.8805 0.416667,-0.33785 0.833333,-0.71055 1.25,-1.07938 0.416667,-0.36883 0.833333,-0.7332 1.25,-1.05062 0.416667,-0.31743 0.833333,-0.58726 1.25,-0.77281 0.416667,-0.18554 0.833333,-0.28624 1.25,-0.28052 0.416667,0.006 0.833333,0.11819 1.25,0.33694 0.416667,0.21875 0.833333,0.54377 1.25,0.95005 0.416667,0.40628 0.833333,0.89343 1.25,1.41485 0.416667,0.52142 0.833333,1.07638 1.25,1.60509 0.416667,0.52872 0.833333,1.03027 1.25,1.44416 0.416667,0.41389 0.833333,0.7392 1.25,0.92883 0.416667,0.18963 0.833333,0.24287 1.25,0.13858 0.416667,-0.10429 0.833333,-0.36641 1.25,-0.77367 0.416667,-0.40726 0.833333,-0.95944 1.25,-1.60916 0.416667,-0.64973 0.833333,-1.39627 1.25,-2.16481 0.416667,-0.76854 0.833333,-1.55791 1.25,-2.28034 0.416667,-0.72242 0.833333,-1.37655 1.25,-1.88066 0.416667,-0.50412 0.833333,-0.85699 1.25,-1.0027 0.416667,-0.14571 0.833333,-0.0834 1.25,0.20115 0.416667,0.28459 0.833333,0.79167 1.25,1.48627 0.416667,0.6946 0.833333,1.57614 1.25,2.56331 0.416667,0.98718 0.833333,2.07871 1.25,3.16108 0.416667,1.08237 0.833333,2.15383 1.25,3.09173 0.416667,0.9379 0.833333,1.74038 1.25,2.3032 0.416667,0.56283 0.833333,0.88446 1.25,0.90512 0.416667,0.0207 0.833333,-0.26048 1.25,-0.84048 0.416667,-0.58001 0.833333,-1.45873 1.25,-2.56501 0.416667,-1.10629 0.833333,-2.43897 1.25,-3.86855 0.416667,-1.42958 0.833333,-2.95402 1.25,-4.40986 0.416667,-1.45584 0.833333,-2.84057 1.25,-3.99132 0.416667,-1.15074 0.833333,-2.06507 1.25,-2.61842 0.416667,-0.55334 0.833333,-0.7439 1.25,-0.51773 0.416667,0.22617 0.833333,0.86974 1.25,1.89512 0.416667,1.02537 0.833333,2.43183 1.25,4.09432 0.416667,1.6625 0.833333,3.57897 1.25,5.55569 0.416667,1.97672 0.833333,4.01066 1.25,5.87798 0.416667,1.86732 0.833333,3.56461 1.25,4.88679 0.416667,1.32219 0.833333,2.26626 1.25,2.69469 0.416667,0.42843 0.833333,0.33933 1.25,-0.29987 0.416667,-0.6392 0.833333,-1.82875 1.25,-3.47993 0.416667,-1.65118 0.833333,-3.76239 1.25,-6.1339 0.416667,-2.3715 0.833333,-5.00008 1.25,-7.61164 0.416667,-2.61156 0.833333,-5.20188 1.25,-7.47932 0.416667,-2.27745 0.833333,-4.23767 1.25,-5.63691 0.416667,-1.39924 0.833333,-2.23403 1.25,-2.36807 0.416667,-0.13405 0.833333,0.43437 1.25,1.69451 0.416667,1.26014 0.833333,3.21144 1.25,5.68724 0.416667,2.4758 0.833333,5.47321 1.25,8.6959 0.416667,3.22268 0.83333,6.66592 1.25,9.96166 0.41667,3.29573 0.83333,6.43835 1.25,9.06678 0.41667,2.62842 0.83333,4.73739 1.25,6.05564 0.41667,1.31825 0.83333,1.84211 1.25,1.45843 0.41667,-0.38367 0.83333,-1.67602 1.25,-3.79511 0.41667,-2.11909 0.83333,-5.06308 1.25,-8.56001 0.41667,-3.49692 0.83333,-7.54218 1.25,-11.7226 0.41667,-4.18041 0.83333,-8.48947 1.25,-12.45717 0.41667,-3.96771 0.83333,-7.58701 1.25,-10.43409 0.41667,-2.84707 0.83333,-4.91591 1.25,-5.92813 0.41667,-1.01222 0.83333,-0.96431 1.25,0.20413 0.41667,1.16843 0.83333,3.45745 1.25,6.68188 0.41667,3.22443 0.83333,7.38067 1.25,12.06459 0.41667,4.68393 0.83333,9.88886 1.25,15.06982 0.41667,5.18095 0.83333,10.32952 1.25,14.87469 0.41667,4.54518 0.83333,8.47862 1.25,11.33097 0.41667,2.85234 0.83333,4.61723 1.25,5.03897 0.41667,0.42174 0.83333,-0.50248 1.25,-2.74464 0.41667,-2.24216 0.83333,-5.80068 1.25,-10.35418 0.41667,-4.55349 0.83333,-10.09611 1.25,-16.06938 0.41667,-5.97328 0.83333,-12.3682 1.25,-18.50231 0.41667,-6.13412 0.83333,-11.99712 1.25,-16.92981 0.41667,-4.93269 0.83333,-8.92574 1.25,-11.49292 0.41667,-2.56718 0.83333,-3.7023 1.25,-3.21045 0.41667,0.49186 0.83333,2.61216 1.25,6.20606 0.41667,3.59389 0.83333,8.65757 1.25,14.70401 0.41667,6.04643 0.83333,13.06713 1.25,20.33637 0.41667,7.26924 0.83333,14.77555 1.25,21.70623 0.41667,6.93069 0.83333,13.27378 1.25,18.30803 0.41667,5.03425 0.83333,8.74986 1.25,10.683 0.41667,1.93314 0.83333,2.07849 1.25,0.34497 0.41667,-1.73352 0.83333,-5.34534 1.25,-10.51731 0.41667,-5.17197 0.83333,-11.89752 1.25,-19.50327 0.41667,-7.60576 0.83333,-16.0804 1.25,-24.53146 0.41667,-8.45107 0.83333,-16.86483 1.25,-24.32064 0.41667,-7.45581 0.83333,-13.94052 1.25,-18.71001 0.41667,-4.76948 0.83333,-7.81419 1.25,-8.73953 0.41667,-0.92533 0.83333,0.2724 1.25,3.53721 0.41667,3.2648 0.83333,8.59344 1.25,15.4756 0.41667,6.88215 0.83333,15.30814 1.25,24.41123 0.41667,9.1031 0.83333,18.86914 1.25,28.25608 0.41667,9.38694 0.83333,18.37918 1.25,25.98576 0.41667,7.60659 0.83333,13.81393 1.25,17.9045 0.41667,4.09057 0.83333,6.05589 1.25,5.62006 0.41667,-0.43583 0.83333,-3.27412 1.25,-8.27452 0.41667,-5.00039 0.83333,-12.15651 1.25,-20.7502 0.41667,-8.59369 0.83333,-18.61211 1.25,-29.00547 0.41667,-10.39337 0.83333,-21.14506 1.25,-31.09789 0.41667,-9.95283 0.83333,-19.09002 1.25,-26.401 0.41667,-7.31098 0.83333,-12.78258 1.25,-15.77874 0.41667,-2.99616 0.83333,-3.51035 1.25,-1.43104 0.41667,2.0793 0.83333,6.75039 1.25,13.56341 0.41667,6.81302 0.83333,15.75821 1.25,25.91162 0.41667,10.15341 0.83333,21.49922 1.25,32.83394 0.41667,11.33472 0.83333,22.63989 1.25,32.69311 0.41667,10.05322 0.83333,18.83748 1.25,25.38146 0.41667,6.54397 0.83333,10.83589 1.25,12.37475 0.41667,1.53885 0.83333,0.32084 1.25,-3.56601 0.41667,-3.88684 0.83333,-10.43738 1.25,-18.98447 0.41667,-8.54709 0.83333,-19.07765 1.25,-30.48387 0.41667,-11.40623 0.83333,-23.6699 1.25,-35.48065 0.41667,-11.81076 0.83333,-23.14922 1.25,-32.78867 0.41667,-9.63946 0.83333,-17.56365 1.25,-22.90086 0.41667,-5.3372 0.83333,-8.07792 1.25,-7.90137 0.41667,0.17654 0.83333,3.2709 1.25,8.97666 0.41667,5.70577 0.83333,14.01432 1.25,24.05367 0.41667,10.03936 0.83333,21.79357 1.25,34.01213 0.41667,12.21857 0.83333,24.88168 1.25,36.6324 0.41667,11.75071 0.83333,22.56975 1.25,31.29112 0.41667,8.72137 0.83333,15.33058 1.25,19.10965 0.41667,3.77907 0.83333,4.72153 1.25,2.71692 0.41667,-2.00462 0.83333,-6.95329 1.25,-14.32267 0.41667,-7.36937 0.83333,-17.14758 1.25,-28.29064 0.41667,-11.14307 0.83333,-23.6329 1.25,-36.1329 0.41667,-12.5 0.83333,-24.98983 1.25,-36.1329 0.41667,-11.14306 0.83333,-20.92127 1.25,-28.29064 0.41667,-7.36938 0.83333,-12.31805 1.25,-14.32267 0.41667,-2.00461 0.83333,-1.06215 1.25,2.71692 0.41667,3.77907 0.83333,10.38828 1.25,19.10965 0.41667,8.72137 0.83333,19.54041 1.25,31.29112 0.41667,11.75072 0.83333,24.41383 1.25,36.6324 0.41667,12.21856 0.83333,23.97277 1.25,34.01213 0.41667,10.03935 0.83333,18.3479 1.25,24.05367 0.41667,5.70576 0.83333,8.80012 1.25,8.97666 0.41667,0.17655 0.83333,-2.56417 1.25,-7.90137 0.41667,-5.33721 0.83333,-13.2614 1.25,-22.90086 0.41667,-9.63945 0.83333,-20.97791 1.25,-32.78867 0.41667,-11.81075 0.83333,-24.07442 1.25,-35.48065 0.41667,-11.40622 0.83333,-21.93678 1.25,-30.48387 0.41667,-8.54709 0.83333,-15.09763 1.25,-18.98447 0.41667,-3.88685 0.83333,-5.10486 1.25,-3.56601 0.41667,1.53886 0.83333,5.83078 1.25,12.37475 0.41667,6.54398 0.83333,15.32824 1.25,25.38146 0.41667,10.05322 0.83333,21.35839 1.25,32.69311 0.41667,11.33472 0.83333,22.68053 1.25,32.83394 0.41667,10.15341 0.83333,19.0986 1.25,25.91162 0.41667,6.81302 0.83333,11.48411 1.25,13.56341 0.41667,2.07931 0.83333,1.56512 1.25,-1.43104 0.41667,-2.99616 0.83333,-8.46776 1.25,-15.77874 0.41667,-7.31098 0.83333,-16.44817 1.25,-26.401 0.41667,-9.95283 0.83333,-20.70452 1.25,-31.09789 0.41667,-10.39336 0.83333,-20.41178 1.25,-29.00547 0.41667,-8.59369 0.83333,-15.74981 1.25,-20.7502 0.41667,-5.0004 0.83333,-7.83869 1.25,-8.27452 0.41667,-0.43583 0.83333,1.52949 1.25,5.62006 0.41667,4.09057 0.83333,10.29791 1.25,17.9045 0.41667,7.60658 0.83333,16.59882 1.25,25.98576 0.41667,9.38694 0.83333,19.15298 1.25,28.25608 0.41667,9.10309 0.83333,17.52908 1.25,24.41123 0.41667,6.88216 0.83333,12.2108 1.25,15.4756 0.41667,3.26481 0.83333,4.46254 1.25,3.53721 0.41667,-0.92534 0.83333,-3.97005 1.25,-8.73953 0.41667,-4.76949 0.83333,-11.2542 1.25,-18.71001 0.41667,-7.45581 0.83333,-15.86957 1.25,-24.32064 0.41667,-8.45106 0.83333,-16.9257 1.25,-24.53146 0.41667,-7.60575 0.83333,-14.3313 1.25,-19.50327 0.41667,-5.17197 0.83333,-8.78379 1.25,-10.51731 0.41667,-1.73352 0.83333,-1.58817 1.25,0.34497 0.41667,1.93314 0.83333,5.64875 1.25,10.683 0.41667,5.03425 0.83333,11.37734 1.25,18.30803 0.41667,6.93068 0.83333,14.43699 1.25,21.70623 0.41667,7.26924 0.83333,14.28994 1.25,20.33637 0.41667,6.04644 0.83333,11.11012 1.25,14.70401 0.41667,3.5939 0.83333,5.7142 1.25,6.20606 0.41667,0.49185 0.83333,-0.64327 1.25,-3.21045 0.41667,-2.56718 0.83333,-6.56023 1.25,-11.49292 0.41667,-4.93269 0.83333,-10.79569 1.25,-16.92981 0.41667,-6.13411 0.83333,-12.52903 1.25,-18.50231 0.41667,-5.97327 0.83333,-11.51589 1.25,-16.06938 0.41667,-4.5535 0.83333,-8.11202 1.25,-10.35418 0.41667,-2.24216 0.83333,-3.16638 1.25,-2.74464 0.41667,0.42174 0.83333,2.18663 1.25,5.03897 0.41667,2.85235 0.83333,6.78579 1.25,11.33097 0.41667,4.54517 0.83333,9.69374 1.25,14.87469 0.41667,5.18096 0.83333,10.38589 1.25,15.06982 0.41667,4.68392 0.83333,8.84016 1.25,12.06459 0.41667,3.22443 0.83333,5.51345 1.25,6.68188 0.41667,1.16844 0.83333,1.21635 1.25,0.20413 0.41667,-1.01222 0.83333,-3.08106 1.25,-5.92813 0.41667,-2.84708 0.83333,-6.46638 1.25,-10.43409 0.41667,-3.9677 0.83333,-8.27676 1.25,-12.45717 0.41667,-4.18042 0.83333,-8.22568 1.25,-11.7226 0.41667,-3.49693 0.83333,-6.44092 1.25,-8.56001 0.41667,-2.11909 0.83333,-3.41144 1.25,-3.79511 0.41667,-0.38368 0.83333,0.14018 1.25,1.45843 0.41667,1.31825 0.83333,3.42722 1.25,6.05564 0.41667,2.62843 0.83333,5.77105 1.25,9.06678 0.41667,3.29574 0.83333,6.73898 1.25,9.96166 0.41667,3.22269 0.83333,6.2201 1.25,8.6959 0.41667,2.4758 0.83333,4.4271 1.25,5.68724 0.41667,1.26014 0.83333,1.82856 1.25,1.69451 0.41667,-0.13404 0.83333,-0.96883 1.25,-2.36807 0.41667,-1.39924 0.83333,-3.35946 1.25,-5.63691 0.41667,-2.27744 0.83333,-4.86776 1.25,-7.47932 0.41667,-2.61156 0.83333,-5.24014 1.25,-7.61164 0.41667,-2.37151 0.83333,-4.48272 1.25,-6.1339 0.41667,-1.65118 0.83333,-2.84073 1.25,-3.47993 0.41667,-0.6392 0.83333,-0.7283 1.25,-0.29987 0.41667,0.42843 0.83333,1.3725 1.25,2.69469 0.41667,1.32218 0.83333,3.01947 1.25,4.88679 0.41667,1.86732 0.83333,3.90126 1.25,5.87798 0.41667,1.97672 0.83333,3.89319 1.25,5.55569 0.41667,1.66249 0.83333,3.06895 1.25,4.09432 0.41667,1.02538 0.83333,1.66895 1.25,1.89512 0.41667,0.22617 0.83333,0.0356 1.25,-0.51773 0.41667,-0.55335 0.83333,-1.46768 1.25,-2.61842 0.41667,-1.15075 0.83333,-2.53548 1.25,-3.99132 0.41667,-1.45584 0.83333,-2.98028 1.25,-4.40986 0.41667,-1.42958 0.83333,-2.76226 1.25,-3.86855 0.41667,-1.10628 0.83333,-1.985 1.25,-2.56501 0.41667,-0.58 0.83333,-0.86114 1.25,-0.84048 0.41667,0.0207 0.83333,0.34229 1.25,0.90512 0.41667,0.56282 0.83333,1.3653 1.25,2.3032 0.41667,0.9379 0.83333,2.00936 1.25,3.09173 0.41667,1.08237 0.83333,2.1739 1.25,3.16108 0.41667,0.98717 0.83333,1.86871 1.25,2.56331 0.41667,0.6946 0.83333,1.20168 1.25,1.48627 0.41667,0.28459 0.83333,0.34686 1.25,0.20115 0.41667,-0.14571 0.83333,-0.49858 1.25,-1.0027 0.41667,-0.50411 0.83333,-1.15824 1.25,-1.88066 0.41667,-0.72243 0.83333,-1.5118 1.25,-2.28034 0.41667,-0.76854 0.83333,-1.51508 1.25,-2.16481 0.41667,-0.64972 0.83333,-1.2019 1.25,-1.60916 0.41667,-0.40726 0.83333,-0.66938 1.25,-0.77367 0.41667,-0.10429 0.83333,-0.0511 1.25,0.13858 0.41667,0.18963 0.83333,0.51494 1.25,0.92883 0.41667,0.41389 0.83333,0.91544 1.25,1.44416 0.41667,0.52871 0.83333,1.08367 1.25,1.60509 0.41667,0.52142 0.83333,1.00857 1.25,1.41485 0.41667,0.40628 0.83333,0.7313 1.25,0.95005 0.41667,0.21875 0.83333,0.33122 1.25,0.33694 0.41667,0.006 0.83333,-0.095 1.25,-0.28052 0.41667,-0.18555 0.83333,-0.45538 1.25,-0.77281 0.41667,-0.31742 0.83333,-0.68179 1.25,-1.05062 0.41667,-0.36883 0.83333,-0.74153 1.25,-1.07938 0.41667,-0.33785 0.83333,-0.64044 1.25,-0.8805 0.41667,-0.24006 0.83333,-0.41743 1.25,-0.52075 0.41667,-0.10332 0.83333,-0.13269 1.25,-0.0933 0.41667,0.0394 0.83333,0.14741 1.25,0.30517 0.41667,0.15777 0.83333,0.36492 1.25,0.59466 0.41667,0.22975 0.83333,0.48164 1.25,0.72732 0.41667,0.24568 0.83333,0.48479 1.25,0.69353"
       title="exp(-x**2) * sin(30 * x)"
       id="path6273" />
    <g
       style="fill:#ffffff;fill-opacity:1"
       transform="translate(-150.51273,539.42146)"
       id="g6532">
      <g
         style="font-style:normal;font-variant:normal;font-weight:normal;font-stretch:normal;letter-spacing:normal;word-spacing:normal;text-anchor:start;fill:#ffffff;fill-opacity:1;fill-rule:evenodd;stroke:#000000;stroke-linecap:butt;stroke-linejoin:miter;stroke-miterlimit:10.43299961;stroke-dasharray:none;stroke-dashoffset:0;stroke-opacity:1"
         id="g6534"
         transform="matrix(0.73142857,0,0,-0.73142857,-128,384)"
         xml:space="preserve"
         stroke-miterlimit="10.433"
         font-style="normal"
         font-variant="normal"
         font-weight="normal"
         font-stretch="normal"
         font-size-adjust="none"
         letter-spacing="normal"
         word-spacing="normal"><path
           style="fill:#ffffff;fill-opacity:1;stroke-width:0"
           inkscape:connector-curvature="0"
           d="m 463.67,421.24 -0.49,-0.34 -0.48,-0.34 -0.44,-0.35 -0.43,-0.36 -0.4,-0.35 -0.38,-0.36 -0.35,-0.37 -0.34,-0.36 -0.31,-0.37 -0.3,-0.36 -0.27,-0.36 -0.26,-0.36 -0.24,-0.36 -0.22,-0.36 -0.2,-0.35 -0.19,-0.35 -0.17,-0.34 -0.15,-0.34 -0.14,-0.33 -0.13,-0.32 -0.11,-0.32 -0.1,-0.3 -0.09,-0.3 -0.08,-0.29 -0.06,-0.27 -0.06,-0.26 -0.04,-0.25 -0.04,-0.24 -0.02,-0.22 -0.02,-0.21 -0.01,-0.19 -0.01,-0.18 c 0,-2.39 1.35,-3.79 1.45,-3.93 1.59,-1.65 2.04,-1.85 5.78,-3.24 l 6.02,-2.34 c 0.75,-0.35 1.75,-0.7 1.75,-2.15 0,-1.14 -0.9,-2.64 -2.44,-2.64 -2.19,0 -3.84,1.2 -4.38,1.6 -0.3,0.2 -0.36,0.25 -0.55,0.25 -0.4,0 -0.5,-0.35 -0.5,-0.55 0,-0.6 2.64,-2.39 5.43,-2.39 3.09,0 5.18,2.89 5.18,5.33 0,2.39 -1.84,3.29 -2.39,3.54 -0.7,0.24 -2.39,0.89 -3.04,1.14 -1,0.4 -1.99,0.8 -3.04,1.15 l -2.99,1.19 c -2.24,0.9 -3.73,2.34 -3.73,4.43 0,2.05 1.94,6.38 6.12,8.47 1.85,-0.65 3.34,-0.65 4.39,-0.65 l 0.15,1.1 c -1.15,0 -1.6,0 -2.49,0.4 l 0,0 5.68,0 c -0.4,-0.2 -0.9,-0.4 -3.19,-0.4 l -0.15,-1.1 c 1.49,0 4.63,0 4.63,1.55 0,1.24 -2.14,1.35 -4.08,1.35 -0.9,0 -2.35,0 -4.19,-0.6 -1.29,1.29 -1.49,2.93 -1.49,3.88 0,2.79 1.79,6.63 5.52,8.47 0.9,-1.09 2.05,-1.09 3.2,-1.09 l 0.04,1.09 c -0.94,0 -1.54,0 -2.09,0.45 l 0,0 c 0.8,0.25 1.85,0.25 2.39,0.25 1.69,0 1.89,-0.05 2.79,-0.3 -0.4,-0.15 -0.9,-0.4 -3.09,-0.4 l -0.04,-1.09 c 1.24,0 4.42,0 4.42,1.54 0,1.3 -2.19,1.35 -4.13,1.35 -0.65,0 -1.84,0 -3.13,-0.25 l 0,3.48 c 0,0.4 -0.25,0.65 -0.6,0.65 -0.9,0 -0.9,-2.29 -0.9,-2.44 0,-1 0.3,-1.74 0.35,-1.94 -5.33,-1.5 -8.72,-5.48 -8.72,-9.32 0,-1.84 0.9,-3.93 3.24,-5.28 z"
           id="path6536" /></g>    </g>
  </g>
</svg>
